<?xml version="1.0" ?><!DOCTYPE svg  PUBLIC '-//W3C//DTD SVG 1.1//EN'  'http://www.w3.org/Graphics/SVG/1.1/DTD/svg11.dtd'><svg height="824.000" viewBox="-412.000 -412.000 824.000 824.000" width="824.000" xmlns="http://www.w3.org/2000/svg"><line fill="none" stroke="none" stroke-linecap="round" stroke-width="2.0" x1="0.0" x2="0.0" y1="0.0" y2="0.0"/><polygon fill="none" fill-rule="evenodd" points="0.0,0.0 0.0,0.0 0.0,0.0" stroke-linejoin="round"/><polyline fill="none" points="-400.0,-400.0 400.0,-400.0 400.0,400.0 -400.0,400.0 -400.0,-400.0" stroke="#000" stroke-linecap="round" stroke-linejoin="round"/><polygon fill="#000" fill-rule="evenodd" points="4.0,0.0 3.46410161514,-2.0 2.0,-3.46410161514 1.0502709813e-13,-4.0 -2.0,-3.46410161514 -3.46410161514,-2.0 -4.0,-1.12132525487e-13 -3.46410161514,2.0 -2.0,3.46410161514 -1.04360964315e-14,4.0 2.0,3.46410161514 3.46410161514,2.0 4.0,5.10702591328e-15" stroke-linejoin="round"/><polyline fill="none" points="4.0,0.0 3.46410161514,-2.0 2.0,-3.46410161514 1.0502709813e-13,-4.0 -2.0,-3.46410161514 -3.46410161514,-2.0 -4.0,-1.12132525487e-13 -3.46410161514,2.0 -2.0,3.46410161514 -1.04360964315e-14,4.0 2.0,3.46410161514 3.46410161514,2.0 4.0,5.10702591328e-15" stroke="#000" stroke-linecap="round" stroke-linejoin="round"/><polygon fill="#000" fill-rule="evenodd" points="204.0,-200.0 203.464101615,-202.0 202.0,-203.464101615 200.0,-204.0 198.0,-203.464101615 196.535898385,-202.0 196.0,-200.0 196.535898385,-198.0 198.0,-196.535898385 200.0,-196.0 202.0,-196.535898385 203.464101615,-198.0 204.0,-200.0" stroke-linejoin="round"/><polyline fill="none" points="204.0,-200.0 203.464101615,-202.0 202.0,-203.464101615 200.0,-204.0 198.0,-203.464101615 196.535898385,-202.0 196.0,-200.0 196.535898385,-198.0 198.0,-196.535898385 200.0,-196.0 202.0,-196.535898385 203.464101615,-198.0 204.0,-200.0" stroke="#000" stroke-linecap="round" stroke-linejoin="round"/><polyline fill="none" points="68.6291501015,-165.685424949 66.8531650462,-194.479942555 61.5521320033,-222.837964625 52.8064092303,-250.329612453 40.7485729694,-276.538140679 25.5614077273,-301.066254731 7.47513544805,-323.542133404 -13.2360744166,-343.625065287 -36.2582610371,-361.010613604 -61.2424315316,-375.435231164 -87.8098513431,-386.68025547 -115.557785468,-394.575223414 -144.065603511,-399.000455331 -172.901156008,-399.888869216 -201.627325378,-397.22699762 -229.808652175,-391.055191802 -257.017936211,-381.467010048 -282.842712475,-368.60779942 -306.891503683,-352.672492443 -328.799754676,-333.902652126 -348.2353587,-312.582810117 -364.903691809,-289.036153487 -378.552079064,-263.619625549 -388.973624827,-236.71851496 -396.010349088,-208.740615132 -399.555582279,-180.11004251 -399.555582279,-151.260807389 -396.010349088,-122.630234766 -388.973624827,-94.6523349389 -378.552079064,-67.751224349 -364.903691809,-42.3346964116 -348.2353587,-18.788039782 -328.799754676,2.53180222747 -306.891503683,21.3016425441 -282.842712475,37.2369495217 -257.017936211,50.0961601499 -229.808652175,59.6843419037 -201.627325378,65.8561477213 -172.901156008,68.5180193177 -144.065603511,67.6296054328 -115.557785468,63.2043735156 -87.8098513431,55.3094055711 -61.2424315316,44.0643812657" stroke="#000" stroke-linecap="round" stroke-linejoin="round"/><polyline fill="none" points="-61.2424315316,44.0643812657 -36.2582610371,29.6397637051 -13.2360744166,12.2542153882 7.47513544804,-7.82871649465 25.5614077273,-30.3045951674 40.7485729694,-54.83270922 52.8064092303,-81.041237446 61.5521320033,-108.532885273 66.8531650462,-136.890907343 68.6291501015,-165.685424949" stroke="#000" stroke-linecap="round" stroke-linejoin="round"/><polyline fill="none" points="400.0,165.685424949 398.224014945,136.890907343 392.922981902,108.532885273 384.177259129,81.041237446 372.119422868,54.83270922 356.932257626,30.3045951674 338.845985347,7.82871649465 318.134775482,-12.2542153882 295.112588861,-29.6397637051 270.128418367,-44.0643812657 243.560998555,-55.3094055711 215.81306443,-63.2043735157 187.305246388,-67.6296054329 158.46969389,-68.5180193177 129.74352452,-65.8561477213 101.562197723,-59.6843419037 74.3529136879,-50.0961601499 48.5281374239,-37.2369495217 24.4793462152,-21.3016425441 2.57109522253,-2.53180222749 -16.864508801,18.7880397819 -33.5328419101,42.3346964116 -47.1812291655,67.751224349 -57.6027749289,94.6523349389 -64.6394991895,122.630234766 -68.1847323805,151.260807389 -68.1847323805,180.11004251 -64.6394991895,208.740615132 -57.6027749289,236.71851496 -47.1812291655,263.619625549 -33.5328419101,289.036153487 -16.864508801,312.582810117 2.57109522253,333.902652126 24.4793462152,352.672492443 48.5281374239,368.60779942 74.3529136879,381.467010048 101.562197723,391.055191802 129.74352452,397.22699762 158.46969389,399.888869216 187.305246388,399.000455331 215.81306443,394.575223414 243.560998555,386.68025547 270.128418367,375.435231164" stroke="#000" stroke-linecap="round" stroke-linejoin="round"/><polyline fill="none" points="270.128418367,375.435231164 295.112588861,361.010613604 318.134775482,343.625065287 338.845985347,323.542133404 356.932257626,301.066254731 372.119422868,276.538140679 384.177259129,250.329612453 392.922981902,222.837964625 398.224014945,194.479942555 400.0,165.685424949" stroke="#000" stroke-linecap="round" stroke-linejoin="round"/><polyline fill="none" points="-63.1983703663,231.599185183 -65.2716638418,205.255493805 -71.4404929022,179.560471538 -81.5529605027,155.146815108 -95.3600641297,132.61566976 -112.521827069,112.521827069 -132.61566976,95.3600641297 -155.146815108,81.5529605027 -179.560471538,71.4404929022 -205.255493805,65.2716638418 -231.599185183,63.1983703663 -257.942876561,65.2716638418 -283.637898828,71.4404929022 -308.051555258,81.5529605027 -330.582700607,95.3600641297 -350.676543297,112.521827069 -367.838306237,132.61566976 -381.645409864,155.146815108 -391.757877464,179.560471538 -397.926706524,205.255493805 -400.0,231.599185183 -397.926706524,257.942876561 -391.757877464,283.637898828 -381.645409864,308.051555258 -367.838306237,330.582700607 -350.676543297,350.676543297 -330.582700607,367.838306237 -308.051555258,381.645409864 -283.637898828,391.757877464 -257.942876561,397.926706524 -231.599185183,400.0 -205.255493805,397.926706524 -179.560471538,391.757877464 -155.146815108,381.645409864 -132.61566976,367.838306237 -112.521827069,350.676543297 -95.3600641297,330.582700607 -81.5529605027,308.051555258 -71.4404929022,283.637898828 -65.2716638418,257.942876561 -63.1983703663,231.599185183" stroke="#000" stroke-linecap="round" stroke-linejoin="round"/><polyline fill="none" points="400.0,-282.842712475 397.601783442,-306.426301071 390.505317034,-329.044374779 379.001130946,-349.770947005 363.560207908,-367.757469444 344.814701123,-382.267571757 323.532053841,-392.707208648 300.583580143,-398.648980158 276.908793238,-399.849629462 253.476941684,-396.260001836 231.247328236,-388.027057059 211.130035881,-375.487852855 193.948668932,-359.155745719 180.40663457,-339.699374036 171.058345273,-317.915283947 166.286521104,-294.695318662 166.286521104,-270.990106287 171.058345273,-247.770141002 180.40663457,-225.986050914 193.948668932,-206.52967923 211.130035881,-190.197572094 231.247328236,-177.658367891 253.476941684,-169.425423113 276.908793238,-165.835795488 300.583580143,-167.036444792 323.532053841,-172.978216301 344.814701123,-183.417853193 363.560207908,-197.927955505 379.001130946,-215.914477945 390.505317034,-236.64105017 397.601783442,-259.259123878 400.0,-282.842712475" stroke="#000" stroke-linecap="round" stroke-linejoin="round"/><polyline fill="none" points="222.654091966,-145.308183932 220.01859406,-165.326777992 212.291705168,-183.981137949 200.0,-200.0 183.981137949,-212.291705168 165.326777992,-220.01859406 145.308183932,-222.654091966 125.289589872,-220.01859406 106.635229915,-212.291705168 90.6163678644,-200.0 78.3246626961,-183.981137949 70.5977738045,-165.326777992 67.9622758983,-145.308183932 70.5977738045,-125.289589872 78.3246626961,-106.635229915 90.6163678644,-90.6163678644 106.635229915,-78.3246626961 125.289589872,-70.5977738045 145.308183932,-67.9622758983 165.326777992,-70.5977738045 183.981137949,-78.3246626961 200.0,-90.6163678644 212.291705168,-106.635229915 220.01859406,-125.289589872 222.654091966,-145.308183932" stroke="#000" stroke-linecap="round" stroke-linejoin="round"/><polyline fill="none" points="400.0,-97.0562748477 397.490287068,-116.11943717 390.132181062,-133.883476483 378.427124746,-149.137802865 363.172798365,-160.842859181 345.408759051,-168.200965187 326.345596729,-170.710678119 307.282434407,-168.200965187 289.518395094,-160.842859181 274.264068712,-149.137802865 262.559012396,-133.883476483 255.20090639,-116.11943717 252.691193458,-97.0562748477 255.20090639,-77.9931125255 262.559012396,-60.2290732122 274.264068712,-44.9747468306 289.518395094,-33.2696905145 307.282434407,-25.9115845084 326.345596729,-23.4018715768 345.408759051,-25.9115845084 363.172798365,-33.2696905145 378.427124746,-44.9747468306 390.132181062,-60.2290732122 397.490287068,-77.9931125255 400.0,-97.0562748477" stroke="#000" stroke-linecap="round" stroke-linejoin="round"/><polyline fill="none" points="170.710678119,-326.345596729 168.200965187,-345.408759051 160.842859181,-363.172798365 149.137802865,-378.427124746 133.883476483,-390.132181062 116.11943717,-397.490287068 97.0562748477,-400.0 77.9931125255,-397.490287068 60.2290732122,-390.132181062 44.9747468306,-378.427124746 33.2696905145,-363.172798365 25.9115845084,-345.408759051 23.4018715768,-326.345596729 25.9115845084,-307.282434407 33.2696905145,-289.518395094 44.9747468306,-274.264068712 60.2290732122,-262.559012396 77.9931125255,-255.20090639 97.0562748477,-252.691193458 116.11943717,-255.20090639 133.883476483,-262.559012396 149.137802865,-274.264068712 160.842859181,-289.518395094 168.200965187,-307.282434407 170.710678119,-326.345596729" stroke="#000" stroke-linecap="round" stroke-linejoin="round"/><polyline fill="none" points="-301.353086595,49.3234567025 -303.767148394,34.0816703601 -310.773028604,20.3318562607 -321.684942856,9.41994200886 -335.434756955,2.41406179939 -350.676543297,-2.03392858111e-13 -365.91832964,2.41406179939 -379.668143739,9.41994200886 -390.580057991,20.3318562607 -397.585938201,34.0816703601 -400.0,49.3234567025 -397.585938201,64.5652430449 -390.580057991,78.3150571443 -379.668143739,89.2269713962 -365.91832964,96.2328516056 -350.676543297,98.646913405 -335.434756955,96.2328516056 -321.684942856,89.2269713962 -310.773028604,78.3150571443 -303.767148394,64.5652430449 -301.353086595,49.3234567025" stroke="#000" stroke-linecap="round" stroke-linejoin="round"/><polyline fill="none" points="-2.38697950294e-13,350.676543297 -2.41406179939,335.434756955 -9.41994200886,321.684942856 -20.3318562607,310.773028604 -34.0816703601,303.767148394 -49.3234567025,301.353086595 -64.5652430449,303.767148394 -78.3150571443,310.773028604 -89.2269713962,321.684942856 -96.2328516056,335.434756955 -98.646913405,350.676543297 -96.2328516056,365.91832964 -89.2269713962,379.668143739 -78.3150571443,390.580057991 -64.5652430449,397.585938201 -49.3234567025,400.0 -34.0816703601,397.585938201 -20.3318562607,390.580057991 -9.41994200886,379.668143739 -2.41406179939,365.91832964 -2.61568544602e-13,350.676543297" stroke="#000" stroke-linecap="round" stroke-linejoin="round"/><polyline fill="none" points="400.0,359.797974645 397.575521212,346.048072171 390.59451277,333.956610862 379.898987322,324.981999403 366.778983086,320.206708388 352.816966203,320.206708388 339.696961967,324.981999403 329.001436519,333.956610862 322.020428078,346.048072171 319.595949289,359.797974645 322.020428078,373.547877119 329.001436519,385.639338427 339.696961967,394.613949886 352.816966203,399.389240901 366.778983086,399.389240901 379.898987322,394.613949886 390.59451277,385.639338427 397.575521212,373.547877119 400.0,359.797974645" stroke="#000" stroke-linecap="round" stroke-linejoin="round"/><polyline fill="none" points="-319.595949289,-359.797974645 -322.020428078,-373.547877119 -329.001436519,-385.639338427 -339.696961967,-394.613949886 -352.816966203,-399.389240901 -366.778983086,-399.389240901 -379.898987322,-394.613949886 -390.59451277,-385.639338427 -397.575521212,-373.547877119 -400.0,-359.797974645 -397.575521212,-346.048072171 -390.59451277,-333.956610862 -379.898987322,-324.981999403 -366.778983086,-320.206708388 -352.816966203,-320.206708388 -339.696961967,-324.981999403 -329.001436519,-333.956610862 -322.020428078,-346.048072171 -319.595949289,-359.797974645" stroke="#000" stroke-linecap="round" stroke-linejoin="round"/><polyline fill="none" points="-57.5866164507,89.766917779 -59.7596804565,78.1420521087 -65.9853881385,68.0871889629 -75.4229231765,60.9602933251 -86.7976941684,57.7238919429 -98.5734752619,58.8150787564 -109.159881969,64.0864829399 -117.127161401,72.8261721487 -121.399288324,83.8538029267 -121.399288324,95.6800326312 -117.127161401,106.707663409 -109.159881969,115.447352618 -98.5734752619,120.718756802 -86.7976941684,121.809943615 -75.4229231765,118.573542233 -65.9853881385,111.446646595 -59.7596804565,101.391783449 -57.5866164507,89.766917779" stroke="#000" stroke-linecap="round" stroke-linejoin="round"/><polyline fill="none" points="400.0,-2.66749681291 397.957959117,-13.591450683 392.107625405,-23.0400640511 383.23911885,-29.7372493255 372.550180403,-32.7785145243 361.484410433,-31.7531199304 351.536302489,-26.7995507654 344.049403676,-18.5868139938 340.034861163,-8.22408522492 340.034861163,2.8890915991 344.049403676,13.251820368 351.536302489,21.4645571395 361.484410433,26.4181263045 372.550180403,27.4435208985 383.23911885,24.4022556997 392.107625405,17.7050704253 397.957959117,8.25645705713 400.0,-2.66749681291" stroke="#000" stroke-linecap="round" stroke-linejoin="round"/><polyline fill="none" points="32.9075131027,-369.75998371 30.8654722198,-380.68393758 25.0151385079,-390.132550948 16.1466319526,-396.829736223 5.45769350611,-399.871001422 -5.60807646477,-398.845606828 -15.556184408,-393.892037663 -23.0430832214,-385.679300891 -27.0576257339,-375.316572122 -27.0576257339,-364.203395298 -23.0430832214,-353.840666529 -15.556184408,-345.627929758 -5.60807646477,-340.674360593 5.45769350611,-339.648965999 16.1466319526,-342.690231198 25.0151385079,-349.387416472 30.8654722198,-358.83602984 32.9075131027,-369.75998371" stroke="#000" stroke-linecap="round" stroke-linejoin="round"/><polyline fill="none" points="-342.213976014,371.106988007 -344.413325594,360.050111006 -350.676543297,350.676543297 -360.050111006,344.413325594 -371.106988007,342.213976014 -382.163865008,344.413325594 -391.537432716,350.676543297 -397.80065042,360.050111006 -400.0,371.106988007 -397.80065042,382.163865008 -391.537432716,391.537432716 -382.163865008,397.80065042 -371.106988007,400.0 -360.050111006,397.80065042 -350.676543297,391.537432716 -344.413325594,382.163865008 -342.213976014,371.106988007" stroke="#000" stroke-linecap="round" stroke-linejoin="round"/><polyline fill="none" points="110.696804464,-228.445285111 108.802156356,-237.970324365 103.406655033,-246.045262737 95.3317166609,-251.44076406 85.8066774067,-253.335412168 76.2816381524,-251.44076406 68.20669978,-246.045262737 62.8111984569,-237.970324365 60.9165503495,-228.445285111 62.8111984569,-218.920245856 68.20669978,-210.845307484 76.2816381524,-205.449806161 85.8066774067,-203.555158053 95.3317166609,-205.449806161 103.406655033,-210.845307484 108.802156356,-218.920245856 110.696804464,-228.445285111" stroke="#000" stroke-linecap="round" stroke-linejoin="round"/><polyline fill="none" points="253.335412168,-85.8066774067 251.44076406,-95.3317166609 246.045262737,-103.406655033 237.970324365,-108.802156356 228.445285111,-110.696804464 218.920245856,-108.802156356 210.845307484,-103.406655033 205.449806161,-95.3317166609 203.555158053,-85.8066774067 205.449806161,-76.2816381524 210.845307484,-68.20669978 218.920245856,-62.8111984569 228.445285111,-60.9165503495 237.970324365,-62.8111984569 246.045262737,-68.20669978 251.44076406,-76.2816381524 253.335412168,-85.8066774067" stroke="#000" stroke-linecap="round" stroke-linejoin="round"/><polyline fill="none" points="41.4754521837,376.822869075 39.4716839364,367.395880647 33.8068489282,359.598904159 25.4604485955,354.78010768 15.8756513803,353.772704898 6.70975579636,356.750884907 -0.452371540284,363.199693327 -4.37233374727,372.004072596 -4.37233374727,381.641665554 -0.452371540285,390.446044823 6.70975579636,396.894853243 15.8756513803,399.873033252 25.4604485955,398.86563047 33.8068489282,394.046833991 39.4716839364,386.249857504 41.4754521837,376.822869075" stroke="#000" stroke-linecap="round" stroke-linejoin="round"/><polyline fill="none" points="-353.64573815,-18.2983212588 -355.649506397,-27.7253096873 -361.314341406,-35.5222861751 -369.660741738,-40.341082654 -379.245538954,-41.3484854354 -388.411434538,-38.3703054266 -395.573561874,-31.9214970069 -399.493524081,-23.1171177377 -399.493524081,-13.4795247799 -395.573561874,-4.67514551071 -388.411434538,1.77366290899 -379.245538954,4.75184291782 -369.660741738,3.74444013634 -361.314341406,-1.07435634256 -355.649506397,-8.87133283029 -353.64573815,-18.2983212588" stroke="#000" stroke-linecap="round" stroke-linejoin="round"/><polyline fill="none" points="400.0,-179.218896133 398.019030986,-188.5386226 392.418651485,-196.246883694 384.167217989,-201.010851044 374.691478312,-202.006791416 365.629873928,-199.062497672 358.549238558,-192.687064949 354.673878383,-183.982863483 354.673878383,-174.454928783 358.549238558,-165.750727316 365.629873928,-159.375294593 374.691478312,-156.431000849 384.167217989,-157.426941222 392.418651485,-162.190908572 398.019030986,-169.899169666 400.0,-179.218896133" stroke="#000" stroke-linecap="round" stroke-linejoin="round"/><polyline fill="none" points="202.132313514,-377.086582619 200.1513445,-386.406309086 194.550964999,-394.11457018 186.299531503,-398.87853753 176.823791826,-399.874477902 167.762187442,-396.930184158 160.681552072,-390.554751435 156.806191897,-381.850549969 156.806191897,-372.322615269 160.681552072,-363.618413803 167.762187442,-357.242981079 176.823791826,-354.298687336 186.299531503,-355.294627708 194.550964999,-360.058595058 200.1513445,-367.766856152 202.132313514,-377.086582619" stroke="#000" stroke-linecap="round" stroke-linejoin="round"/><polyline fill="none" points="97.2515977796,-74.5975058135 95.2930486262,-83.8117551318 89.7560521073,-91.432777034 81.5980052232,-96.1428275987 72.2295083936,-97.1274962935 63.2704598305,-94.2165249559 56.2699604208,-87.9132469753 52.4384601101,-79.3075563782 52.4384601101,-69.8874552489 56.2699604208,-61.2817646518 63.2704598305,-54.9784866712 72.2295083936,-52.0675153336 81.5980052232,-53.0521840284 89.7560521073,-57.762234593 95.2930486262,-65.3832564953 97.2515977796,-74.5975058135" stroke="#000" stroke-linecap="round" stroke-linejoin="round"/><polyline fill="none" points="170.888056233,-245.082186737 168.944873559,-254.224142453 163.451319475,-261.785370973 155.35727939,-266.458467195 146.062286366,-267.435410329 137.173529139,-264.547278031 130.227954586,-258.293454613 126.426515645,-249.755282959 126.426515645,-240.409090515 130.227954586,-231.870918861 137.173529139,-225.617095444 146.062286366,-222.728963146 155.35727939,-223.705906279 163.451319475,-228.379002501 168.944873559,-235.940231022 170.888056233,-245.082186737" stroke="#000" stroke-linecap="round" stroke-linejoin="round"/><polyline fill="none" points="267.558538133,-148.411704837 265.61535546,-157.553660552 260.121801376,-165.114889073 252.02776129,-169.787985295 242.732768266,-170.764928428 233.844011039,-167.87679613 226.898436486,-161.622972713 223.096997546,-153.084801059 223.096997546,-143.738608615 226.898436486,-135.200436961 233.844011039,-128.946613543 242.732768266,-126.058481245 252.02776129,-127.035424379 260.121801376,-131.708520601 265.61535546,-139.269749121 267.558538133,-148.411704837" stroke="#000" stroke-linecap="round" stroke-linejoin="round"/><polyline fill="none" points="-358.469448509,113.330180698 -360.26470092,104.884182149 -365.340042703,97.898573478 -372.817901156,93.5812298874 -381.405286617,92.6786593056 -389.617362127,95.3469243857 -396.034185225,101.124657855 -399.546228904,109.012837107 -399.546228904,117.647524289 -396.034185225,125.535703541 -389.617362127,131.31343701 -381.405286617,133.981702091 -372.817901156,133.079131509 -365.340042703,128.761787918 -360.26470092,121.776179247 -358.469448509,113.330180698" stroke="#000" stroke-linecap="round" stroke-linejoin="round"/><polyline fill="none" points="-92.5649049523,379.234724254 -94.3601573638,370.788725705 -99.4354991471,363.803117034 -106.9133576,359.485773444 -115.500743061,358.583202862 -123.712818571,361.251467942 -130.129641669,367.029201411 -133.641685347,374.917380664 -133.641685347,383.552067845 -130.129641669,391.440247097 -123.712818571,397.217980567 -115.500743061,399.886245647 -106.9133576,398.983675065 -99.4354991471,394.666331474 -94.3601573638,387.680722804 -92.5649049523,379.234724254" stroke="#000" stroke-linecap="round" stroke-linejoin="round"/><polyline fill="none" points="400.0,-379.898987322 398.262176148,-388.074805741 393.349190124,-394.836950881 386.110541844,-399.016186414 377.797859357,-399.889884549 369.848480984,-397.306974943 363.636926462,-391.71406613 360.237229999,-384.078222855 360.237229999,-375.719751789 363.636926462,-368.083908514 369.848480983,-362.490999702 377.797859357,-359.908090095 386.110541844,-360.781788231 393.349190124,-364.961023764 398.262176148,-371.723168903 400.0,-379.898987322" stroke="#000" stroke-linecap="round" stroke-linejoin="round"/><polyline fill="none" points="400.0,302.943725152 398.262176148,294.767906733 393.349190124,288.005761594 386.110541844,283.826526061 377.797859357,282.952827925 369.848480984,285.535737532 363.636926462,291.128646344 360.237229999,298.764489619 360.237229999,307.122960685 363.636926462,314.75880396 369.848480983,320.351712773 377.797859357,322.934622379 386.110541844,322.060924244 393.349190124,317.881688711 398.262176148,311.119543571 400.0,302.943725152" stroke="#000" stroke-linecap="round" stroke-linejoin="round"/><polyline fill="none" points="323.04473783,379.898987322 321.306913978,371.723168903 316.393927954,364.961023764 309.155279674,360.781788231 300.842597187,359.908090095 292.893218813,362.490999702 286.681664292,368.083908514 283.281967829,375.719751789 283.281967829,384.078222855 286.681664292,391.71406613 292.893218813,397.306974943 300.842597187,399.889884549 309.155279674,399.016186414 316.393927954,394.836950881 321.306913978,388.074805741 323.04473783,379.898987322" stroke="#000" stroke-linecap="round" stroke-linejoin="round"/><line fill="none" stroke="none" stroke-linecap="round" stroke-width="2.0" x1="0.0" x2="0.0" y1="0.0" y2="0.0"/></svg>