<?xml version="1.0" ?><!DOCTYPE svg  PUBLIC '-//W3C//DTD SVG 1.1//EN'  'http://www.w3.org/Graphics/SVG/1.1/DTD/svg11.dtd'><svg height="824.000" viewBox="-412.000 -412.000 824.000 824.000" width="824.000" xmlns="http://www.w3.org/2000/svg"><line fill="none" stroke="none" stroke-linecap="round" stroke-width="2.0" x1="0.0" x2="0.0" y1="0.0" y2="0.0"/><polygon fill="none" fill-rule="evenodd" points="0.0,0.0 0.0,0.0 0.0,0.0" stroke-linejoin="round"/><polyline fill="none" points="-400.0,-400.0 400.0,-400.0 400.0,400.0 -400.0,400.0 -400.0,-400.0" stroke="#000" stroke-linecap="round" stroke-linejoin="round"/><polygon fill="#000" fill-rule="evenodd" points="4.0,0.0 3.46410161514,-2.0 2.0,-3.46410161514 2.11608508494e-13,-4.0 -2.0,-3.46410161514 -3.46410161514,-2.0 -4.0,-2.5290880501e-13 -3.46410161514,2.0 -2.0,3.46410161514 -4.32986979604e-14,4.0 2.0,3.46410161514 3.46410161514,2.0 4.0,3.10862446895e-15" stroke-linejoin="round"/><polyline fill="none" points="4.0,0.0 3.46410161514,-2.0 2.0,-3.46410161514 2.11608508494e-13,-4.0 -2.0,-3.46410161514 -3.46410161514,-2.0 -4.0,-2.5290880501e-13 -3.46410161514,2.0 -2.0,3.46410161514 -4.32986979604e-14,4.0 2.0,3.46410161514 3.46410161514,2.0 4.0,3.10862446895e-15" stroke="#000" stroke-linecap="round" stroke-linejoin="round"/><polygon fill="#000" fill-rule="evenodd" points="204.0,-200.0 203.464101615,-202.0 202.0,-203.464101615 200.0,-204.0 198.0,-203.464101615 196.535898385,-202.0 196.0,-200.0 196.535898385,-198.0 198.0,-196.535898385 200.0,-196.0 202.0,-196.535898385 203.464101615,-198.0 204.0,-200.0" stroke-linejoin="round"/><polyline fill="none" points="204.0,-200.0 203.464101615,-202.0 202.0,-203.464101615 200.0,-204.0 198.0,-203.464101615 196.535898385,-202.0 196.0,-200.0 196.535898385,-198.0 198.0,-196.535898385 200.0,-196.0 202.0,-196.535898385 203.464101615,-198.0 204.0,-200.0" stroke="#000" stroke-linecap="round" stroke-linejoin="round"/><polygon fill="#000" fill-rule="evenodd" points="-236.0,200.0 -236.535898385,198.0 -238.0,196.535898385 -240.0,196.0 -242.0,196.535898385 -243.464101615,198.0 -244.0,200.0 -243.464101615,202.0 -242.0,203.464101615 -240.0,204.0 -238.0,203.464101615 -236.535898385,202.0 -236.0,200.0" stroke-linejoin="round"/><polyline fill="none" points="-236.0,200.0 -236.535898385,198.0 -238.0,196.535898385 -240.0,196.0 -242.0,196.535898385 -243.464101615,198.0 -244.0,200.0 -243.464101615,202.0 -242.0,203.464101615 -240.0,204.0 -238.0,203.464101615 -236.535898385,202.0 -236.0,200.0" stroke="#000" stroke-linecap="round" stroke-linejoin="round"/><polyline fill="none" points="68.6291501015,-165.685424949 66.8531650462,-194.479942555 61.5521320033,-222.837964625 52.8064092303,-250.329612453 40.7485729694,-276.538140679 25.5614077273,-301.066254731 7.47513544805,-323.542133404 -13.2360744166,-343.625065287 -36.2582610371,-361.010613604 -61.2424315316,-375.435231164 -87.8098513431,-386.68025547 -115.557785468,-394.575223414 -144.065603511,-399.000455331 -172.901156008,-399.888869216 -201.627325378,-397.22699762 -229.808652175,-391.055191802 -257.017936211,-381.467010048 -282.842712475,-368.60779942 -306.891503683,-352.672492443 -328.799754676,-333.902652126 -348.2353587,-312.582810117 -364.903691809,-289.036153487 -378.552079064,-263.619625549 -388.973624827,-236.71851496 -396.010349088,-208.740615132 -399.555582279,-180.11004251 -399.555582279,-151.260807389 -396.010349088,-122.630234766 -388.973624827,-94.652334939 -378.552079064,-67.751224349 -364.903691809,-42.3346964116 -348.2353587,-18.788039782 -328.799754676,2.53180222746 -306.891503683,21.3016425441 -282.842712475,37.2369495217 -257.017936211,50.0961601499 -229.808652175,59.6843419037 -201.627325378,65.8561477213 -172.901156008,68.5180193177 -144.065603511,67.6296054328 -115.557785468,63.2043735156 -87.8098513431,55.3094055711 -61.2424315316,44.0643812657" stroke="#000" stroke-linecap="round" stroke-linejoin="round"/><polyline fill="none" points="-61.2424315316,44.0643812657 -36.2582610371,29.6397637051 -13.2360744166,12.2542153882 7.47513544804,-7.82871649465 25.5614077273,-30.3045951674 40.7485729694,-54.83270922 52.8064092303,-81.041237446 61.5521320033,-108.532885273 66.8531650462,-136.890907343 68.6291501015,-165.685424949" stroke="#000" stroke-linecap="round" stroke-linejoin="round"/><polyline fill="none" points="400.0,165.685424949 398.224014945,136.890907343 392.922981902,108.532885273 384.177259129,81.041237446 372.119422868,54.83270922 356.932257626,30.3045951674 338.845985347,7.82871649465 318.134775482,-12.2542153882 295.112588861,-29.6397637051 270.128418367,-44.0643812657 243.560998555,-55.3094055711 215.81306443,-63.2043735157 187.305246388,-67.6296054329 158.46969389,-68.5180193177 129.74352452,-65.8561477213 101.562197723,-59.6843419037 74.3529136879,-50.0961601499 48.5281374239,-37.2369495217 24.4793462152,-21.3016425441 2.57109522254,-2.53180222749 -16.864508801,18.7880397819 -33.5328419101,42.3346964116 -47.1812291655,67.751224349 -57.6027749289,94.6523349389 -64.6394991895,122.630234766 -68.1847323805,151.260807389 -68.1847323805,180.11004251 -64.6394991895,208.740615132 -57.6027749289,236.71851496 -47.1812291655,263.619625549 -33.5328419101,289.036153487 -16.864508801,312.582810117 2.57109522253,333.902652126 24.4793462152,352.672492443 48.5281374239,368.60779942 74.3529136879,381.467010048 101.562197723,391.055191802 129.74352452,397.22699762 158.46969389,399.888869216 187.305246388,399.000455331 215.81306443,394.575223414 243.560998555,386.68025547 270.128418367,375.435231164" stroke="#000" stroke-linecap="round" stroke-linejoin="round"/><polyline fill="none" points="270.128418367,375.435231164 295.112588861,361.010613604 318.134775482,343.625065287 338.845985347,323.542133404 356.932257626,301.066254731 372.119422868,276.538140679 384.177259129,250.329612453 392.922981902,222.837964625 398.224014945,194.479942555 400.0,165.685424949" stroke="#000" stroke-linecap="round" stroke-linejoin="round"/><polyline fill="none" points="400.0,-282.842712475 397.601783442,-306.426301071 390.505317034,-329.044374779 379.001130946,-349.770947005 363.560207908,-367.757469444 344.814701123,-382.267571757 323.532053841,-392.707208648 300.583580143,-398.648980158 276.908793238,-399.849629462 253.476941684,-396.260001836 231.247328236,-388.027057059 211.130035881,-375.487852855 193.948668932,-359.155745719 180.40663457,-339.699374036 171.058345273,-317.915283947 166.286521104,-294.695318662 166.286521104,-270.990106287 171.058345273,-247.770141002 180.40663457,-225.986050914 193.948668932,-206.52967923 211.130035881,-190.197572094 231.247328236,-177.658367891 253.476941684,-169.425423113 276.908793238,-165.835795488 300.583580143,-167.036444792 323.532053841,-172.978216301 344.814701123,-183.417853193 363.560207908,-197.927955505 379.001130946,-215.914477945 390.505317034,-236.64105017 397.601783442,-259.259123878 400.0,-282.842712475" stroke="#000" stroke-linecap="round" stroke-linejoin="round"/><polyline fill="none" points="-47.6118514714,285.019961323 -49.9654996179,261.874649698 -56.9300854257,239.67690985 -68.2204779337,219.335519856 -83.3744471459,201.683258615 -101.771587782,187.442811773 -122.658718744,177.197184899 -145.180718434,171.365835161 -168.41553354,170.187498701 -191.411928002,173.710416753 -213.228426728,181.790360639 -232.971859696,194.096536505 -249.833928442,210.125128066 -263.12429789,229.219922901 -272.298858752,250.599177865 -276.982003431,273.387623748 -276.982003431,296.652298898 -272.298858752,319.440744781 -263.12429789,340.819999745 -249.833928442,359.91479458 -232.971859696,375.943386141 -213.228426728,388.249562007 -191.411928002,396.329505893 -168.41553354,399.852423945 -145.180718434,398.674087485 -122.658718744,392.842737747 -101.771587782,382.597110873 -83.3744471459,368.356664031 -68.2204779337,350.70440279 -56.9300854257,330.363012796 -49.9654996179,308.165272948 -47.6118514714,285.019961323" stroke="#000" stroke-linecap="round" stroke-linejoin="round"/><polyline fill="none" points="-211.03462292,131.895965698 -213.581416017,110.10675821 -221.084497035,89.4922125383 -233.139372933,71.1636641748 -249.096162231,56.1092099064 -268.094630288,45.1404392594 -289.110564774,38.8486814985 -311.01099122,37.5731269133 -332.615251968,41.3825409815 -352.75865573,50.0715572047 -370.355266394,63.1717484692 -384.456446125,79.9768800732 -394.301996673,99.5809830219 -399.361141861,120.927195051 -399.361141861,142.864736345 -394.301996673,164.210948374 -384.456446125,183.815051323 -370.355266394,200.620182927 -352.75865573,213.720374192 -332.615251968,222.409390415 -311.01099122,226.218804483 -289.110564774,224.943249898 -268.094630288,218.651492137 -249.096162231,207.68272149 -233.139372933,192.628267222 -221.084497035,174.299718858 -213.581416017,153.685173186 -211.03462292,131.895965698" stroke="#000" stroke-linecap="round" stroke-linejoin="round"/><polyline fill="none" points="222.654091966,-145.308183932 220.01859406,-165.326777992 212.291705168,-183.981137949 200.0,-200.0 183.981137949,-212.291705168 165.326777992,-220.01859406 145.308183932,-222.654091966 125.289589872,-220.01859406 106.635229915,-212.291705168 90.6163678644,-200.0 78.3246626961,-183.981137949 70.5977738045,-165.326777992 67.9622758983,-145.308183932 70.5977738045,-125.289589872 78.3246626961,-106.635229915 90.6163678644,-90.6163678644 106.635229915,-78.3246626961 125.289589872,-70.5977738045 145.308183932,-67.9622758983 165.326777992,-70.5977738045 183.981137949,-78.3246626961 200.0,-90.6163678644 212.291705168,-106.635229915 220.01859406,-125.289589872 222.654091966,-145.308183932" stroke="#000" stroke-linecap="round" stroke-linejoin="round"/><polyline fill="none" points="400.0,-97.0562748477 397.490287068,-116.11943717 390.132181062,-133.883476483 378.427124746,-149.137802865 363.172798365,-160.842859181 345.408759051,-168.200965187 326.345596729,-170.710678119 307.282434407,-168.200965187 289.518395094,-160.842859181 274.264068712,-149.137802865 262.559012396,-133.883476483 255.20090639,-116.11943717 252.691193458,-97.0562748477 255.20090639,-77.9931125255 262.559012396,-60.2290732122 274.264068712,-44.9747468306 289.518395094,-33.2696905145 307.282434407,-25.9115845084 326.345596729,-23.4018715768 345.408759051,-25.9115845084 363.172798365,-33.2696905145 378.427124746,-44.9747468306 390.132181062,-60.2290732122 397.490287068,-77.9931125255 400.0,-97.0562748477" stroke="#000" stroke-linecap="round" stroke-linejoin="round"/><polyline fill="none" points="170.710678119,-326.345596729 168.200965187,-345.408759051 160.842859181,-363.172798365 149.137802865,-378.427124746 133.883476483,-390.132181062 116.11943717,-397.490287068 97.0562748477,-400.0 77.9931125255,-397.490287068 60.2290732122,-390.132181062 44.9747468306,-378.427124746 33.2696905145,-363.172798365 25.9115845084,-345.408759051 23.4018715768,-326.345596729 25.9115845084,-307.282434407 33.2696905145,-289.518395094 44.9747468306,-274.264068712 60.2290732122,-262.559012396 77.9931125255,-255.20090639 97.0562748477,-252.691193458 116.11943717,-255.20090639 133.883476483,-262.559012396 149.137802865,-274.264068712 160.842859181,-289.518395094 168.200965187,-307.282434407 170.710678119,-326.345596729" stroke="#000" stroke-linecap="round" stroke-linejoin="round"/><polyline fill="none" points="-270.423017979,335.211508989 -273.047407094,316.958481763 -280.70796204,300.184206248 -292.784070215,286.247634485 -308.297397154,276.277824636 -325.991145369,271.0824714 -344.43187261,271.0824714 -362.125620825,276.277824636 -377.638947764,286.247634485 -389.715055939,300.184206248 -397.375610885,316.958481763 -400.0,335.211508989 -397.375610885,353.464536216 -389.715055939,370.238811731 -377.638947764,384.175383494 -362.125620825,394.145193343 -344.43187261,399.340546579 -325.991145369,399.340546579 -308.297397154,394.145193343 -292.784070215,384.175383494 -280.70796204,370.238811731 -273.047407094,353.464536216 -270.423017979,335.211508989" stroke="#000" stroke-linecap="round" stroke-linejoin="round"/><polyline fill="none" points="-65.0364237697,120.21834165 -67.4880015524,103.953185821 -74.6249014561,89.1332604655 -85.8129786045,77.0753809881 -100.058123245,68.8509428953 -116.094591762,65.190723604 -132.497473554,66.4199496607 -147.80930059,72.429398936 -160.669549843,82.6851054898 -169.935531731,96.2758047882 -174.7839231,111.993903557 -174.7839231,128.442779742 -169.935531731,144.160878511 -160.669549843,157.75157781 -147.80930059,168.007284363 -132.497473554,174.016733639 -116.094591762,175.245959695 -100.058123245,171.585740404 -85.8129786045,163.361302311 -74.6249014561,151.303422834 -67.4880015524,136.483497479 -65.0364237697,120.21834165" stroke="#000" stroke-linecap="round" stroke-linejoin="round"/><polyline fill="none" points="400.0,359.797974645 397.575521212,346.048072171 390.59451277,333.956610862 379.898987322,324.981999403 366.778983086,320.206708388 352.816966203,320.206708388 339.696961967,324.981999403 329.001436519,333.956610862 322.020428078,346.048072171 319.595949289,359.797974645 322.020428078,373.547877119 329.001436519,385.639338427 339.696961967,394.613949886 352.816966203,399.389240901 366.778983086,399.389240901 379.898987322,394.613949886 390.59451277,385.639338427 397.575521212,373.547877119 400.0,359.797974645" stroke="#000" stroke-linecap="round" stroke-linejoin="round"/><polyline fill="none" points="-319.595949289,-359.797974645 -322.020428078,-373.547877119 -329.001436519,-385.639338427 -339.696961967,-394.613949886 -352.816966203,-399.389240901 -366.778983086,-399.389240901 -379.898987322,-394.613949886 -390.59451277,-385.639338427 -397.575521212,-373.547877119 -400.0,-359.797974645 -397.575521212,-346.048072171 -390.59451277,-333.956610862 -379.898987322,-324.981999403 -366.778983086,-320.206708388 -352.816966203,-320.206708388 -339.696961967,-324.981999403 -329.001436519,-333.956610862 -322.020428078,-346.048072171 -319.595949289,-359.797974645" stroke="#000" stroke-linecap="round" stroke-linejoin="round"/><polyline fill="none" points="12.400357978,360.238171394 10.002426302,346.638825076 3.09785722398,334.679760628 -7.48055632479,325.803417721 -20.4569015495,321.08041431 -34.2660397057,321.08041431 -47.2423849304,325.803417721 -57.8207984792,334.679760628 -64.7253675572,346.638825076 -67.1232992332,360.238171394 -64.7253675572,373.837517713 -57.8207984792,385.796582161 -47.2423849304,394.672925068 -34.2660397057,399.395928479 -20.4569015495,399.395928479 -7.4805563248,394.672925068 3.09785722397,385.796582161 10.002426302,373.837517713 12.400357978,360.238171394" stroke="#000" stroke-linecap="round" stroke-linejoin="round"/><polyline fill="none" points="-329.312179254,16.3210951501 -331.698874726,3.55340207739 -338.536624692,-7.4899432976 -348.901953131,-15.3174759887 -361.394965,-18.8720443322 -374.328409821,-17.6735841766 -385.955554203,-11.883954207 -394.70608787,-2.28507603209 -399.398202761,9.8266686613 -399.398202761,22.8155216389 -394.70608787,34.9272663322 -385.955554203,44.5261445071 -374.328409821,50.3157744768 -361.394965,51.5142346323 -348.901953131,47.9596662889 -338.536624692,40.1321335978 -331.698874726,29.0887882228 -329.312179254,16.3210951501" stroke="#000" stroke-linecap="round" stroke-linejoin="round"/><polyline fill="none" points="-334.541196518,243.113983497 -336.751340051,231.290759879 -343.083278518,221.064328125 -352.681848542,213.815824511 -364.250710054,210.524199614 -376.227424203,211.634005617 -386.994469376,216.995357069 -395.097696461,225.884173749 -399.442719739,237.099971709 -399.442719739,249.127995285 -395.097696461,260.343793245 -386.994469376,269.232609925 -376.227424203,274.593961377 -364.250710054,275.70376738 -352.681848542,272.412142483 -343.083278518,265.163638869 -336.751340051,254.937207115 -334.541196518,243.113983497" stroke="#000" stroke-linecap="round" stroke-linejoin="round"/><polyline fill="none" points="400.0,-2.66749681291 397.957959117,-13.591450683 392.107625405,-23.0400640511 383.23911885,-29.7372493255 372.550180403,-32.7785145243 361.484410433,-31.7531199304 351.536302489,-26.7995507654 344.049403676,-18.5868139938 340.034861163,-8.22408522492 340.034861163,2.88909159909 344.049403676,13.2518203679 351.536302489,21.4645571395 361.484410433,26.4181263045 372.550180403,27.4435208985 383.23911885,24.4022556997 392.107625405,17.7050704253 397.957959117,8.25645705713 400.0,-2.66749681291" stroke="#000" stroke-linecap="round" stroke-linejoin="round"/><polyline fill="none" points="32.9075131027,-369.75998371 30.8654722198,-380.68393758 25.0151385079,-390.132550948 16.1466319526,-396.829736223 5.45769350611,-399.871001422 -5.60807646477,-398.845606828 -15.556184408,-393.892037663 -23.0430832214,-385.679300891 -27.0576257339,-375.316572122 -27.0576257339,-364.203395298 -23.0430832214,-353.840666529 -15.556184408,-345.627929758 -5.60807646477,-340.674360593 5.45769350611,-339.648965999 16.1466319526,-342.690231198 25.0151385079,-349.387416472 30.8654722198,-358.83602984 32.9075131027,-369.75998371" stroke="#000" stroke-linecap="round" stroke-linejoin="round"/><polyline fill="none" points="-273.646112569,252.007699256 -275.608744313,242.14088318 -281.197846654,233.776200408 -289.562529425,228.187098067 -299.429345502,226.224466323 -309.296161578,228.187098067 -317.660844349,233.776200408 -323.24994669,242.14088318 -325.212578434,252.007699256 -323.24994669,261.874515332 -317.660844349,270.239198104 -309.296161578,275.828300444 -299.429345502,277.790932189 -289.562529425,275.828300444 -281.197846654,270.239198104 -275.608744313,261.874515332 -273.646112569,252.007699256" stroke="#000" stroke-linecap="round" stroke-linejoin="round"/><polyline fill="none" points="110.696804464,-228.445285111 108.802156356,-237.970324365 103.406655033,-246.045262737 95.3317166609,-251.44076406 85.8066774067,-253.335412168 76.2816381524,-251.44076406 68.20669978,-246.045262737 62.811198457,-237.970324365 60.9165503495,-228.445285111 62.8111984569,-218.920245856 68.20669978,-210.845307484 76.2816381524,-205.449806161 85.8066774067,-203.555158053 95.3317166609,-205.449806161 103.406655033,-210.845307484 108.802156356,-218.920245856 110.696804464,-228.445285111" stroke="#000" stroke-linecap="round" stroke-linejoin="round"/><polyline fill="none" points="253.335412168,-85.8066774067 251.44076406,-95.3317166609 246.045262737,-103.406655033 237.970324365,-108.802156356 228.445285111,-110.696804464 218.920245856,-108.802156356 210.845307484,-103.406655033 205.449806161,-95.3317166609 203.555158053,-85.8066774067 205.449806161,-76.2816381524 210.845307484,-68.20669978 218.920245856,-62.811198457 228.445285111,-60.9165503495 237.970324365,-62.8111984569 246.045262737,-68.20669978 251.44076406,-76.2816381524 253.335412168,-85.8066774067" stroke="#000" stroke-linecap="round" stroke-linejoin="round"/><polyline fill="none" points="-169.911837481,91.2224539082 -171.750633499,81.9782020692 -176.987081527,74.1413037734 -184.823979823,68.9048557445 -194.068231662,67.0660597265 -203.312483501,68.9048557445 -211.149381797,74.1413037733 -216.385829826,81.9782020692 -218.224625844,91.2224539082 -216.385829826,100.466705747 -211.149381797,108.303604043 -203.312483501,113.540052072 -194.068231662,115.37884809 -184.823979823,113.540052072 -176.987081527,108.303604043 -171.750633499,100.466705747 -169.911837481,91.2224539082" stroke="#000" stroke-linecap="round" stroke-linejoin="round"/><polyline fill="none" points="400.0,-179.218896133 398.019030986,-188.5386226 392.418651485,-196.246883694 384.167217989,-201.010851044 374.691478312,-202.006791416 365.629873928,-199.062497672 358.549238558,-192.687064949 354.673878383,-183.982863483 354.673878383,-174.454928783 358.549238558,-165.750727316 365.629873928,-159.375294593 374.691478312,-156.431000849 384.167217989,-157.426941222 392.418651485,-162.190908572 398.019030986,-169.899169666 400.0,-179.218896133" stroke="#000" stroke-linecap="round" stroke-linejoin="round"/><polyline fill="none" points="202.132313514,-377.086582619 200.1513445,-386.406309086 194.550964999,-394.11457018 186.299531503,-398.87853753 176.823791826,-399.874477902 167.762187442,-396.930184158 160.681552072,-390.554751435 156.806191897,-381.850549969 156.806191897,-372.322615269 160.681552072,-363.618413803 167.762187442,-357.242981079 176.823791826,-354.298687336 186.299531503,-355.294627708 194.550964999,-360.058595058 200.1513445,-367.766856152 202.132313514,-377.086582619" stroke="#000" stroke-linecap="round" stroke-linejoin="round"/><polyline fill="none" points="97.2515977796,-74.5975058135 95.2930486262,-83.8117551318 89.7560521073,-91.432777034 81.5980052232,-96.1428275987 72.2295083936,-97.1274962935 63.2704598305,-94.2165249559 56.2699604208,-87.9132469753 52.4384601101,-79.3075563782 52.4384601101,-69.8874552489 56.2699604208,-61.2817646518 63.2704598305,-54.9784866712 72.2295083936,-52.0675153336 81.5980052232,-53.0521840284 89.7560521073,-57.762234593 95.2930486262,-65.3832564953 97.2515977796,-74.5975058135" stroke="#000" stroke-linecap="round" stroke-linejoin="round"/><polyline fill="none" points="170.888056233,-245.082186737 168.944873559,-254.224142453 163.451319475,-261.785370973 155.35727939,-266.458467195 146.062286366,-267.435410329 137.173529139,-264.547278031 130.227954586,-258.293454613 126.426515645,-249.755282959 126.426515645,-240.409090515 130.227954586,-231.870918861 137.173529139,-225.617095444 146.062286366,-222.728963146 155.35727939,-223.705906279 163.451319475,-228.379002501 168.944873559,-235.940231022 170.888056233,-245.082186737" stroke="#000" stroke-linecap="round" stroke-linejoin="round"/><polyline fill="none" points="267.558538133,-148.411704837 265.61535546,-157.553660552 260.121801376,-165.114889073 252.02776129,-169.787985295 242.732768266,-170.764928428 233.844011039,-167.87679613 226.898436486,-161.622972713 223.096997546,-153.084801059 223.096997546,-143.738608615 226.898436486,-135.200436961 233.844011039,-128.946613543 242.732768266,-126.058481245 252.02776129,-127.035424379 260.121801376,-131.708520601 265.61535546,-139.269749121 267.558538133,-148.411704837" stroke="#000" stroke-linecap="round" stroke-linejoin="round"/><polyline fill="none" points="-168.929428037,151.122740066 -170.818676105,142.23452672 -176.159752155,134.883166209 -184.029135616,130.339775549 -193.066138597,129.389948262 -201.708181183,132.197918113 -208.4609757,138.278161607 -212.15690263,146.579349406 -212.15690263,155.666130726 -208.4609757,163.967318524 -201.708181183,170.047562018 -193.066138597,172.85553187 -184.029135616,171.905704583 -176.159752155,167.362313923 -170.818676105,160.010953412 -168.929428037,151.122740066" stroke="#000" stroke-linecap="round" stroke-linejoin="round"/><polyline fill="none" points="-240.055317244,378.860290185 -241.882941182,370.261995579 -247.049800212,363.150424224 -254.66249747,358.755231412 -263.40472844,357.836385912 -271.764881967,360.552764456 -278.297411556,366.434680518 -281.872783495,374.465097374 -281.872783495,383.255482996 -278.297411556,391.285899852 -271.764881967,397.167815913 -263.40472844,399.884194458 -254.66249747,398.965348957 -247.049800212,394.570156146 -241.882941182,387.458584791 -240.055317244,378.860290185" stroke="#000" stroke-linecap="round" stroke-linejoin="round"/><polyline fill="none" points="400.0,-379.898987322 398.262176148,-388.074805741 393.349190124,-394.836950881 386.110541844,-399.016186414 377.797859357,-399.889884549 369.848480984,-397.306974943 363.636926462,-391.71406613 360.237229999,-384.078222855 360.237229999,-375.719751789 363.636926462,-368.083908514 369.848480983,-362.490999702 377.797859357,-359.908090095 386.110541844,-360.781788231 393.349190124,-364.961023764 398.262176148,-371.723168903 400.0,-379.898987322" stroke="#000" stroke-linecap="round" stroke-linejoin="round"/><line fill="none" stroke="none" stroke-linecap="round" stroke-width="2.0" x1="0.0" x2="0.0" y1="0.0" y2="0.0"/></svg>