<?xml version="1.0" ?><!DOCTYPE svg  PUBLIC '-//W3C//DTD SVG 1.1//EN'  'http://www.w3.org/Graphics/SVG/1.1/DTD/svg11.dtd'><svg height="824.000" viewBox="-412.000 -412.000 824.000 824.000" width="824.000" xmlns="http://www.w3.org/2000/svg"><line fill="none" stroke="none" stroke-linecap="round" stroke-width="2.0" x1="0.0" x2="0.0" y1="0.0" y2="0.0"/><polygon fill="none" fill-rule="evenodd" points="0.0,0.0 0.0,0.0 0.0,0.0" stroke-linejoin="round"/><polyline fill="none" points="-400.0,-400.0 400.0,-400.0 400.0,400.0 -400.0,400.0 -400.0,-400.0" stroke="#000" stroke-linecap="round" stroke-linejoin="round"/><polygon fill="#000" fill-rule="evenodd" points="4.0,0.0 3.46410161514,-2.0 2.0,-3.46410161514 3.33066907388e-13,-4.0 -2.0,-3.46410161514 -3.46410161514,-2.0 -4.0,-4.17443857259e-13 -3.46410161514,2.0 -2.0,3.46410161514 -8.57092175011e-14,4.0 2.0,3.46410161514 3.46410161514,2.0 4.0,3.33066907388e-15" stroke-linejoin="round"/><polyline fill="none" points="4.0,0.0 3.46410161514,-2.0 2.0,-3.46410161514 3.33066907388e-13,-4.0 -2.0,-3.46410161514 -3.46410161514,-2.0 -4.0,-4.17443857259e-13 -3.46410161514,2.0 -2.0,3.46410161514 -8.57092175011e-14,4.0 2.0,3.46410161514 3.46410161514,2.0 4.0,3.33066907388e-15" stroke="#000" stroke-linecap="round" stroke-linejoin="round"/><polygon fill="#000" fill-rule="evenodd" points="204.0,-200.0 203.464101615,-202.0 202.0,-203.464101615 200.0,-204.0 198.0,-203.464101615 196.535898385,-202.0 196.0,-200.0 196.535898385,-198.0 198.0,-196.535898385 200.0,-196.0 202.0,-196.535898385 203.464101615,-198.0 204.0,-200.0" stroke-linejoin="round"/><polyline fill="none" points="204.0,-200.0 203.464101615,-202.0 202.0,-203.464101615 200.0,-204.0 198.0,-203.464101615 196.535898385,-202.0 196.0,-200.0 196.535898385,-198.0 198.0,-196.535898385 200.0,-196.0 202.0,-196.535898385 203.464101615,-198.0 204.0,-200.0" stroke="#000" stroke-linecap="round" stroke-linejoin="round"/><polygon fill="#000" fill-rule="evenodd" points="-236.0,200.0 -236.535898385,198.0 -238.0,196.535898385 -240.0,196.0 -242.0,196.535898385 -243.464101615,198.0 -244.0,200.0 -243.464101615,202.0 -242.0,203.464101615 -240.0,204.0 -238.0,203.464101615 -236.535898385,202.0 -236.0,200.0" stroke-linejoin="round"/><polyline fill="none" points="-236.0,200.0 -236.535898385,198.0 -238.0,196.535898385 -240.0,196.0 -242.0,196.535898385 -243.464101615,198.0 -244.0,200.0 -243.464101615,202.0 -242.0,203.464101615 -240.0,204.0 -238.0,203.464101615 -236.535898385,202.0 -236.0,200.0" stroke="#000" stroke-linecap="round" stroke-linejoin="round"/><polygon fill="#000" fill-rule="evenodd" points="-196.0,-200.0 -196.535898385,-202.0 -198.0,-203.464101615 -200.0,-204.0 -202.0,-203.464101615 -203.464101615,-202.0 -204.0,-200.0 -203.464101615,-198.0 -202.0,-196.535898385 -200.0,-196.0 -198.0,-196.535898385 -196.535898385,-198.0 -196.0,-200.0" stroke-linejoin="round"/><polyline fill="none" points="-196.0,-200.0 -196.535898385,-202.0 -198.0,-203.464101615 -200.0,-204.0 -202.0,-203.464101615 -203.464101615,-202.0 -204.0,-200.0 -203.464101615,-198.0 -202.0,-196.535898385 -200.0,-196.0 -198.0,-196.535898385 -196.535898385,-198.0 -196.0,-200.0" stroke="#000" stroke-linecap="round" stroke-linejoin="round"/><polyline fill="none" points="400.0,165.685424949 398.224014945,136.890907343 392.922981902,108.532885273 384.177259129,81.041237446 372.119422868,54.83270922 356.932257626,30.3045951674 338.845985347,7.82871649465 318.134775482,-12.2542153882 295.112588861,-29.6397637052 270.128418367,-44.0643812657 243.560998555,-55.3094055711 215.81306443,-63.2043735157 187.305246388,-67.6296054329 158.46969389,-68.5180193177 129.74352452,-65.8561477213 101.562197723,-59.6843419037 74.3529136879,-50.0961601499 48.5281374239,-37.2369495217 24.4793462152,-21.3016425441 2.57109522255,-2.5318022275 -16.864508801,18.7880397819 -33.5328419101,42.3346964116 -47.1812291655,67.751224349 -57.6027749289,94.6523349389 -64.6394991895,122.630234766 -68.1847323805,151.260807389 -68.1847323805,180.11004251 -64.6394991895,208.740615132 -57.6027749289,236.71851496 -47.1812291655,263.619625549 -33.5328419101,289.036153487 -16.864508801,312.582810116 2.57109522253,333.902652126 24.4793462152,352.672492443 48.5281374239,368.60779942 74.3529136879,381.467010048 101.562197723,391.055191802 129.74352452,397.22699762 158.46969389,399.888869216 187.305246388,399.000455331 215.81306443,394.575223414 243.560998555,386.68025547 270.128418367,375.435231164" stroke="#000" stroke-linecap="round" stroke-linejoin="round"/><polyline fill="none" points="270.128418367,375.435231164 295.112588861,361.010613604 318.134775482,343.625065287 338.845985347,323.542133404 356.932257626,301.066254731 372.119422868,276.538140679 384.177259129,250.329612453 392.922981902,222.837964625 398.224014945,194.479942555 400.0,165.685424949" stroke="#000" stroke-linecap="round" stroke-linejoin="round"/><polyline fill="none" points="-28.0267260356,-14.5420403626 -30.1040431039,-42.2619102169 -36.289590478,-69.3625639844 -46.445193251,-95.2386178423 -60.3439920385,-119.312043506 -77.6755106427,-141.045080428 -98.0525915774,-159.952248474 -121.020044527,-175.611192754 -146.064814544,-187.672118328 -172.627442853,-195.865604049 -200.11456423,-200.008620986 -227.912161805,-200.008620986 -255.399283182,-195.865604049 -281.961911491,-187.672118328 -307.006681509,-175.611192754 -329.974134458,-159.952248474 -350.351215393,-141.045080428 -367.682733997,-119.312043506 -381.581532785,-95.2386178423 -391.737135558,-69.3625639844 -397.922682932,-42.2619102169 -400.0,-14.5420403626 -397.922682932,13.1778294917 -391.737135558,40.2784832592 -381.581532785,66.1545371171 -367.682733997,90.2279627813 -350.351215393,111.960999702 -329.974134458,130.868167748 -307.006681509,146.527112028 -281.961911491,158.588037603 -255.399283182,166.781523324 -227.912161805,170.924540261 -200.11456423,170.924540261 -172.627442853,166.781523324 -146.064814544,158.588037603 -121.020044527,146.527112028 -98.0525915774,130.868167748 -77.6755106427,111.960999702 -60.3439920385,90.2279627813 -46.445193251,66.1545371172 -36.289590478,40.2784832592 -30.1040431039,13.1778294917 -28.0267260356,-14.5420403626" stroke="#000" stroke-linecap="round" stroke-linejoin="round"/><polyline fill="none" points="205.365385074,-240.961216676 203.196303361,-267.138140056 196.748225117,-292.601025204 186.197037108,-316.655310991 171.830548236,-338.644859204 154.040638869,-357.969852292 133.312571359,-374.103154818 110.211753354,-386.604692348 85.3683149487,-395.133455525 59.4599203816,-399.456801923 33.1932831184,-399.456801923 7.28488855138,-395.133455525 -17.5585498537,-386.604692348 -40.6593678592,-374.103154818 -61.3874353693,-357.969852292 -79.1773447363,-338.644859204 -93.5438336075,-316.655310991 -104.095021617,-292.601025204 -110.543099861,-267.138140056 -112.712181574,-240.961216676 -110.543099861,-214.784293296 -104.095021617,-189.321408147 -93.5438336075,-165.267122361 -79.1773447363,-143.277574147 -61.3874353693,-123.95258106 -40.6593678592,-107.819278533 -17.5585498537,-95.3177410037 7.28488855137,-86.7889778266 33.1932831184,-82.4656314282 59.4599203816,-82.4656314282 85.3683149486,-86.7889778266 110.211753354,-95.3177410037 133.312571359,-107.819278533 154.040638869,-123.95258106 171.830548236,-143.277574147 186.197037107,-165.267122361 196.748225117,-189.321408147 203.196303361,-214.784293296 205.365385074,-240.961216676" stroke="#000" stroke-linecap="round" stroke-linejoin="round"/><polyline fill="none" points="-47.6118514714,285.019961323 -49.9654996179,261.874649698 -56.9300854257,239.67690985 -68.2204779337,219.335519856 -83.3744471459,201.683258615 -101.771587782,187.442811773 -122.658718744,177.197184899 -145.180718434,171.365835161 -168.41553354,170.187498701 -191.411928002,173.710416753 -213.228426728,181.790360639 -232.971859696,194.096536505 -249.833928442,210.125128066 -263.12429789,229.219922901 -272.298858752,250.599177865 -276.982003431,273.387623748 -276.982003431,296.652298898 -272.298858752,319.440744781 -263.12429789,340.819999745 -249.833928442,359.91479458 -232.971859696,375.943386141 -213.228426728,388.249562007 -191.411928002,396.329505893 -168.41553354,399.852423945 -145.180718434,398.674087485 -122.658718744,392.842737747 -101.771587782,382.597110873 -83.3744471459,368.356664031 -68.2204779337,350.70440279 -56.9300854257,330.363012796 -49.9654996179,308.165272948 -47.6118514714,285.019961323" stroke="#000" stroke-linecap="round" stroke-linejoin="round"/><polyline fill="none" points="400.0,-148.892511314 397.531509802,-171.589903854 390.241463068,-193.225991545 378.47073428,-212.789094973 362.769709633,-229.364465166 343.872551591,-242.177056235 322.66287026,-250.627765661 300.132406767,-254.321447665 277.334660543,-253.085389781 255.335628865,-246.977388702 235.163962003,-236.28304777 217.762864681,-221.50242248 203.945992869,-203.326638445 194.359408137,-182.605575124 189.451368532,-160.308126408 189.451368532,-137.476896219 194.359408137,-115.179447504 203.945992869,-94.4583841827 217.762864681,-76.2826001473 235.163962003,-61.5019748578 255.335628865,-50.8076339255 277.334660543,-44.6996328463 300.132406767,-43.4635749622 322.66287026,-47.157256966 343.872551591,-55.6079663925 362.769709633,-68.4205574612 378.47073428,-84.9959276539 390.241463068,-104.559031083 397.531509802,-126.195118774 400.0,-148.892511314" stroke="#000" stroke-linecap="round" stroke-linejoin="round"/><polyline fill="none" points="-189.168567684,-294.584283842 -191.633128547,-317.24554675 -198.91157101,-338.84719419 -210.663563192,-358.379157137 -226.339595001,-374.928142712 -245.206672611,-387.720338742 -266.382592444,-396.157596357 -288.877192022,-399.845398771 -311.63864887,-398.611308439 -333.602662565,-392.513030056 -353.742220236,-381.835712339 -371.115618551,-367.078614799 -384.910496713,-348.931762914 -394.481821552,-328.243683312 -399.382048555,-305.9817276 -399.382048555,-283.186840085 -394.481821552,-260.924884373 -384.910496713,-240.23680477 -371.115618551,-222.089952886 -353.742220236,-207.332855345 -333.602662565,-196.655537629 -311.63864887,-190.557259245 -288.877192022,-189.323168913 -266.382592444,-193.010971327 -245.206672611,-201.448228943 -226.339595001,-214.240424973 -210.663563192,-230.789410547 -198.91157101,-250.321373494 -191.633128547,-271.923020935 -189.168567684,-294.584283842" stroke="#000" stroke-linecap="round" stroke-linejoin="round"/><polyline fill="none" points="400.0,-325.852830974 397.473496482,-345.043530458 390.066162969,-362.926415487 378.282796998,-378.282796998 362.926415487,-390.066162969 345.043530458,-397.473496482 325.852830974,-400.0 306.66213149,-397.473496482 288.779246461,-390.066162969 273.42286495,-378.282796998 261.639498979,-362.926415487 254.232165466,-345.043530459 251.705661948,-325.852830974 254.232165466,-306.66213149 261.639498979,-288.779246461 273.42286495,-273.42286495 288.779246461,-261.639498979 306.66213149,-254.232165466 325.852830974,-251.705661948 345.043530458,-254.232165466 362.926415487,-261.639498979 378.282796998,-273.42286495 390.066162969,-288.779246461 397.473496482,-306.66213149 400.0,-325.852830974" stroke="#000" stroke-linecap="round" stroke-linejoin="round"/><polyline fill="none" points="-262.336481871,211.747927475 -264.888950214,193.177341126 -272.357050342,175.984050212 -284.186907433,161.443202466 -299.501155104,150.633226045 -317.164005665,144.355847448 -335.86548629,143.076631128 -354.218593716,146.890450708 -370.862161925,155.514452636 -384.561813601,168.309034143 -394.301508252,184.325279648 -399.358897282,202.375337492 -399.358897282,221.120517458 -394.301508252,239.170575302 -384.561813601,255.186820807 -370.862161925,267.981402313 -354.218593716,276.605404242 -335.86548629,280.419223822 -317.164005665,279.140007502 -299.501155104,272.862628905 -284.186907433,262.052652484 -272.357050342,247.511804737 -264.888950214,230.318513824 -262.336481871,211.747927475" stroke="#000" stroke-linecap="round" stroke-linejoin="round"/><polyline fill="none" points="-280.267040532,340.133520266 -282.926740254,322.487565591 -290.669513428,306.409531426 -302.807380679,293.328021666 -318.261839235,284.405385858 -335.659692633,280.434439351 -353.455065249,281.768018169 -370.066760133,288.287627981 -384.018755295,299.413972845 -394.071354737,314.158428191 -399.331340885,331.210884459 -399.331340885,349.056156074 -394.071354737,366.108612341 -384.018755295,380.853067687 -370.066760133,391.979412551 -353.455065249,398.499022363 -335.659692633,399.832601181 -318.261839235,395.861654674 -302.807380679,386.939018867 -290.669513428,373.857509106 -282.926740254,357.779474941 -280.267040532,340.133520266" stroke="#000" stroke-linecap="round" stroke-linejoin="round"/><polyline fill="none" points="-86.0812133877,-344.489486027 -88.5473897729,-360.851497255 -95.726788334,-375.759671982 -106.981488002,-387.889353459 -121.311459322,-396.162766258 -137.443421456,-399.844781344 -153.943978774,-398.608235519 -169.346984347,-392.563001305 -182.283813534,-382.246224291 -191.604972291,-368.57459539 -196.482234756,-352.762898826 -196.482234756,-336.216073228 -191.604972291,-320.404376665 -182.283813534,-306.732747764 -169.346984347,-296.41597075 -153.943978774,-290.370736536 -137.443421456,-289.13419071 -121.311459322,-292.816205797 -106.981488002,-301.089618596 -95.726788334,-313.219300073 -88.5473897729,-328.1274748 -86.0812133877,-344.489486027" stroke="#000" stroke-linecap="round" stroke-linejoin="round"/><polyline fill="none" points="-112.677863481,-237.228580094 -115.060283194,-251.505638708 -121.949370189,-264.235556491 -132.598584995,-274.038849324 -145.853919949,-279.853178316 -160.278953831,-281.048470702 -174.310510391,-277.495198004 -186.428052755,-269.578412456 -195.318457184,-258.156020611 -200.018310411,-244.465815864 -200.018310411,-229.991344324 -195.318457184,-216.301139577 -186.428052755,-204.878747732 -174.310510391,-196.961962184 -160.278953831,-193.408689486 -145.853919949,-194.603981872 -132.598584995,-200.418310864 -121.949370189,-210.221603697 -115.060283194,-222.95152148 -112.677863481,-237.228580094" stroke="#000" stroke-linecap="round" stroke-linejoin="round"/><polyline fill="none" points="255.806646588,-356.627419521 253.456600544,-370.710473381 246.661126363,-383.267409833 236.156619116,-392.937489974 223.081405157,-398.672810572 208.852386802,-399.851860648 195.011498976,-396.346871832 183.058616637,-388.537664047 174.289020056,-377.270486129 169.653031097,-363.766311634 169.653031097,-349.488527408 174.289020056,-335.984352913 183.058616637,-324.717174995 195.011498976,-316.90796721 208.852386802,-313.402978394 223.081405157,-314.58202847 236.156619116,-320.317349068 246.661126363,-329.987429209 253.456600544,-342.544365662 255.806646588,-356.627419521" stroke="#000" stroke-linecap="round" stroke-linejoin="round"/><polyline fill="none" points="400.0,359.797974645 397.575521212,346.048072171 390.59451277,333.956610862 379.898987322,324.981999403 366.778983086,320.206708388 352.816966203,320.206708388 339.696961967,324.981999403 329.001436519,333.956610862 322.020428078,346.048072171 319.595949289,359.797974645 322.020428078,373.547877119 329.001436519,385.639338427 339.696961967,394.613949886 352.816966203,399.389240901 366.778983086,399.389240901 379.898987322,394.613949886 390.59451277,385.639338427 397.575521212,373.547877119 400.0,359.797974645" stroke="#000" stroke-linecap="round" stroke-linejoin="round"/><polyline fill="none" points="12.400357978,360.238171394 10.002426302,346.638825076 3.09785722398,334.679760628 -7.48055632479,325.803417721 -20.4569015495,321.08041431 -34.2660397057,321.08041431 -47.2423849304,325.803417721 -57.8207984792,334.679760628 -64.7253675572,346.638825076 -67.1232992332,360.238171394 -64.7253675572,373.837517713 -57.8207984792,385.796582161 -47.2423849304,394.672925068 -34.2660397057,399.395928479 -20.4569015495,399.395928479 -7.4805563248,394.672925068 3.09785722397,385.796582161 10.002426302,373.837517713 12.400357978,360.238171394" stroke="#000" stroke-linecap="round" stroke-linejoin="round"/><polyline fill="none" points="400.0,-22.5411545572 397.720324347,-35.4698376425 391.156259916,-46.8391307407 381.099529753,-55.2777293112 368.763123938,-59.767813826 355.634995076,-59.767813826 343.29858926,-55.2777293112 333.241859097,-46.8391307407 326.677794667,-35.4698376425 324.398119014,-22.5411545572 326.677794667,-9.61247147189 333.241859097,1.75682162629 343.29858926,10.1954201968 355.634995076,14.6855047116 368.763123938,14.6855047116 381.099529753,10.1954201968 391.156259916,1.7568216263 397.720324347,-9.61247147189 400.0,-22.5411545572" stroke="#000" stroke-linecap="round" stroke-linejoin="round"/><polyline fill="none" points="40.163719808,-50.8608273612 37.7601639791,-63.7187153792 30.8741100255,-74.8400743723 20.4355576907,-82.722903183 7.85429130945,-86.3025821001 -5.17051937823,-85.0956556502 -16.879801516,-79.2651259381 -25.6921516678,-69.5984383096 -30.4174131147,-57.4011324938 -30.4174131147,-44.3205222287 -25.6921516678,-32.1232164129 -16.879801516,-22.4565287844 -5.17051937824,-16.6259990723 7.85429130944,-15.4190726224 20.4355576907,-18.9987515395 30.8741100255,-26.8815803502 37.7601639791,-38.0029393433 40.163719808,-50.8608273612" stroke="#000" stroke-linecap="round" stroke-linejoin="round"/><polyline fill="none" points="-331.381223484,-174.305462196 -333.698059984,-186.699442776 -340.335667875,-197.419547602 -350.397601432,-205.017967113 -362.524940773,-208.468492652 -375.07982152,-207.305111624 -386.366637459,-201.684945083 -394.861041555,-192.367027664 -399.415817466,-180.609795745 -399.415817466,-168.001128647 -394.861041555,-156.243896729 -386.366637459,-146.925979309 -375.07982152,-141.305812768 -362.524940773,-140.14243174 -350.397601432,-143.592957279 -340.335667875,-151.191376791 -333.698059984,-161.911481616 -331.381223484,-174.305462196" stroke="#000" stroke-linecap="round" stroke-linejoin="round"/><polyline fill="none" points="266.184217767,-272.412881885 264.042588303,-283.869587608 257.906938839,-293.779001739 248.605922831,-300.80280299 237.395694033,-303.992388082 225.790255959,-302.916985874 215.356987332,-297.721835393 207.50495889,-289.108570499 203.294630585,-278.240460344 203.294630585,-266.585303426 207.50495889,-255.717193271 215.356987332,-247.103928377 225.790255959,-241.908777896 237.395694033,-240.833375688 248.605922831,-244.02296078 257.906938839,-251.046762031 264.042588303,-260.956176162 266.184217767,-272.412881885" stroke="#000" stroke-linecap="round" stroke-linejoin="round"/><polyline fill="none" points="198.757780324,-98.0750946826 196.514469346,-109.352980558 190.126060171,-118.913910543 180.565130186,-125.302319718 169.287244311,-127.545630696 158.009358435,-125.302319718 148.44842845,-118.913910543 142.060019276,-109.352980558 139.816708297,-98.0750946826 142.060019276,-86.7972088073 148.44842845,-77.2362788223 158.009358435,-70.8478696476 169.287244311,-68.6045586691 180.565130186,-70.8478696476 190.126060171,-77.2362788223 196.514469346,-86.7972088073 198.757780324,-98.0750946826" stroke="#000" stroke-linecap="round" stroke-linejoin="round"/><polyline fill="none" points="-346.782104212,126.154920976 -348.807589765,115.972117464 -354.57568461,107.339553479 -363.208248594,101.571458635 -373.391052106,99.5459730815 -383.573855618,101.571458635 -392.206419602,107.339553479 -397.974514447,115.972117464 -400.0,126.154920976 -397.974514447,136.337724487 -392.206419602,144.970288472 -383.573855618,150.738383316 -373.391052106,152.76386887 -363.208248594,150.738383316 -354.57568461,144.970288472 -348.807589765,136.337724487 -346.782104212,126.154920976" stroke="#000" stroke-linecap="round" stroke-linejoin="round"/><polyline fill="none" points="-68.5886308445,161.090348138 -70.5873630355,151.04204286 -76.2792707509,142.523500972 -84.7978126383,136.831593257 -94.8461179162,134.832861066 -104.894423194,136.831593257 -113.412965081,142.523500972 -119.104872797,151.04204286 -121.103604988,161.090348138 -119.104872797,171.138653415 -113.412965081,179.657195303 -104.894423194,185.349103018 -94.8461179162,187.347835209 -84.7978126383,185.349103018 -76.2792707509,179.657195303 -70.5873630355,171.138653415 -68.5886308445,161.090348138" stroke="#000" stroke-linecap="round" stroke-linejoin="round"/><polyline fill="none" points="-242.595215272,376.87579686 -244.594407672,367.4703361 -250.246306343,359.691164952 -258.573646661,354.883372779 -268.136555831,353.878270523 -277.281519983,356.849649498 -284.427291734,363.283731283 -288.338302233,372.068004686 -288.338302233,381.683589033 -284.427291734,390.467862437 -277.281519983,396.901944221 -268.136555831,399.873323196 -258.573646661,398.86822094 -250.246306343,394.060428767 -244.594407672,386.281257619 -242.595215272,376.87579686" stroke="#000" stroke-linecap="round" stroke-linejoin="round"/><polyline fill="none" points="400.0,-245.170778179 398.102476646,-254.097923682 392.738005611,-261.481484628 384.834152672,-266.04477625 375.757565805,-266.998763971 367.077669339,-264.178494648 360.295296227,-258.071618468 356.583180395,-249.734069801 356.583180395,-240.607486557 360.295296227,-232.26993789 367.077669339,-226.16306171 375.757565805,-223.342792386 384.834152672,-224.296780108 392.738005611,-228.86007173 398.102476646,-236.243632675 400.0,-245.170778179" stroke="#000" stroke-linecap="round" stroke-linejoin="round"/><polyline fill="none" points="-49.8665439585,-378.064509976 -51.7629667099,-386.986477553 -57.1243262418,-394.365755882 -65.0235947849,-398.926400701 -74.0949170454,-399.879835091 -82.769778994,-397.061201581 -89.5482181912,-390.957867514 -93.2581809197,-382.625154796 -93.2581809197,-373.503865157 -89.5482181913,-365.171152439 -82.769778994,-359.067818371 -74.0949170454,-356.249184862 -65.0235947849,-357.202619251 -57.1243262418,-361.763264071 -51.7629667099,-369.1425424 -49.8665439585,-378.064509976" stroke="#000" stroke-linecap="round" stroke-linejoin="round"/><polyline fill="none" points="400.0,302.943725152 398.262176148,294.767906733 393.349190124,288.005761594 386.110541844,283.826526061 377.797859357,282.952827925 369.848480984,285.535737532 363.636926462,291.128646344 360.237229999,298.764489619 360.237229999,307.122960685 363.636926462,314.75880396 369.848480984,320.351712773 377.797859357,322.934622379 386.110541844,322.060924244 393.349190124,317.881688711 398.262176148,311.119543571 400.0,302.943725152" stroke="#000" stroke-linecap="round" stroke-linejoin="round"/><polyline fill="none" points="323.04473783,379.898987322 321.306913978,371.723168903 316.393927954,364.961023764 309.155279674,360.781788231 300.842597187,359.908090095 292.893218813,362.490999702 286.681664292,368.083908514 283.281967829,375.719751789 283.281967829,384.078222855 286.681664292,391.71406613 292.893218813,397.306974943 300.842597187,399.889884549 309.155279674,399.016186414 316.393927954,394.836950881 321.306913978,388.074805741 323.04473783,379.898987322" stroke="#000" stroke-linecap="round" stroke-linejoin="round"/><polyline fill="none" points="48.9058137321,380.054996211 47.1814775572,371.942632324 42.3066224224,365.232969852 35.124155067,361.086170391 26.8759893476,360.21925324 18.9883080492,362.782116252 12.8249629256,368.331617127 9.451652341,375.90819675 9.451652341,384.201795672 12.8249629256,391.778375295 18.9883080492,397.327876171 26.8759893476,399.890739182 35.124155067,399.023822032 42.3066224224,394.877022571 47.1814775572,388.167360098 48.9058137321,380.054996211" stroke="#000" stroke-linecap="round" stroke-linejoin="round"/><polyline fill="none" points="400.0,31.3964814193 398.336552742,23.5705773647 393.633836112,17.0978432173 386.704992536,13.097473514 378.748082018,12.2611685188 371.13892667,14.733532963 365.19321858,20.0870725734 361.939024691,27.3961117161 361.939024691,35.3968511226 365.19321858,42.7058902652 371.13892667,48.0594298757 378.748082018,50.5317943199 386.704992536,49.6954893247 393.633836112,45.6951196214 398.336552742,39.2223854739 400.0,31.3964814193" stroke="#000" stroke-linecap="round" stroke-linejoin="round"/><polyline fill="none" points="76.5709680238,-63.3536309509 74.9344790992,-71.0527060196 70.3079761273,-77.420541065 63.4914235026,-81.3560795579 55.6634651002,-82.1788311395 48.1776260427,-79.7465345869 42.3282759099,-74.4797560707 39.1268204794,-67.2891694437 39.1268204794,-59.418092458 42.3282759099,-52.227505831 48.1776260427,-46.9607273149 55.6634651002,-44.5284307623 63.4914235026,-45.3511823439 70.3079761273,-49.2867208367 74.9344790992,-55.6545558821 76.5709680238,-63.3536309509" stroke="#000" stroke-linecap="round" stroke-linejoin="round"/><line fill="none" stroke="none" stroke-linecap="round" stroke-width="2.0" x1="0.0" x2="0.0" y1="0.0" y2="0.0"/></svg>