<?xml version="1.0" ?><!DOCTYPE svg  PUBLIC '-//W3C//DTD SVG 1.1//EN'  'http://www.w3.org/Graphics/SVG/1.1/DTD/svg11.dtd'><svg height="824.000" viewBox="-412.000 -412.000 824.000 824.000" width="824.000" xmlns="http://www.w3.org/2000/svg"><line fill="none" stroke="none" stroke-linecap="round" stroke-width="2.0" x1="0.0" x2="0.0" y1="0.0" y2="0.0"/><polygon fill="none" fill-rule="evenodd" points="0.0,0.0 0.0,0.0 0.0,0.0" stroke-linejoin="round"/><polyline fill="none" points="-400.0,-400.0 400.0,-400.0 400.0,400.0 -400.0,400.0 -400.0,-400.0" stroke="#000" stroke-linecap="round" stroke-linejoin="round"/><polygon fill="#000" fill-rule="evenodd" points="4.0,0.0 3.46410161514,-2.0 2.0,-3.46410161514 -4.4408920985e-16,-4.0 -2.0,-3.46410161514 -3.46410161514,-2.0 -4.0,8.881784197e-16 -3.46410161514,2.0 -2.0,3.46410161514 -1.55431223448e-15,4.0 2.0,3.46410161514 3.46410161514,2.0 4.0,4.4408920985e-15" stroke-linejoin="round"/><polyline fill="none" points="4.0,0.0 3.46410161514,-2.0 2.0,-3.46410161514 -4.4408920985e-16,-4.0 -2.0,-3.46410161514 -3.46410161514,-2.0 -4.0,8.881784197e-16 -3.46410161514,2.0 -2.0,3.46410161514 -1.55431223448e-15,4.0 2.0,3.46410161514 3.46410161514,2.0 4.0,4.4408920985e-15" stroke="#000" stroke-linecap="round" stroke-linejoin="round"/><polyline fill="none" points="400.0,-165.685424949 398.224014945,-194.479942555 392.922981902,-222.837964625 384.177259129,-250.329612453 372.119422868,-276.538140679 356.932257626,-301.066254731 338.845985347,-323.542133404 318.134775482,-343.625065287 295.112588861,-361.010613604 270.128418367,-375.435231164 243.560998555,-386.68025547 215.81306443,-394.575223414 187.305246388,-399.000455331 158.46969389,-399.888869216 129.74352452,-397.22699762 101.562197723,-391.055191802 74.3529136879,-381.467010048 48.5281374239,-368.60779942 24.4793462152,-352.672492443 2.57109522252,-333.902652126 -16.864508801,-312.582810117 -33.5328419101,-289.036153487 -47.1812291655,-263.619625549 -57.6027749289,-236.71851496 -64.6394991895,-208.740615132 -68.1847323805,-180.11004251 -68.1847323805,-151.260807389 -64.6394991895,-122.630234766 -57.6027749289,-94.6523349389 -47.1812291655,-67.751224349 -33.5328419101,-42.3346964116 -16.864508801,-18.788039782 2.57109522252,2.53180222748 24.4793462152,21.3016425441 48.5281374239,37.2369495217 74.3529136879,50.0961601499 101.562197723,59.6843419037 129.74352452,65.8561477213 158.46969389,68.5180193177 187.305246388,67.6296054329 215.81306443,63.2043735157 243.560998555,55.3094055711 270.128418367,44.0643812657" stroke="#000" stroke-linecap="round" stroke-linejoin="round"/><polyline fill="none" points="270.128418367,44.0643812657 295.112588861,29.6397637051 318.134775482,12.2542153882 338.845985347,-7.82871649465 356.932257626,-30.3045951674 372.119422868,-54.83270922 384.177259129,-81.041237446 392.922981902,-108.532885273 398.224014945,-136.890907343 400.0,-165.685424949" stroke="#000" stroke-linecap="round" stroke-linejoin="round"/><polyline fill="none" points="68.6291501015,165.685424949 66.8531650462,136.890907343 61.5521320033,108.532885273 52.8064092303,81.041237446 40.7485729694,54.83270922 25.5614077273,30.3045951674 7.47513544804,7.82871649465 -13.2360744166,-12.2542153882 -36.2582610371,-29.6397637051 -61.2424315316,-44.0643812657 -87.8098513431,-55.3094055711 -115.557785468,-63.2043735157 -144.065603511,-67.6296054329 -172.901156008,-68.5180193177 -201.627325378,-65.8561477213 -229.808652175,-59.6843419037 -257.017936211,-50.0961601499 -282.842712475,-37.2369495217 -306.891503683,-21.3016425441 -328.799754676,-2.53180222748 -348.2353587,18.788039782 -364.903691809,42.3346964116 -378.552079064,67.751224349 -388.973624827,94.6523349389 -396.010349088,122.630234766 -399.555582279,151.260807389 -399.555582279,180.11004251 -396.010349088,208.740615132 -388.973624827,236.71851496 -378.552079064,263.619625549 -364.903691809,289.036153487 -348.2353587,312.582810117 -328.799754676,333.902652126 -306.891503683,352.672492443 -282.842712475,368.60779942 -257.017936211,381.467010048 -229.808652175,391.055191802 -201.627325378,397.22699762 -172.901156008,399.888869216 -144.065603511,399.000455331 -115.557785468,394.575223414 -87.8098513431,386.68025547 -61.2424315316,375.435231164" stroke="#000" stroke-linecap="round" stroke-linejoin="round"/><polyline fill="none" points="-61.2424315316,375.435231164 -36.2582610371,361.010613604 -13.2360744166,343.625065287 7.47513544804,323.542133404 25.5614077273,301.066254731 40.7485729694,276.538140679 52.8064092303,250.329612453 61.5521320033,222.837964625 66.8531650462,194.479942555 68.6291501015,165.685424949" stroke="#000" stroke-linecap="round" stroke-linejoin="round"/><polyline fill="none" points="400.0,231.599185183 397.926706524,205.255493805 391.757877464,179.560471538 381.645409864,155.146815108 367.838306237,132.61566976 350.676543297,112.521827069 330.582700607,95.3600641297 308.051555258,81.5529605027 283.637898828,71.4404929022 257.942876561,65.2716638418 231.599185183,63.1983703663 205.255493805,65.2716638418 179.560471538,71.4404929022 155.146815108,81.5529605027 132.61566976,95.3600641297 112.521827069,112.521827069 95.3600641297,132.61566976 81.5529605027,155.146815108 71.4404929022,179.560471538 65.2716638418,205.255493805 63.1983703663,231.599185183 65.2716638418,257.942876561 71.4404929022,283.637898828 81.5529605027,308.051555258 95.3600641297,330.582700607 112.521827069,350.676543297 132.61566976,367.838306237 155.146815108,381.645409864 179.560471538,391.757877464 205.255493805,397.926706524 231.599185183,400.0 257.942876561,397.926706524 283.637898828,391.757877464 308.051555258,381.645409864 330.582700607,367.838306237 350.676543297,350.676543297 367.838306237,330.582700607 381.645409864,308.051555258 391.757877464,283.637898828 397.926706524,257.942876561 400.0,231.599185183" stroke="#000" stroke-linecap="round" stroke-linejoin="round"/><polyline fill="none" points="-63.1983703663,-231.599185183 -65.2716638418,-257.942876561 -71.4404929022,-283.637898828 -81.5529605027,-308.051555258 -95.3600641297,-330.582700607 -112.521827069,-350.676543297 -132.61566976,-367.838306237 -155.146815108,-381.645409864 -179.560471538,-391.757877464 -205.255493805,-397.926706524 -231.599185183,-400.0 -257.942876561,-397.926706524 -283.637898828,-391.757877464 -308.051555258,-381.645409864 -330.582700607,-367.838306237 -350.676543297,-350.676543297 -367.838306237,-330.582700607 -381.645409864,-308.051555258 -391.757877464,-283.637898828 -397.926706524,-257.942876561 -400.0,-231.599185183 -397.926706524,-205.255493805 -391.757877464,-179.560471538 -381.645409864,-155.146815108 -367.838306237,-132.61566976 -350.676543297,-112.521827069 -330.582700607,-95.3600641297 -308.051555258,-81.5529605027 -283.637898828,-71.4404929022 -257.942876561,-65.2716638418 -231.599185183,-63.1983703663 -205.255493805,-65.2716638418 -179.560471538,-71.4404929022 -155.146815108,-81.5529605027 -132.61566976,-95.3600641297 -112.521827069,-112.521827069 -95.3600641297,-132.61566976 -81.5529605027,-155.146815108 -71.4404929022,-179.560471538 -65.2716638418,-205.255493805 -63.1983703663,-231.599185183" stroke="#000" stroke-linecap="round" stroke-linejoin="round"/><polyline fill="none" points="98.646913405,350.676543297 96.2328516056,335.434756955 89.2269713962,321.684942856 78.3150571443,310.773028604 64.5652430449,303.767148394 49.3234567025,301.353086595 34.0816703601,303.767148394 20.3318562607,310.773028604 9.41994200886,321.684942856 2.41406179939,335.434756955 -2.13162820728e-14,350.676543297 2.41406179939,365.91832964 9.41994200886,379.668143739 20.3318562607,390.580057991 34.0816703601,397.585938201 49.3234567025,400.0 64.5652430449,397.585938201 78.3150571443,390.580057991 89.2269713962,379.668143739 96.2328516056,365.91832964 98.646913405,350.676543297" stroke="#000" stroke-linecap="round" stroke-linejoin="round"/><polyline fill="none" points="-301.353086595,-49.3234567025 -303.767148394,-64.5652430449 -310.773028604,-78.3150571443 -321.684942856,-89.2269713962 -335.434756955,-96.2328516056 -350.676543297,-98.646913405 -365.91832964,-96.2328516056 -379.668143739,-89.2269713962 -390.580057991,-78.3150571443 -397.585938201,-64.5652430449 -400.0,-49.3234567025 -397.585938201,-34.0816703601 -390.580057991,-20.3318562607 -379.668143739,-9.41994200886 -365.91832964,-2.41406179939 -350.676543297,-2.46469511467e-13 -335.434756955,-2.41406179939 -321.684942856,-9.41994200886 -310.773028604,-20.3318562607 -303.767148394,-34.0816703601 -301.353086595,-49.3234567025" stroke="#000" stroke-linecap="round" stroke-linejoin="round"/><polyline fill="none" points="-2.94209101526e-13,-350.676543297 -2.41406179939,-365.91832964 -9.41994200886,-379.668143739 -20.3318562607,-390.580057991 -34.0816703601,-397.585938201 -49.3234567025,-400.0 -64.5652430449,-397.585938201 -78.3150571443,-390.580057991 -89.2269713962,-379.668143739 -96.2328516056,-365.91832964 -98.646913405,-350.676543297 -96.2328516056,-335.434756955 -89.2269713962,-321.684942856 -78.3150571443,-310.773028604 -64.5652430449,-303.767148394 -49.3234567025,-301.353086595 -34.0816703601,-303.767148394 -20.3318562607,-310.773028604 -9.41994200886,-321.684942856 -2.41406179939,-335.434756955 -3.23741033981e-13,-350.676543297" stroke="#000" stroke-linecap="round" stroke-linejoin="round"/><polyline fill="none" points="400.0,49.3234567025 397.585938201,34.0816703601 390.580057991,20.3318562607 379.668143739,9.41994200886 365.91832964,2.41406179939 350.676543297,1.92290627865e-13 335.434756955,2.41406179939 321.684942856,9.41994200886 310.773028604,20.3318562607 303.767148394,34.0816703601 301.353086595,49.3234567025 303.767148394,64.5652430449 310.773028604,78.3150571443 321.684942856,89.2269713962 335.434756955,96.2328516056 350.676543297,98.646913405 365.91832964,96.2328516056 379.668143739,89.2269713962 390.580057991,78.3150571443 397.585938201,64.5652430449 400.0,49.3234567025" stroke="#000" stroke-linecap="round" stroke-linejoin="round"/><polyline fill="none" points="400.0,-359.797974645 397.575521212,-373.547877119 390.59451277,-385.639338427 379.898987322,-394.613949886 366.778983086,-399.389240901 352.816966203,-399.389240901 339.696961967,-394.613949886 329.001436519,-385.639338427 322.020428078,-373.547877119 319.595949289,-359.797974645 322.020428078,-346.048072171 329.001436519,-333.956610862 339.696961967,-324.981999403 352.816966203,-320.206708388 366.778983086,-320.206708388 379.898987322,-324.981999403 390.59451277,-333.956610862 397.575521212,-346.048072171 400.0,-359.797974645" stroke="#000" stroke-linecap="round" stroke-linejoin="round"/><polyline fill="none" points="-319.595949289,359.797974645 -322.020428078,346.048072171 -329.001436519,333.956610862 -339.696961967,324.981999403 -352.816966203,320.206708388 -366.778983086,320.206708388 -379.898987322,324.981999403 -390.59451277,333.956610862 -397.575521212,346.048072171 -400.0,359.797974645 -397.575521212,373.547877119 -390.59451277,385.639338427 -379.898987322,394.613949886 -366.778983086,399.389240901 -352.816966203,399.389240901 -339.696961967,394.613949886 -329.001436519,385.639338427 -322.020428078,373.547877119 -319.595949289,359.797974645" stroke="#000" stroke-linecap="round" stroke-linejoin="round"/><polyline fill="none" points="-57.5866164507,-89.766917779 -59.7596804565,-101.391783449 -65.9853881385,-111.446646595 -75.4229231765,-118.573542233 -86.7976941684,-121.809943615 -98.5734752619,-120.718756802 -109.159881969,-115.447352618 -117.127161401,-106.707663409 -121.399288324,-95.6800326312 -121.399288324,-83.8538029267 -117.127161401,-72.8261721487 -109.159881969,-64.0864829399 -98.5734752619,-58.8150787564 -86.7976941684,-57.7238919429 -75.4229231765,-60.9602933251 -65.9853881385,-68.0871889629 -59.7596804565,-78.1420521087 -57.5866164507,-89.766917779" stroke="#000" stroke-linecap="round" stroke-linejoin="round"/><polyline fill="none" points="121.947219107,89.766917779 119.774155101,78.1420521087 113.548447419,68.0871889629 104.110912381,60.9602933251 92.7361413896,57.7238919429 80.960360296,58.8150787564 70.3739535894,64.0864829399 62.4066741567,72.8261721487 58.1345472335,83.8538029267 58.1345472335,95.6800326312 62.4066741567,106.707663409 70.3739535894,115.447352618 80.960360296,120.718756802 92.7361413896,121.809943615 104.110912381,118.573542233 113.548447419,111.446646595 119.774155101,101.391783449 121.947219107,89.766917779" stroke="#000" stroke-linecap="round" stroke-linejoin="round"/><polyline fill="none" points="400.0,371.106988007 397.80065042,360.050111006 391.537432716,350.676543297 382.163865008,344.413325594 371.106988007,342.213976014 360.050111006,344.413325594 350.676543297,350.676543297 344.413325594,360.050111006 342.213976014,371.106988007 344.413325594,382.163865008 350.676543297,391.537432716 360.050111006,397.80065042 371.106988007,400.0 382.163865008,397.80065042 391.537432716,391.537432716 397.80065042,382.163865008 400.0,371.106988007" stroke="#000" stroke-linecap="round" stroke-linejoin="round"/><polyline fill="none" points="-342.213976014,-371.106988007 -344.413325594,-382.163865008 -350.676543297,-391.537432716 -360.050111006,-397.80065042 -371.106988007,-400.0 -382.163865008,-397.80065042 -391.537432716,-391.537432716 -397.80065042,-382.163865008 -400.0,-371.106988007 -397.80065042,-360.050111006 -391.537432716,-350.676543297 -382.163865008,-344.413325594 -371.106988007,-342.213976014 -360.050111006,-344.413325594 -350.676543297,-350.676543297 -344.413325594,-360.050111006 -342.213976014,-371.106988007" stroke="#000" stroke-linecap="round" stroke-linejoin="round"/><polyline fill="none" points="4.87880966609,376.822869075 2.87504141882,367.395880647 -2.78979358938,359.598904159 -11.1361939222,354.78010768 -20.7209911373,353.772704898 -29.8868867213,356.750884907 -37.0490140579,363.199693327 -40.9689762649,372.004072596 -40.9689762649,381.641665554 -37.0490140579,390.446044823 -29.8868867213,396.894853243 -20.7209911373,399.873033252 -11.1361939222,398.86563047 -2.78979358938,394.046833991 2.87504141882,386.249857504 4.87880966609,376.822869075" stroke="#000" stroke-linecap="round" stroke-linejoin="round"/><polyline fill="none" points="-353.64573815,18.2983212588 -355.649506397,8.87133283029 -361.314341406,1.07435634256 -369.660741738,-3.74444013634 -379.245538954,-4.75184291782 -388.411434538,-1.77366290899 -395.573561874,4.6751455107 -399.493524081,13.4795247799 -399.493524081,23.1171177377 -395.573561874,31.9214970069 -388.411434538,38.3703054266 -379.245538954,41.3484854354 -369.660741738,40.341082654 -361.314341406,35.5222861751 -355.649506397,27.7253096873 -353.64573815,18.2983212588" stroke="#000" stroke-linecap="round" stroke-linejoin="round"/><polyline fill="none" points="400.0,-18.2983212588 397.996231753,-27.7253096873 392.331396745,-35.5222861751 383.984996412,-40.341082654 374.400199197,-41.3484854354 365.234303613,-38.3703054266 358.072176276,-31.9214970069 354.152214069,-23.1171177377 354.152214069,-13.4795247799 358.072176276,-4.6751455107 365.234303613,1.77366290899 374.400199197,4.75184291782 383.984996412,3.74444013634 392.331396745,-1.07435634256 397.996231753,-8.87133283029 400.0,-18.2983212588" stroke="#000" stroke-linecap="round" stroke-linejoin="round"/><polyline fill="none" points="41.4754521837,-376.822869075 39.4716839364,-386.249857504 33.8068489282,-394.046833991 25.4604485955,-398.86563047 15.8756513803,-399.873033252 6.70975579636,-396.894853243 -0.452371540284,-390.446044823 -4.37233374727,-381.641665554 -4.37233374727,-372.004072596 -0.452371540285,-363.199693327 6.70975579636,-356.750884907 15.8756513803,-353.772704898 25.4604485955,-354.78010768 33.8068489282,-359.598904159 39.4716839364,-367.395880647 41.4754521837,-376.822869075" stroke="#000" stroke-linecap="round" stroke-linejoin="round"/><polyline fill="none" points="134.095456444,379.234724254 132.300204032,370.788725705 127.224862249,363.803117034 119.747003796,359.485773444 111.159618335,358.583202862 102.947542825,361.251467942 96.5307197269,367.029201411 93.0186760488,374.917380664 93.0186760488,383.552067845 96.5307197269,391.440247097 102.947542825,397.217980567 111.159618335,399.886245647 119.747003796,398.983675065 127.224862249,394.666331474 132.300204032,387.680722804 134.095456444,379.234724254" stroke="#000" stroke-linecap="round" stroke-linejoin="round"/><polyline fill="none" points="-358.469448509,-113.330180698 -360.26470092,-121.776179247 -365.340042703,-128.761787918 -372.817901156,-133.079131509 -381.405286617,-133.981702091 -389.617362127,-131.31343701 -396.034185225,-125.535703541 -399.546228904,-117.647524289 -399.546228904,-109.012837107 -396.034185225,-101.124657855 -389.617362127,-95.3469243857 -381.405286617,-92.6786593056 -372.817901156,-93.5812298874 -365.340042703,-97.898573478 -360.26470092,-104.884182149 -358.469448509,-113.330180698" stroke="#000" stroke-linecap="round" stroke-linejoin="round"/><polyline fill="none" points="400.0,113.330180698 398.204747588,104.884182149 393.129405805,97.898573478 385.651547353,93.5812298874 377.064161891,92.6786593056 368.852086381,95.3469243857 362.435263283,101.124657855 358.923219605,109.012837107 358.923219605,117.647524289 362.435263283,125.535703541 368.852086381,131.31343701 377.064161891,133.981702091 385.651547353,133.079131509 393.129405805,128.761787918 398.204747588,121.776179247 400.0,113.330180698" stroke="#000" stroke-linecap="round" stroke-linejoin="round"/><polyline fill="none" points="-92.5649049523,-379.234724254 -94.3601573638,-387.680722804 -99.4354991471,-394.666331474 -106.9133576,-398.983675065 -115.500743061,-399.886245647 -123.712818571,-397.217980567 -130.129641669,-391.440247097 -133.641685347,-383.552067845 -133.641685347,-374.917380664 -130.129641669,-367.029201411 -123.712818571,-361.251467942 -115.500743061,-358.583202862 -106.9133576,-359.485773444 -99.4354991471,-363.803117034 -94.3601573638,-370.788725705 -92.5649049523,-379.234724254" stroke="#000" stroke-linecap="round" stroke-linejoin="round"/><polyline fill="none" points="-282.842712475,379.898987322 -284.580536327,371.723168903 -289.493522351,364.961023764 -296.732170631,360.781788231 -305.044853118,359.908090095 -312.994231491,362.490999702 -319.205786013,368.083908514 -322.605482475,375.719751789 -322.605482475,384.078222855 -319.205786013,391.71406613 -312.994231491,397.306974943 -305.044853118,399.889884549 -296.732170631,399.016186414 -289.493522351,394.836950881 -284.580536327,388.074805741 -282.842712475,379.898987322" stroke="#000" stroke-linecap="round" stroke-linejoin="round"/><polyline fill="none" points="400.0,-302.943725152 398.262176148,-311.119543571 393.349190124,-317.881688711 386.110541844,-322.060924244 377.797859357,-322.934622379 369.848480984,-320.351712773 363.636926462,-314.75880396 360.237229999,-307.122960685 360.237229999,-298.764489619 363.636926462,-291.128646344 369.848480983,-285.535737532 377.797859357,-282.952827925 386.110541844,-283.826526061 393.349190124,-288.005761594 398.262176148,-294.767906733 400.0,-302.943725152" stroke="#000" stroke-linecap="round" stroke-linejoin="round"/><polyline fill="none" points="323.04473783,-379.898987322 321.306913978,-388.074805741 316.393927954,-394.836950881 309.155279674,-399.016186414 300.842597187,-399.889884549 292.893218813,-397.306974943 286.681664292,-391.71406613 283.281967829,-384.078222855 283.281967829,-375.719751789 286.681664292,-368.083908514 292.893218813,-362.490999702 300.842597187,-359.908090095 309.155279674,-360.781788231 316.393927954,-364.961023764 321.306913978,-371.723168903 323.04473783,-379.898987322" stroke="#000" stroke-linecap="round" stroke-linejoin="round"/><polyline fill="none" points="-359.797974645,302.943725152 -361.535798497,294.767906733 -366.448784521,288.005761594 -373.687432801,283.826526061 -382.000115288,282.952827925 -389.949493661,285.535737532 -396.161048183,291.128646344 -399.560744645,298.764489619 -399.560744645,307.122960685 -396.161048183,314.75880396 -389.949493661,320.351712773 -382.000115288,322.934622379 -373.687432801,322.060924244 -366.448784521,317.881688711 -361.535798497,311.119543571 -359.797974645,302.943725152" stroke="#000" stroke-linecap="round" stroke-linejoin="round"/><polyline fill="none" points="71.1337469008,285.171770536 69.5092369636,278.054327457 64.9574612683,272.346581269 58.3799548153,269.179021106 51.0794734254,269.179021106 44.5019669723,272.346581269 39.950191277,278.054327457 38.3256813398,285.171770536 39.950191277,292.289213616 44.5019669723,297.996959804 51.0794734254,301.164519967 58.3799548153,301.164519967 64.9574612683,297.996959804 69.5092369636,292.289213616 71.1337469008,285.171770536" stroke="#000" stroke-linecap="round" stroke-linejoin="round"/><polyline fill="none" points="-268.767737756,-54.7297141203 -270.392247693,-61.8471571997 -274.944023388,-67.5549033876 -281.521529841,-70.7224635504 -288.822011231,-70.7224635504 -295.399517684,-67.5549033876 -299.95129338,-61.8471571997 -301.575803317,-54.7297141203 -299.95129338,-47.6122710409 -295.399517684,-41.9045248531 -288.822011231,-38.7369646903 -281.521529841,-38.7369646903 -274.944023388,-41.9045248531 -270.392247693,-47.6122710409 -268.767737756,-54.7297141203" stroke="#000" stroke-linecap="round" stroke-linejoin="round"/><polyline fill="none" points="301.575803317,54.7297141203 299.95129338,47.6122710409 295.399517684,41.9045248531 288.822011231,38.7369646903 281.521529841,38.7369646903 274.944023388,41.9045248531 270.392247693,47.6122710409 268.767737756,54.7297141203 270.392247693,61.8471571997 274.944023388,67.5549033876 281.521529841,70.7224635504 288.822011231,70.7224635504 295.399517684,67.5549033876 299.95129338,61.8471571997 301.575803317,54.7297141203" stroke="#000" stroke-linecap="round" stroke-linejoin="round"/><line fill="none" stroke="none" stroke-linecap="round" stroke-width="2.0" x1="0.0" x2="0.0" y1="0.0" y2="0.0"/></svg>