<?xml version="1.0" ?><!DOCTYPE svg  PUBLIC '-//W3C//DTD SVG 1.1//EN'  'http://www.w3.org/Graphics/SVG/1.1/DTD/svg11.dtd'><svg height="824.000" viewBox="-412.000 -412.000 824.000 824.000" width="824.000" xmlns="http://www.w3.org/2000/svg"><line fill="none" stroke="none" stroke-linecap="round" stroke-width="2.0" x1="0.0" x2="0.0" y1="0.0" y2="0.0"/><polygon fill="none" fill-rule="evenodd" points="0.0,0.0 0.0,0.0 0.0,0.0" stroke-linejoin="round"/><polyline fill="none" points="-400.0,-400.0 400.0,-400.0 400.0,400.0 -400.0,400.0 -400.0,-400.0" stroke="#000" stroke-linecap="round" stroke-linejoin="round"/><polygon fill="#000" fill-rule="evenodd" points="4.0,0.0 3.46410161514,-2.0 2.0,-3.46410161514 4.65405491923e-13,-4.0 -2.0,-3.46410161514 -3.46410161514,-2.0 -4.0,-5.51114709424e-13 -3.46410161514,2.0 -2.0,3.46410161514 -8.70414851306e-14,4.0 2.0,3.46410161514 3.46410161514,2.0 4.0,3.77475828373e-15" stroke-linejoin="round"/><polyline fill="none" points="4.0,0.0 3.46410161514,-2.0 2.0,-3.46410161514 4.65405491923e-13,-4.0 -2.0,-3.46410161514 -3.46410161514,-2.0 -4.0,-5.51114709424e-13 -3.46410161514,2.0 -2.0,3.46410161514 -8.70414851306e-14,4.0 2.0,3.46410161514 3.46410161514,2.0 4.0,3.77475828373e-15" stroke="#000" stroke-linecap="round" stroke-linejoin="round"/><polygon fill="#000" fill-rule="evenodd" points="204.0,-200.0 203.464101615,-202.0 202.0,-203.464101615 200.0,-204.0 198.0,-203.464101615 196.535898385,-202.0 196.0,-200.0 196.535898385,-198.0 198.0,-196.535898385 200.0,-196.0 202.0,-196.535898385 203.464101615,-198.0 204.0,-200.0" stroke-linejoin="round"/><polyline fill="none" points="204.0,-200.0 203.464101615,-202.0 202.0,-203.464101615 200.0,-204.0 198.0,-203.464101615 196.535898385,-202.0 196.0,-200.0 196.535898385,-198.0 198.0,-196.535898385 200.0,-196.0 202.0,-196.535898385 203.464101615,-198.0 204.0,-200.0" stroke="#000" stroke-linecap="round" stroke-linejoin="round"/><polygon fill="#000" fill-rule="evenodd" points="-236.0,200.0 -236.535898385,198.0 -238.0,196.535898385 -240.0,196.0 -242.0,196.535898385 -243.464101615,198.0 -244.0,200.0 -243.464101615,202.0 -242.0,203.464101615 -240.0,204.0 -238.0,203.464101615 -236.535898385,202.0 -236.0,200.0" stroke-linejoin="round"/><polyline fill="none" points="-236.0,200.0 -236.535898385,198.0 -238.0,196.535898385 -240.0,196.0 -242.0,196.535898385 -243.464101615,198.0 -244.0,200.0 -243.464101615,202.0 -242.0,203.464101615 -240.0,204.0 -238.0,203.464101615 -236.535898385,202.0 -236.0,200.0" stroke="#000" stroke-linecap="round" stroke-linejoin="round"/><polygon fill="#000" fill-rule="evenodd" points="-196.0,-200.0 -196.535898385,-202.0 -198.0,-203.464101615 -200.0,-204.0 -202.0,-203.464101615 -203.464101615,-202.0 -204.0,-200.0 -203.464101615,-198.0 -202.0,-196.535898385 -200.0,-196.0 -198.0,-196.535898385 -196.535898385,-198.0 -196.0,-200.0" stroke-linejoin="round"/><polyline fill="none" points="-196.0,-200.0 -196.535898385,-202.0 -198.0,-203.464101615 -200.0,-204.0 -202.0,-203.464101615 -203.464101615,-202.0 -204.0,-200.0 -203.464101615,-198.0 -202.0,-196.535898385 -200.0,-196.0 -198.0,-196.535898385 -196.535898385,-198.0 -196.0,-200.0" stroke="#000" stroke-linecap="round" stroke-linejoin="round"/><polygon fill="#000" fill-rule="evenodd" points="124.0,280.0 123.464101615,278.0 122.0,276.535898385 120.0,276.0 118.0,276.535898385 116.535898385,278.0 116.0,280.0 116.535898385,282.0 118.0,283.464101615 120.0,284.0 122.0,283.464101615 123.464101615,282.0 124.0,280.0" stroke-linejoin="round"/><polyline fill="none" points="124.0,280.0 123.464101615,278.0 122.0,276.535898385 120.0,276.0 118.0,276.535898385 116.535898385,278.0 116.0,280.0 116.535898385,282.0 118.0,283.464101615 120.0,284.0 122.0,283.464101615 123.464101615,282.0 124.0,280.0" stroke="#000" stroke-linecap="round" stroke-linejoin="round"/><polyline fill="none" points="400.0,83.7582761561 398.055511371,55.3308586389 392.258267628,27.4329901233 382.716260454,0.58435511494 369.607239388,-24.7149071155 353.175400688,-47.9935191807 333.726838421,-68.8178445828 311.623842502,-86.7999655406 287.278149926,-101.604909164 261.14327488,-112.956887366 233.706060639,-120.644434271 205.47761059,-124.524345425 176.983767348,-124.524345425 148.755317299,-120.644434271 121.318103058,-112.956887366 95.1832280127,-101.604909164 70.8375354363,-86.7999655407 48.7345395176,-68.8178445828 29.2859772501,-47.9935191808 12.8541385507,-24.7149071155 -0.254882515717,0.584355114912 -9.79688969001,27.4329901232 -15.5941334327,55.3308586388 -17.5386220616,83.758276156 -15.5941334327,112.185693673 -9.79688969002,140.083562189 -0.254882515729,166.932197197 12.8541385507,192.231459428 29.28597725,215.510071493 48.7345395176,236.334396895 70.8375354363,254.316517853 95.1832280127,269.121461476 121.318103058,280.473439678 148.755317299,288.160986583 176.983767348,292.040897737 205.47761059,292.040897737 233.706060639,288.160986583 261.14327488,280.473439678 287.278149926,269.121461476 311.623842502,254.316517853 333.726838421,236.334396895 353.175400688,215.510071493 369.607239388,192.231459428" stroke="#000" stroke-linecap="round" stroke-linejoin="round"/><polyline fill="none" points="369.607239388,192.231459428 382.716260454,166.932197197 392.258267628,140.083562189 398.055511371,112.185693673 400.0,83.7582761561" stroke="#000" stroke-linecap="round" stroke-linejoin="round"/><polyline fill="none" points="-7.91256094546,-3.99620460076 -9.90800333855,-31.8961348398 -15.8537090651,-59.2281029559 -25.6286407024,-85.4357088971 -39.033808831,-109.985441383 -55.7963228852,-132.377538656 -75.5749464177,-152.156162188 -97.9670436905,-168.918676242 -122.516776176,-182.323844371 -148.724382118,-192.098776008 -176.056350234,-198.044481735 -203.956280473,-200.039924128 -231.856210712,-198.044481735 -259.188178828,-192.098776008 -285.395784769,-182.323844371 -309.945517255,-168.918676242 -332.337614528,-152.156162188 -352.11623806,-132.377538656 -368.878752114,-109.985441383 -382.283920243,-85.4357088971 -392.05885188,-59.2281029559 -398.004557607,-31.8961348398 -400.0,-3.99620460079 -398.004557607,23.9037256382 -392.05885188,51.2356937543 -382.283920243,77.4432996956 -368.878752114,101.993032181 -352.11623806,124.385129454 -332.337614528,144.163752987 -309.945517255,160.926267041 -285.395784769,174.33143517 -259.188178828,184.106366807 -231.856210712,190.052072533 -203.956280473,192.047514926 -176.056350234,190.052072533 -148.724382118,184.106366807 -122.516776176,174.33143517 -97.9670436905,160.926267041 -75.5749464177,144.163752987 -55.7963228852,124.385129454 -39.0338088311,101.993032181 -25.6286407024,77.4432996956 -15.8537090651,51.2356937544" stroke="#000" stroke-linecap="round" stroke-linejoin="round"/><polyline fill="none" points="-15.8537090651,51.2356937544 -9.90800333855,23.9037256383 -7.91256094546,-3.99620460076" stroke="#000" stroke-linecap="round" stroke-linejoin="round"/><polyline fill="none" points="198.69548273,-247.270047616 196.498601402,-273.081534857 189.971157695,-298.150472604 179.300934279,-321.755673163 164.794894056,-343.21805789 146.87034939,-361.920193053 126.042956798,-377.324052276 102.911882443,-388.986494573 78.1425652206,-396.572012713 52.4475732892,-399.862385151 26.5661047841,-398.762953863 1.24272243194,-393.305347484 -22.7940661631,-383.646571414 -44.8527663569,-370.064491054 -64.298789507,-352.949838128 -80.5727089326,-332.794970039 -93.2063536019,-310.179705647 -101.83627656,-285.754644933 -106.214210635,-260.222452423 -106.214210635,-234.317642809 -101.83627656,-208.785450299 -93.2063536019,-184.360389585 -80.5727089327,-161.745125193 -64.298789507,-141.590257105 -44.8527663569,-124.475604179 -22.7940661631,-110.893523819 1.24272243192,-101.234747748 26.566104784,-95.7771413696 52.4475732891,-94.677710081 78.1425652206,-97.9680825192 102.911882443,-105.55360066 126.042956798,-117.216042957 146.87034939,-132.619902179 164.794894056,-151.322037343 179.300934279,-172.78442207 189.971157695,-196.389622628 196.498601402,-221.458560376 198.69548273,-247.270047616" stroke="#000" stroke-linecap="round" stroke-linejoin="round"/><polyline fill="none" points="48.5859323702,281.133705606 46.1527323409,257.206096456 38.952747748,234.258086436 27.2807468066,213.229169773 11.6145826069,194.980272785 -7.40437024833,180.258507459 -28.9974735944,169.666584598 -52.2807032433,163.638138768 -76.3008410376,162.419975249 -100.074499714,166.061965799 -122.628382892,174.415006897 -143.039131945,187.13712406 -160.471128409,203.707472315 -174.210704301,223.447659658 -183.695359768,245.5495205 -188.536791901,269.108202061 -188.536791901,293.159209151 -183.695359768,316.717890712 -174.210704301,338.819751554 -160.471128409,358.559938897 -143.039131945,375.130287152 -122.628382892,387.852404315 -100.074499714,396.205445413 -76.3008410376,399.847435964 -52.2807032434,398.629272445 -28.9974735944,392.600826614 -7.40437024834,382.008903753 11.6145826069,367.287138427 27.2807468066,349.038241439 38.952747748,328.009324776 46.1527323409,305.061314756 48.5859323702,281.133705606" stroke="#000" stroke-linecap="round" stroke-linejoin="round"/><polyline fill="none" points="-186.562977392,-293.281488696 -189.057996881,-316.22281405 -196.426391012,-338.091428527 -208.323621864,-357.864780021 -224.193388145,-374.618288592 -243.293637222,-387.568578798 -264.731262676,-396.110109465 -287.503864968,-399.843488109 -310.546622524,-398.594146097 -332.782081611,-392.420501271 -353.170536874,-381.611226402 -370.758646807,-366.671751169 -384.724010937,-348.300628831 -394.413624357,-327.356872649 -399.374411514,-304.819789386 -399.374411514,-281.743188006 -394.413624357,-259.206104743 -384.724010937,-238.262348561 -370.758646807,-219.891226222 -353.170536874,-204.95175099 -332.782081611,-194.142476121 -310.546622524,-187.968831295 -287.503864968,-186.719489282 -264.731262676,-190.452867927 -243.293637222,-198.994398593 -224.193388145,-211.9446888 -208.323621864,-228.698197371 -196.426391012,-248.471548864 -189.057996881,-270.340163342 -186.562977392,-293.281488696" stroke="#000" stroke-linecap="round" stroke-linejoin="round"/><polyline fill="none" points="-188.755635449,294.377817724 -191.225023375,271.672170705 -198.517721319,250.028214504 -210.29273083,230.457996459 -225.99946555,213.876598214 -244.903496021,201.059347523 -266.120890788,192.605564783 -288.659548054,188.910539478 -311.465585253,190.147046886 -333.472617435,196.257269294 -353.651620233,206.955499494 -371.059045904,221.741500131 -384.88094257,239.923894249 -394.471013705,260.652493308 -399.380838242,282.958051053 -399.380838242,305.797584396 -394.471013705,328.103142141 -384.88094257,348.8317412 -371.059045904,367.014135318 -353.651620233,381.800135955 -333.472617435,392.498366155 -311.465585253,398.608588563 -288.659548054,399.84509597 -266.120890788,396.150070666 -244.903496021,387.696287926 -225.99946555,374.879037235 -210.29273083,358.29763899 -198.517721319,338.727420945 -191.225023375,317.083464744 -188.755635449,294.377817724" stroke="#000" stroke-linecap="round" stroke-linejoin="round"/><polyline fill="none" points="400.0,-296.915927595 397.589951672,-319.075956019 390.472497869,-340.199806142 378.980442821,-359.299750212 363.65114225,-375.48269607 345.201377211,-387.991947155 324.493838215,-396.24258479 302.496786768,-399.848818327 280.238780549,-398.642024296 258.76057919,-392.678631043 239.066479517,-382.23748021 222.07735574,-367.806788404 208.587600407,-350.061318737 199.227979482,-329.830829647 194.43613844,-308.061276319 194.43613844,-285.770578872 199.227979482,-264.001025544 208.587600407,-243.770536454 222.07735574,-226.025066786 239.066479517,-211.594374981 258.76057919,-201.153224147 280.238780549,-195.189830895 302.496786768,-193.983036863 324.493838215,-197.589270401 345.201377211,-205.839908035 363.65114225,-218.34915912 378.980442821,-234.532104979 390.472497869,-253.632049048 397.589951672,-274.755899172 400.0,-296.915927595" stroke="#000" stroke-linecap="round" stroke-linejoin="round"/><polyline fill="none" points="400.0,328.356171844 397.343252507,309.026898334 389.570048836,291.131188615 377.256891944,275.996285609 361.316992348,264.744675834 342.93253948,258.210839716 323.467024108,256.879361987 304.364114457,260.848992262 287.040585945,269.82532122 272.781245434,283.142615609 262.643642976,299.813192626 257.37963817,318.600671836 257.37963817,338.111671852 262.643642976,356.899151062 272.781245434,373.569728079 287.040585945,386.887022467 304.364114457,395.863351426 323.467024108,399.8329817 342.93253948,398.501503972 361.316992348,391.967667853 377.256891944,380.716058079 389.570048836,365.581155073 397.343252507,347.685445354 400.0,328.356171844" stroke="#000" stroke-linecap="round" stroke-linejoin="round"/><polyline fill="none" points="162.293475954,338.469239028 159.801047796,321.134020415 152.525685028,305.203198118 141.056794273,291.967392614 126.323516852,282.49889015 109.519455279,277.564772483 92.0059746861,277.564772483 75.2019131135,282.49889015 60.4686356925,291.967392614 48.9997449374,305.203198118 41.7243821691,321.134020415 39.2319540109,338.469239028 41.7243821691,355.804457641 48.9997449374,371.735279939 60.4686356925,384.971085442 75.2019131135,394.439587907 92.0059746861,399.373705573 109.519455279,399.373705573 126.323516852,394.439587907 141.056794273,384.971085442 152.525685028,371.735279939 159.801047796,355.804457641 162.293475954,338.469239028" stroke="#000" stroke-linecap="round" stroke-linejoin="round"/><polyline fill="none" points="400.0,-139.814235982 397.340750719,-157.457202177 389.599288844,-173.532513401 377.463477236,-186.611807706 362.011636013,-195.532932395 344.616729078,-199.503206391 326.824370247,-198.169853425 310.215488683,-191.65134776 296.265856401,-180.52688723 286.214959444,-165.784928972 280.955864117,-148.735360671 280.955864117,-130.893111292 286.214959444,-113.843542992 296.265856401,-99.101584734 310.215488683,-87.977124204 326.824370247,-81.4586185389 344.616729078,-80.125265573 362.011636013,-84.0955395687 377.463477236,-93.0166642582 389.599288844,-106.095958563 397.340750719,-122.171269787 400.0,-139.814235982" stroke="#000" stroke-linecap="round" stroke-linejoin="round"/><polyline fill="none" points="-82.927312331,-344.108380821 -85.4104201512,-360.58272478 -92.6391085849,-375.593250982 -103.971076942,-387.806208301 -118.399430105,-396.136421884 -134.642145578,-399.843715697 -151.25598681,-398.598680416 -166.764741099,-392.511942889 -179.790387568,-382.124336457 -189.175540366,-368.358845536 -194.086287481,-352.438594404 -194.086287481,-335.778167239 -189.175540366,-319.857916107 -179.790387568,-306.092425186 -166.764741099,-295.704818754 -151.25598681,-289.618081227 -134.642145578,-288.373045946 -118.399430105,-292.080339759 -103.971076942,-300.410553341 -92.6391085849,-312.62351066 -85.4104201512,-327.634036862 -82.927312331,-344.108380821" stroke="#000" stroke-linecap="round" stroke-linejoin="round"/><polyline fill="none" points="258.921962932,351.310461788 256.538927312,336.264567033 249.623088582,322.691469287 238.851417222,311.919797927 225.278319476,305.003959197 210.23242472,302.620923577 195.186529965,305.003959197 181.613432219,311.919797927 170.841760859,322.691469287 163.925922129,336.264567033 161.542886509,351.310461788 163.925922129,366.356356544 170.841760859,379.92945429 181.613432219,390.70112565 195.186529965,397.61696438 210.23242472,400.0 225.278319476,397.61696438 238.851417222,390.70112565 249.623088582,379.92945429 256.538927312,366.356356544 258.921962932,351.310461788" stroke="#000" stroke-linecap="round" stroke-linejoin="round"/><polyline fill="none" points="-106.601033145,-239.234273542 -109.037036237,-253.832439742 -116.081066778,-266.848668119 -126.96979476,-276.872448363 -140.52325755,-282.817548349 -155.272727151,-284.039724245 -169.619869671,-280.406534329 -182.009949598,-272.311691103 -191.10030952,-260.632396436 -195.905867889,-246.634283127 -195.905867889,-231.834263957 -191.10030952,-217.836150648 -182.009949598,-206.156855981 -169.619869671,-198.062012756 -155.272727151,-194.42882284 -140.52325755,-195.650998736 -126.96979476,-201.596098722 -116.081066778,-211.619878965 -109.037036237,-224.636107343 -106.601033145,-239.234273542" stroke="#000" stroke-linecap="round" stroke-linejoin="round"/><polyline fill="none" points="272.877679401,-166.403884131 270.483742614,-180.749960791 263.561352448,-193.541417443 252.86065729,-203.392101278 239.541243498,-209.234537854 225.04647623,-210.435608513 210.947088428,-206.865158613 198.770967535,-198.910101801 189.837585181,-187.432491919 185.115011961,-173.67610609 185.115011961,-159.131662172 189.837585181,-145.375276343 198.770967535,-133.89766646 210.947088428,-125.942609648 225.04647623,-122.372159748 239.541243498,-123.573230407 252.86065729,-129.415666983 263.561352448,-139.266350818 270.483742614,-152.05780747 272.877679401,-166.403884131" stroke="#000" stroke-linecap="round" stroke-linejoin="round"/><polyline fill="none" points="-324.4844075,168.075627121 -326.761481237,155.161700236 -333.318053748,143.805383522 -343.363305625,135.376416377 -355.685631239,130.891456637 -368.798776262,130.891456637 -381.121101875,135.376416377 -391.166353752,143.805383522 -397.722926263,155.161700236 -400.0,168.075627121 -397.722926263,180.989554006 -391.166353752,192.345870719 -381.121101875,200.774837864 -368.798776262,205.259797604 -355.685631239,205.259797604 -343.363305625,200.774837864 -333.318053748,192.345870719 -326.761481237,180.989554006 -324.4844075,168.075627121" stroke="#000" stroke-linecap="round" stroke-linejoin="round"/><polyline fill="none" points="-329.32494987,-170.461814895 -331.711214156,-183.227201329 -338.547728799,-194.268551589 -348.911184615,-202.094670141 -361.40193947,-205.648596308 -374.333047706,-204.450352669 -385.958091503,-198.661768667 -394.70704428,-189.064624646 -399.398311483,-176.955068087 -399.398311483,-163.968561704 -394.70704428,-151.859005144 -385.958091503,-142.261861124 -374.333047706,-136.473277121 -361.40193947,-135.275033482 -348.911184615,-138.828959649 -338.547728799,-146.655078201 -331.711214156,-157.696428462 -329.32494987,-170.461814895" stroke="#000" stroke-linecap="round" stroke-linejoin="round"/><polyline fill="none" points="214.800821285,-368.932259675 212.702886043,-380.155221955 206.692418098,-389.86246099 197.58116445,-396.742960359 186.599650392,-399.867470497 175.230990248,-398.814008995 165.010584566,-393.724851667 157.318755767,-385.28731741 153.194327952,-374.640941979 153.194327952,-363.22357737 157.318755767,-352.57720194 165.010584566,-344.139667683 175.230990248,-339.050510355 186.599650392,-337.997048853 197.58116445,-341.12155899 206.692418098,-348.00205836 212.702886043,-357.709297395 214.800821285,-368.932259675" stroke="#000" stroke-linecap="round" stroke-linejoin="round"/><polyline fill="none" points="400.0,237.999985512 397.831404977,227.097722112 391.655768843,217.855229485 382.413276216,211.679593351 371.511012817,209.510998329 360.608749417,211.679593351 351.36625679,217.855229485 345.190620656,227.097722112 343.022025633,237.999985512 345.190620656,248.902248912 351.36625679,258.144741539 360.608749417,264.320377673 371.511012817,266.488972696 382.413276216,264.320377673 391.655768843,258.144741539 397.831404977,248.902248912 400.0,237.999985512" stroke="#000" stroke-linecap="round" stroke-linejoin="round"/><polyline fill="none" points="38.8552617763,-69.7312826635 36.7005150389,-80.563926032 30.5643154845,-89.7473976459 21.3808438707,-95.8835972002 10.5482005021,-98.0383439376 -0.284442866427,-95.8835972002 -9.46791448028,-89.7473976459 -15.6041140346,-80.563926032 -17.758860772,-69.7312826635 -15.6041140346,-58.8986392949 -9.46791448028,-49.7151676811 -0.284442866432,-43.5789681267 10.5482005021,-41.4242213893 21.3808438707,-43.5789681267 30.5643154845,-49.7151676811 36.7005150388,-58.8986392949 38.8552617763,-69.7312826635" stroke="#000" stroke-linecap="round" stroke-linejoin="round"/><polyline fill="none" points="-157.64946731,372.012235545 -159.779909024,361.301781779 -165.846893728,352.221897509 -174.926777999,346.154912805 -185.637231765,344.024471091 -196.34768553,346.154912805 -205.427569801,352.221897509 -211.494554505,361.301781779 -213.624996219,372.012235545 -211.494554505,382.722689311 -205.427569801,391.802573581 -196.34768553,397.869558286 -185.637231765,400.0 -174.926777999,397.869558286 -165.846893728,391.802573581 -159.779909024,382.722689311 -157.64946731,372.012235545" stroke="#000" stroke-linecap="round" stroke-linejoin="round"/><polyline fill="none" points="-10.5009035641,140.761783465 -12.4500139892,130.962943651 -18.000610871,122.655888371 -26.3076661505,117.105291489 -36.106505965,115.156181064 -45.9053457795,117.105291489 -54.212401059,122.655888371 -59.7629979408,130.962943651 -61.7121083658,140.761783465 -59.7629979408,150.56062328 -54.212401059,158.867678559 -45.9053457795,164.418275441 -36.106505965,166.367385866 -26.3076661505,164.418275441 -18.000610871,158.867678559 -12.4500139892,150.56062328 -10.5009035641,140.761783465" stroke="#000" stroke-linecap="round" stroke-linejoin="round"/><polyline fill="none" points="400.0,-61.8485518481 398.067416446,-71.564305473 392.56388411,-79.8009236821 384.3272659,-85.3044560181 374.611512276,-87.2370395726 364.895758651,-85.3044560181 356.659140441,-79.8009236821 351.155608105,-71.564305473 349.223024551,-61.8485518481 351.155608105,-52.1327982231 356.659140441,-43.896180014 364.895758651,-38.392647678 374.611512276,-36.4600641236 384.3272659,-38.392647678 392.56388411,-43.896180014 398.067416446,-52.1327982231 400.0,-61.8485518481" stroke="#000" stroke-linecap="round" stroke-linejoin="round"/><polyline fill="none" points="-172.277598187,214.201538388 -174.210134851,205.109668209 -179.673591699,197.58986498 -187.723287407,192.942370996 -196.967356458,191.970780188 -205.807415334,194.843089432 -212.714937545,201.062650367 -216.495549748,209.554044404 -216.495549748,218.849032372 -212.714937545,227.340426409 -205.807415334,233.559987344 -196.967356458,236.432296588 -187.723287407,235.46070578 -179.673591699,230.813211796 -174.210134851,223.293408567 -172.277598187,214.201538388" stroke="#000" stroke-linecap="round" stroke-linejoin="round"/><polyline fill="none" points="-47.470877014,-378.301491053 -49.3468116748,-387.127069742 -54.6502495121,-394.426625698 -62.4641779435,-398.937999381 -71.4374977561,-399.881133298 -80.018640434,-397.092951025 -86.7238484512,-391.055554609 -90.3937304264,-382.812864737 -90.3937304264,-373.79011737 -86.7238484512,-365.547427498 -80.018640434,-359.510031081 -71.4374977561,-356.721848809 -62.4641779436,-357.664982726 -54.6502495121,-362.176356409 -49.3468116748,-369.475912365 -47.470877014,-378.301491053" stroke="#000" stroke-linecap="round" stroke-linejoin="round"/><polyline fill="none" points="50.0048686471,379.188678599 48.2056353795,370.723951595 43.1190393543,363.722852789 35.6245992345,359.395935768 27.0181718016,358.491363794 18.7878865458,361.16554558 12.3568345576,366.956090799 8.83700314991,374.861761579 8.8370031499,383.51559562 12.3568345576,391.421266399 18.7878865458,397.211811619 27.0181718016,399.885993404 35.6245992345,398.98142143 43.1190393543,394.65450441 48.2056353795,387.653405604 50.0048686471,379.188678599" stroke="#000" stroke-linecap="round" stroke-linejoin="round"/><polyline fill="none" points="400.0,-207.755306319 398.333204077,-215.596964607 393.621020464,-222.082728937 386.678228518,-226.091151736 378.705300038,-226.929140287 371.080826792,-224.451798756 365.123149469,-219.087481999 361.862404602,-211.763729118 361.862404602,-203.74688352 365.123149469,-196.423130639 371.080826792,-191.058813883 378.705300038,-188.581472351 386.678228518,-189.419460902 393.621020464,-193.427883701 398.333204077,-199.913648032 400.0,-207.755306319" stroke="#000" stroke-linecap="round" stroke-linejoin="round"/><polyline fill="none" points="-184.858320534,-381.188318562 -186.484675844,-388.839718721 -191.082530165,-395.168122281 -197.856872715,-399.079290776 -205.636358125,-399.896947641 -213.075842691,-397.479712575 -218.888971949,-392.245547482 -222.070603037,-385.099487057 -222.070603037,-377.277150067 -218.888971949,-370.131089642 -213.075842691,-364.896924549 -205.636358125,-362.479689483 -197.856872715,-363.297346348 -191.082530165,-367.208514843 -186.484675844,-373.536918403 -184.858320534,-381.188318562" stroke="#000" stroke-linecap="round" stroke-linejoin="round"/><polyline fill="none" points="-363.379996345,-381.689998173 -364.962979174,-389.137346851 -369.438215548,-395.296981285 -376.031896441,-399.103844724 -383.603914526,-399.899695894 -390.844999086,-397.546924898 -396.503100818,-392.452347216 -399.59988253,-385.496861612 -399.59988253,-377.883134734 -396.503100818,-370.927649129 -390.844999086,-365.833071447 -383.603914526,-363.480300451 -376.031896441,-364.276151622 -369.438215548,-368.08301506 -364.962979174,-374.242649495 -363.379996345,-381.689998173" stroke="#000" stroke-linecap="round" stroke-linejoin="round"/><polyline fill="none" points="-363.52468639,115.592725916 -365.101414663,108.174802609 -369.558968838,102.039505632 -376.126597305,98.2476835693 -383.668697434,97.4549769029 -390.881171597,99.7984518171 -396.516917488,104.872900209 -399.601463442,111.800903853 -399.601463442,119.384547979 -396.516917488,126.312551622 -390.881171597,131.387000014 -383.668697434,133.730474929 -376.126597305,132.937768262 -369.558968838,129.145946199 -365.101414663,123.010649222 -363.52468639,115.592725916" stroke="#000" stroke-linecap="round" stroke-linejoin="round"/><line fill="none" stroke="none" stroke-linecap="round" stroke-width="2.0" x1="0.0" x2="0.0" y1="0.0" y2="0.0"/></svg>