<?xml version="1.0" ?><!DOCTYPE svg  PUBLIC '-//W3C//DTD SVG 1.1//EN'  'http://www.w3.org/Graphics/SVG/1.1/DTD/svg11.dtd'><svg height="824.000" viewBox="-412.000 -412.000 824.000 824.000" width="824.000" xmlns="http://www.w3.org/2000/svg"><line fill="none" stroke="none" stroke-linecap="round" stroke-width="2.0" x1="0.0" x2="0.0" y1="0.0" y2="0.0"/><polygon fill="#000" fill-rule="evenodd" points="0.0,-0.0 -9.0,-5.0 -7.0,-0.0 -9.0,5.0" stroke="#000" stroke-linejoin="round"/><polyline fill="none" points="-400.0,-400.0 400.0,-400.0 400.0,400.0 -400.0,400.0 -400.0,-400.0" stroke="#000" stroke-linecap="round" stroke-linejoin="round"/><polyline fill="none" points="400.0,0.0 397.808758147,-41.8113853071 391.259040294,-83.1646763271 380.422606518,-123.60679775 365.418183057,-162.69465723 346.410161514,-200.0 323.60679775,-235.114100917 297.257930191,-267.652242544 267.652242544,-297.257930191 235.114100917,-323.60679775 200.0,-346.410161514 162.69465723,-365.418183057 123.60679775,-380.422606518 83.1646763271,-391.259040294 41.8113853071,-397.808758147 6.91358081895e-12,-400.0 -41.8113853071,-397.808758147 -83.1646763271,-391.259040294 -123.60679775,-380.422606518 -162.69465723,-365.418183057 -200.0,-346.410161514 -235.114100917,-323.60679775 -267.652242544,-297.257930191 -297.257930191,-267.652242544 -323.60679775,-235.114100917 -346.410161514,-200.0 -365.418183057,-162.69465723 -380.422606518,-123.60679775 -391.259040294,-83.1646763271 -397.808758147,-41.8113853071 -400.0,-5.00222085975e-12 -397.808758147,41.8113853071 -391.259040294,83.1646763271 -380.422606518,123.60679775 -365.418183057,162.69465723 -346.410161514,200.0 -323.60679775,235.114100917 -297.257930191,267.652242544 -267.652242544,297.257930191 -235.114100917,323.60679775 -200.0,346.410161514 -162.69465723,365.418183057 -123.60679775,380.422606518" stroke="#000" stroke-linecap="round" stroke-linejoin="round"/><polyline fill="none" points="-123.60679775,380.422606518 -83.1646763271,391.259040294 -41.8113853071,397.808758147 1.65556457432e-12,400.0 41.8113853071,397.808758147 83.1646763271,391.259040294 123.60679775,380.422606518 162.69465723,365.418183057 200.0,346.410161514 235.114100917,323.60679775 267.652242544,297.257930191 297.257930191,267.652242544 323.60679775,235.114100917 346.410161514,200.0 365.418183057,162.69465723 380.422606518,123.60679775 391.259040294,83.1646763271 397.808758147,41.8113853071 400.0,1.70530256582e-13" stroke="#000" stroke-linecap="round" stroke-linejoin="round"/><polyline fill="none" points="400.0,331.370849898 397.455044947,312.854926794 390.008927463,295.712245001 378.213892017,281.214198806 362.944722429,270.436041972 345.333863157,264.177141083 326.687431068,262.901690186 308.388346729,266.70428364 291.793769511,275.302900483 278.134443293,288.05982064 268.423417813,304.028921703 263.380915404,322.025848499 263.380915404,340.715851298 268.423417813,358.712778094 278.134443293,374.681879157 291.793769511,387.438799314 308.388346729,396.037416157 326.687431068,399.840009611 345.333863157,398.564558714 362.944722429,392.305657825 378.213892017,381.527500991 390.008927463,367.029454796 397.455044947,349.886773003 400.0,331.370849898" stroke="#000" stroke-linecap="round" stroke-linejoin="round"/><polyline fill="none" points="400.0,-331.370849898 397.455044947,-349.886773003 390.008927463,-367.029454796 378.213892017,-381.527500991 362.944722429,-392.305657825 345.333863157,-398.564558714 326.687431068,-399.840009611 308.388346729,-396.037416157 291.793769511,-387.438799314 278.134443293,-374.681879157 268.423417813,-358.712778094 263.380915404,-340.715851298 263.380915404,-322.025848499 268.423417813,-304.028921703 278.134443293,-288.05982064 291.793769511,-275.302900483 308.388346729,-266.70428364 326.687431068,-262.901690186 345.333863157,-264.177141083 362.944722429,-270.436041972 378.213892017,-281.214198806 390.008927463,-295.712245001 397.455044947,-312.854926794 400.0,-331.370849898" stroke="#000" stroke-linecap="round" stroke-linejoin="round"/><polyline fill="none" points="-262.741699797,-331.370849898 -265.28665485,-349.886773003 -272.732772334,-367.029454796 -284.52780778,-381.527500991 -299.796977368,-392.305657825 -317.40783664,-398.564558714 -336.054268729,-399.840009611 -354.353353068,-396.037416157 -370.947930285,-387.438799314 -384.607256504,-374.681879157 -394.318281984,-358.712778094 -399.360784392,-340.715851298 -399.360784392,-322.025848499 -394.318281984,-304.028921703 -384.607256504,-288.05982064 -370.947930285,-275.302900483 -354.353353068,-266.70428364 -336.054268729,-262.901690186 -317.40783664,-264.177141083 -299.796977368,-270.436041972 -284.52780778,-281.214198806 -272.732772334,-295.712245001 -265.28665485,-312.854926794 -262.741699797,-331.370849898" stroke="#000" stroke-linecap="round" stroke-linejoin="round"/><polyline fill="none" points="-262.741699797,331.370849898 -265.28665485,312.854926794 -272.732772334,295.712245001 -284.52780778,281.214198806 -299.796977368,270.436041972 -317.40783664,264.177141083 -336.054268729,262.901690186 -354.353353068,266.70428364 -370.947930285,275.302900483 -384.607256504,288.05982064 -394.318281984,304.028921703 -399.360784392,322.025848499 -399.360784392,340.715851298 -394.318281984,358.712778094 -384.607256504,374.681879157 -370.947930285,387.438799314 -354.353353068,396.037416157 -336.054268729,399.840009611 -317.40783664,398.564558714 -299.796977368,392.305657825 -284.52780778,381.527500991 -272.732772334,367.029454796 -265.28665485,349.886773003 -262.741699797,331.370849898" stroke="#000" stroke-linecap="round" stroke-linejoin="round"/><polyline fill="none" points="-200.0,365.685424949 -202.317186752,353.289570683 -208.955798098,342.567845224 -219.019252788,334.968277005 -231.148425505,331.517229826 -243.705204262,332.680786731 -254.993726509,338.301802912 -263.489414764,347.621128987 -268.044879253,359.38013833 -268.044879253,371.990711569 -263.489414764,383.749720911 -254.993726509,393.069046987 -243.705204262,398.690063168 -231.148425505,399.853620072 -219.019252788,396.402572893 -208.955798098,388.803004675 -202.317186752,378.081279215 -200.0,365.685424949" stroke="#000" stroke-linecap="round" stroke-linejoin="round"/><polyline fill="none" points="400.0,234.314575051 397.682813248,221.918720785 391.044201902,211.196995325 380.980747212,203.597427107 368.851574495,200.146379928 356.294795738,201.309936832 345.006273491,206.930953013 336.510585236,216.250279089 331.955120747,228.009288431 331.955120747,240.61986167 336.510585236,252.378871013 345.006273491,261.698197088 356.294795738,267.319213269 368.851574495,268.482770174 380.980747212,265.031722995 391.044201902,257.432154776 397.682813248,246.710429317 400.0,234.314575051" stroke="#000" stroke-linecap="round" stroke-linejoin="round"/><polyline fill="none" points="268.629150102,365.685424949 266.311963349,353.289570683 259.673352004,342.567845224 249.609897313,334.968277005 237.480724596,331.517229826 224.923945839,332.680786731 213.635423593,338.301802912 205.139735337,347.621128987 200.584270849,359.38013833 200.584270849,371.990711569 205.139735337,383.749720911 213.635423593,393.069046987 224.923945839,398.690063168 237.480724596,399.853620072 249.609897313,396.402572893 259.673352004,388.803004675 266.311963349,378.081279215 268.629150102,365.685424949" stroke="#000" stroke-linecap="round" stroke-linejoin="round"/><polyline fill="none" points="268.629150102,-365.685424949 266.311963349,-378.081279215 259.673352004,-388.803004675 249.609897313,-396.402572893 237.480724596,-399.853620072 224.923945839,-398.690063168 213.635423593,-393.069046987 205.139735337,-383.749720911 200.584270849,-371.990711569 200.584270849,-359.38013833 205.139735337,-347.621128987 213.635423593,-338.301802912 224.923945839,-332.680786731 237.480724596,-331.517229826 249.609897313,-334.968277005 259.673352004,-342.567845224 266.311963349,-353.289570683 268.629150102,-365.685424949" stroke="#000" stroke-linecap="round" stroke-linejoin="round"/><polyline fill="none" points="400.0,-234.314575051 397.682813248,-246.710429317 391.044201902,-257.432154776 380.980747212,-265.031722995 368.851574495,-268.482770174 356.294795738,-267.319213269 345.006273491,-261.698197088 336.510585236,-252.378871013 331.955120747,-240.61986167 331.955120747,-228.009288431 336.510585236,-216.250279089 345.006273491,-206.930953013 356.294795738,-201.309936832 368.851574495,-200.146379928 380.980747212,-203.597427107 391.044201902,-211.196995325 397.682813248,-221.918720785 400.0,-234.314575051" stroke="#000" stroke-linecap="round" stroke-linejoin="round"/><polyline fill="none" points="-331.370849898,-234.314575051 -333.688036651,-246.710429317 -340.326647996,-257.432154776 -350.390102687,-265.031722995 -362.519275404,-268.482770174 -375.076054161,-267.319213269 -386.364576407,-261.698197088 -394.860264663,-252.378871013 -399.415729151,-240.61986167 -399.415729151,-228.009288431 -394.860264663,-216.250279089 -386.364576407,-206.930953013 -375.076054161,-201.309936832 -362.519275404,-200.146379928 -350.390102687,-203.597427107 -340.326647996,-211.196995325 -333.688036651,-221.918720785 -331.370849898,-234.314575051" stroke="#000" stroke-linecap="round" stroke-linejoin="round"/><polyline fill="none" points="-200.0,-365.685424949 -202.317186752,-378.081279215 -208.955798098,-388.803004675 -219.019252788,-396.402572893 -231.148425505,-399.853620072 -243.705204262,-398.690063168 -254.993726509,-393.069046987 -263.489414764,-383.749720911 -268.044879253,-371.990711569 -268.044879253,-359.38013833 -263.489414764,-347.621128987 -254.993726509,-338.301802912 -243.705204262,-332.680786731 -231.148425505,-331.517229826 -219.019252788,-334.968277005 -208.955798098,-342.567845224 -202.317186752,-353.289570683 -200.0,-365.685424949" stroke="#000" stroke-linecap="round" stroke-linejoin="round"/><polyline fill="none" points="-160.704420416,379.471684688 -162.479186522,371.12206663 -167.496611656,364.216173388 -174.889137431,359.948096641 -183.378528982,359.055825635 -191.496893385,361.69364213 -197.840491682,367.405443693 -201.312458099,375.203607941 -201.312458099,383.739761434 -197.840491682,391.537925683 -191.496893385,397.249727245 -183.378528982,399.887543741 -174.889137431,398.995272734 -167.496611656,394.727195988 -162.479186522,387.821302746 -160.704420416,379.471684688" stroke="#000" stroke-linecap="round" stroke-linejoin="round"/><polyline fill="none" points="-331.370849898,234.314575051 -333.688036651,221.918720785 -340.326647996,211.196995325 -350.390102687,203.597427107 -362.519275404,200.146379928 -375.076054161,201.309936832 -386.364576407,206.930953013 -394.860264663,216.250279089 -399.415729151,228.009288431 -399.415729151,240.61986167 -394.860264663,252.378871013 -386.364576407,261.698197088 -375.076054161,267.319213269 -362.519275404,268.482770174 -350.390102687,265.031722995 -340.326647996,257.432154776 -333.688036651,246.710429317 -331.370849898,234.314575051" stroke="#000" stroke-linecap="round" stroke-linejoin="round"/><polyline fill="none" points="400.0,181.232735729 398.225233894,172.883117671 393.20780876,165.977224429 385.815282985,161.709147682 377.325891435,160.816876676 369.207527031,163.454693171 362.863928734,169.166494734 359.391962318,176.964658983 359.391962318,185.500812475 362.863928734,193.298976724 369.207527031,199.010778286 377.325891435,201.648594782 385.815282985,200.756323775 393.20780876,196.488247029 398.225233894,189.582353787 400.0,181.232735729" stroke="#000" stroke-linecap="round" stroke-linejoin="round"/><polyline fill="none" points="201.761051041,379.471684688 199.986284935,371.12206663 194.968859801,364.216173388 187.576334026,359.948096641 179.086942476,359.055825635 170.968578073,361.69364213 164.624979775,367.405443693 161.153013359,375.203607941 161.153013359,383.739761434 164.624979775,391.537925683 170.968578073,397.249727245 179.086942476,399.887543741 187.576334026,398.995272734 194.968859801,394.727195988 199.986284935,387.821302746 201.761051041,379.471684688" stroke="#000" stroke-linecap="round" stroke-linejoin="round"/><polyline fill="none" points="201.761051041,-379.471684688 199.986284935,-387.821302746 194.968859801,-394.727195988 187.576334026,-398.995272734 179.086942476,-399.887543741 170.968578073,-397.249727245 164.624979775,-391.537925683 161.153013359,-383.739761434 161.153013359,-375.203607941 164.624979775,-367.405443693 170.968578073,-361.69364213 179.086942476,-359.055825635 187.576334026,-359.948096641 194.968859801,-364.216173388 199.986284935,-371.12206663 201.761051041,-379.471684688" stroke="#000" stroke-linecap="round" stroke-linejoin="round"/><polyline fill="none" points="400.0,-181.232735729 398.225233894,-189.582353787 393.20780876,-196.488247029 385.815282985,-200.756323775 377.325891435,-201.648594782 369.207527031,-199.010778286 362.863928734,-193.298976724 359.391962318,-185.500812475 359.391962318,-176.964658983 362.863928734,-169.166494734 369.207527031,-163.454693171 377.325891435,-160.816876676 385.815282985,-161.709147682 393.20780876,-165.977224429 398.225233894,-172.883117671 400.0,-181.232735729" stroke="#000" stroke-linecap="round" stroke-linejoin="round"/><polyline fill="none" points="-358.943369375,-181.232735729 -360.718135481,-189.582353787 -365.735560615,-196.488247029 -373.12808639,-200.756323775 -381.617477941,-201.648594782 -389.735842344,-199.010778286 -396.079440641,-193.298976724 -399.551407058,-185.500812475 -399.551407058,-176.964658983 -396.079440641,-169.166494734 -389.735842344,-163.454693171 -381.617477941,-160.816876676 -373.12808639,-161.709147682 -365.735560615,-165.977224429 -360.718135481,-172.883117671 -358.943369375,-181.232735729" stroke="#000" stroke-linecap="round" stroke-linejoin="round"/><line fill="none" stroke="none" stroke-linecap="round" stroke-width="2.0" x1="0.0" x2="0.0" y1="0.0" y2="0.0"/></svg>