<?xml version="1.0" ?><!DOCTYPE svg  PUBLIC '-//W3C//DTD SVG 1.1//EN'  'http://www.w3.org/Graphics/SVG/1.1/DTD/svg11.dtd'><svg height="824.000" viewBox="-412.000 -412.000 824.000 824.000" width="824.000" xmlns="http://www.w3.org/2000/svg"><line fill="none" stroke="none" stroke-linecap="round" stroke-width="2.0" x1="0.0" x2="0.0" y1="0.0" y2="0.0"/><polygon fill="#000" fill-rule="evenodd" points="0.0,-0.0 -9.0,-5.0 -7.0,-0.0 -9.0,5.0" stroke="#000" stroke-linejoin="round"/><polyline fill="none" points="-400.0,-400.0 400.0,-400.0 400.0,400.0 -400.0,400.0 -400.0,-400.0" stroke="#000" stroke-linecap="round" stroke-linejoin="round"/><polyline fill="none" points="400.0,0.0 397.808758147,-41.8113853071 391.259040294,-83.1646763271 380.422606518,-123.60679775 365.418183057,-162.69465723 346.410161514,-200.0 323.60679775,-235.114100917 297.257930191,-267.652242544 267.652242544,-297.257930191 235.114100917,-323.60679775 200.0,-346.410161514 162.69465723,-365.418183057 123.60679775,-380.422606518 83.1646763271,-391.259040294 41.8113853071,-397.808758147 3.06954461848e-11,-400.0 -41.811385307,-397.808758147 -83.1646763271,-391.259040294 -123.60679775,-380.422606518 -162.69465723,-365.418183057 -200.0,-346.410161514 -235.114100917,-323.60679775 -267.652242544,-297.257930191 -297.257930191,-267.652242544 -323.60679775,-235.114100917 -346.410161514,-200.0 -365.418183057,-162.69465723 -380.422606518,-123.60679775 -391.259040293,-83.1646763271 -397.808758147,-41.8113853071 -400.0,-2.70006239589e-11 -397.808758147,41.811385307 -391.259040293,83.1646763271 -380.422606518,123.60679775 -365.418183057,162.69465723 -346.410161514,200.0 -323.60679775,235.114100917 -297.257930191,267.652242544 -267.652242544,297.257930191 -235.114100917,323.60679775 -200.0,346.410161514 -162.69465723,365.418183057 -123.60679775,380.422606518" stroke="#000" stroke-linecap="round" stroke-linejoin="round"/><polyline fill="none" points="-123.60679775,380.422606518 -83.1646763271,391.259040293 -41.8113853071,397.808758147 3.318234576e-12,400.0 41.8113853071,397.808758147 83.1646763271,391.259040293 123.60679775,380.422606518 162.69465723,365.418183057 200.0,346.410161514 235.114100917,323.60679775 267.652242544,297.257930191 297.257930191,267.652242544 323.60679775,235.114100917 346.410161514,200.0 365.418183057,162.69465723 380.422606518,123.60679775 391.259040294,83.1646763271 397.808758147,41.8113853071 400.0,6.32383034826e-13" stroke="#000" stroke-linecap="round" stroke-linejoin="round"/><polyline fill="none" points="400.0,331.370849898 397.455044947,312.854926794 390.008927463,295.712245001 378.213892017,281.214198806 362.944722429,270.436041972 345.333863157,264.177141083 326.687431068,262.901690186 308.388346729,266.70428364 291.793769511,275.302900483 278.134443293,288.05982064 268.423417813,304.028921703 263.380915404,322.025848499 263.380915404,340.715851298 268.423417813,358.712778094 278.134443293,374.681879157 291.793769511,387.438799314 308.388346729,396.037416157 326.687431068,399.840009611 345.333863157,398.564558714 362.944722429,392.305657825 378.213892017,381.527500991 390.008927463,367.029454796 397.455044947,349.886773003 400.0,331.370849898" stroke="#000" stroke-linecap="round" stroke-linejoin="round"/><polyline fill="none" points="400.0,-331.370849898 397.455044947,-349.886773003 390.008927463,-367.029454796 378.213892017,-381.527500991 362.944722429,-392.305657825 345.333863157,-398.564558714 326.687431068,-399.840009611 308.388346729,-396.037416157 291.793769511,-387.438799314 278.134443293,-374.681879157 268.423417813,-358.712778094 263.380915404,-340.715851298 263.380915404,-322.025848499 268.423417813,-304.028921703 278.134443293,-288.05982064 291.793769511,-275.302900483 308.388346729,-266.70428364 326.687431068,-262.901690186 345.333863157,-264.177141083 362.944722429,-270.436041972 378.213892017,-281.214198806 390.008927463,-295.712245001 397.455044947,-312.854926794 400.0,-331.370849898" stroke="#000" stroke-linecap="round" stroke-linejoin="round"/><polyline fill="none" points="-262.741699797,-331.370849898 -265.28665485,-349.886773003 -272.732772334,-367.029454796 -284.52780778,-381.527500991 -299.796977368,-392.305657825 -317.40783664,-398.564558714 -336.054268729,-399.840009611 -354.353353068,-396.037416157 -370.947930285,-387.438799314 -384.607256504,-374.681879157 -394.318281984,-358.712778094 -399.360784392,-340.715851298 -399.360784392,-322.025848499 -394.318281984,-304.028921703 -384.607256504,-288.05982064 -370.947930285,-275.302900483 -354.353353068,-266.70428364 -336.054268729,-262.901690186 -317.40783664,-264.177141083 -299.796977368,-270.436041972 -284.52780778,-281.214198806 -272.732772334,-295.712245001 -265.28665485,-312.854926794 -262.741699797,-331.370849898" stroke="#000" stroke-linecap="round" stroke-linejoin="round"/><polyline fill="none" points="-262.741699797,331.370849898 -265.28665485,312.854926794 -272.732772334,295.712245001 -284.52780778,281.214198806 -299.796977368,270.436041972 -317.40783664,264.177141083 -336.054268729,262.901690186 -354.353353068,266.70428364 -370.947930285,275.302900483 -384.607256504,288.05982064 -394.318281984,304.028921703 -399.360784392,322.025848499 -399.360784392,340.715851298 -394.318281984,358.712778094 -384.607256504,374.681879157 -370.947930285,387.438799314 -354.353353068,396.037416157 -336.054268729,399.840009611 -317.40783664,398.564558714 -299.796977368,392.305657825 -284.52780778,381.527500991 -272.732772334,367.029454796 -265.28665485,349.886773003 -262.741699797,331.370849898" stroke="#000" stroke-linecap="round" stroke-linejoin="round"/><polyline fill="none" points="-200.0,365.685424949 -202.317186752,353.289570683 -208.955798098,342.567845224 -219.019252788,334.968277005 -231.148425505,331.517229826 -243.705204262,332.680786731 -254.993726509,338.301802912 -263.489414764,347.621128987 -268.044879253,359.38013833 -268.044879253,371.990711569 -263.489414764,383.749720911 -254.993726509,393.069046987 -243.705204262,398.690063168 -231.148425505,399.853620072 -219.019252788,396.402572893 -208.955798098,388.803004675 -202.317186752,378.081279215 -200.0,365.685424949" stroke="#000" stroke-linecap="round" stroke-linejoin="round"/><polyline fill="none" points="400.0,234.314575051 397.682813248,221.918720785 391.044201902,211.196995325 380.980747212,203.597427107 368.851574495,200.146379928 356.294795738,201.309936832 345.006273491,206.930953013 336.510585236,216.250279089 331.955120747,228.009288431 331.955120747,240.61986167 336.510585236,252.378871013 345.006273491,261.698197088 356.294795738,267.319213269 368.851574495,268.482770174 380.980747212,265.031722995 391.044201902,257.432154776 397.682813248,246.710429317 400.0,234.314575051" stroke="#000" stroke-linecap="round" stroke-linejoin="round"/><polyline fill="none" points="268.629150102,365.685424949 266.311963349,353.289570683 259.673352004,342.567845224 249.609897313,334.968277005 237.480724596,331.517229826 224.923945839,332.680786731 213.635423593,338.301802912 205.139735337,347.621128987 200.584270849,359.38013833 200.584270849,371.990711569 205.139735337,383.749720911 213.635423593,393.069046987 224.923945839,398.690063168 237.480724596,399.853620072 249.609897313,396.402572893 259.673352004,388.803004675 266.311963349,378.081279215 268.629150102,365.685424949" stroke="#000" stroke-linecap="round" stroke-linejoin="round"/><polyline fill="none" points="268.629150102,-365.685424949 266.311963349,-378.081279215 259.673352004,-388.803004675 249.609897313,-396.402572893 237.480724596,-399.853620072 224.923945839,-398.690063168 213.635423593,-393.069046987 205.139735337,-383.749720911 200.584270849,-371.990711569 200.584270849,-359.38013833 205.139735337,-347.621128987 213.635423593,-338.301802912 224.923945839,-332.680786731 237.480724596,-331.517229826 249.609897313,-334.968277005 259.673352004,-342.567845224 266.311963349,-353.289570683 268.629150102,-365.685424949" stroke="#000" stroke-linecap="round" stroke-linejoin="round"/><polyline fill="none" points="400.0,-234.314575051 397.682813248,-246.710429317 391.044201902,-257.432154776 380.980747212,-265.031722995 368.851574495,-268.482770174 356.294795738,-267.319213269 345.006273491,-261.698197088 336.510585236,-252.378871013 331.955120747,-240.61986167 331.955120747,-228.009288431 336.510585236,-216.250279089 345.006273491,-206.930953013 356.294795738,-201.309936832 368.851574495,-200.146379928 380.980747212,-203.597427107 391.044201902,-211.196995325 397.682813248,-221.918720785 400.0,-234.314575051" stroke="#000" stroke-linecap="round" stroke-linejoin="round"/><polyline fill="none" points="-331.370849898,-234.314575051 -333.688036651,-246.710429317 -340.326647996,-257.432154776 -350.390102687,-265.031722995 -362.519275404,-268.482770174 -375.076054161,-267.319213269 -386.364576407,-261.698197088 -394.860264663,-252.378871013 -399.415729151,-240.61986167 -399.415729151,-228.009288431 -394.860264663,-216.250279089 -386.364576407,-206.930953013 -375.076054161,-201.309936832 -362.519275404,-200.146379928 -350.390102687,-203.597427107 -340.326647996,-211.196995325 -333.688036651,-221.918720785 -331.370849898,-234.314575051" stroke="#000" stroke-linecap="round" stroke-linejoin="round"/><polyline fill="none" points="-200.0,-365.685424949 -202.317186752,-378.081279215 -208.955798098,-388.803004675 -219.019252788,-396.402572893 -231.148425505,-399.853620072 -243.705204262,-398.690063168 -254.993726509,-393.069046987 -263.489414764,-383.749720911 -268.044879253,-371.990711569 -268.044879253,-359.38013833 -263.489414764,-347.621128987 -254.993726509,-338.301802912 -243.705204262,-332.680786731 -231.148425505,-331.517229826 -219.019252788,-334.968277005 -208.955798098,-342.567845224 -202.317186752,-353.289570683 -200.0,-365.685424949" stroke="#000" stroke-linecap="round" stroke-linejoin="round"/><polyline fill="none" points="-160.704420416,379.471684688 -162.479186522,371.12206663 -167.496611656,364.216173388 -174.889137431,359.948096641 -183.378528982,359.055825635 -191.496893385,361.69364213 -197.840491682,367.405443693 -201.312458099,375.203607941 -201.312458099,383.739761434 -197.840491682,391.537925683 -191.496893385,397.249727245 -183.378528982,399.887543741 -174.889137431,398.995272734 -167.496611656,394.727195988 -162.479186522,387.821302746 -160.704420416,379.471684688" stroke="#000" stroke-linecap="round" stroke-linejoin="round"/><polyline fill="none" points="-331.370849898,234.314575051 -333.688036651,221.918720785 -340.326647996,211.196995325 -350.390102687,203.597427107 -362.519275404,200.146379928 -375.076054161,201.309936832 -386.364576407,206.930953013 -394.860264663,216.250279089 -399.415729151,228.009288431 -399.415729151,240.61986167 -394.860264663,252.378871013 -386.364576407,261.698197088 -375.076054161,267.319213269 -362.519275404,268.482770174 -350.390102687,265.031722995 -340.326647996,257.432154776 -333.688036651,246.710429317 -331.370849898,234.314575051" stroke="#000" stroke-linecap="round" stroke-linejoin="round"/><polyline fill="none" points="400.0,181.232735729 398.225233894,172.883117671 393.20780876,165.977224429 385.815282985,161.709147682 377.325891435,160.816876676 369.207527031,163.454693171 362.863928734,169.166494734 359.391962318,176.964658983 359.391962318,185.500812475 362.863928734,193.298976724 369.207527031,199.010778286 377.325891435,201.648594782 385.815282985,200.756323775 393.20780876,196.488247029 398.225233894,189.582353787 400.0,181.232735729" stroke="#000" stroke-linecap="round" stroke-linejoin="round"/><polyline fill="none" points="201.761051041,379.471684688 199.986284935,371.12206663 194.968859801,364.216173388 187.576334026,359.948096641 179.086942476,359.055825635 170.968578073,361.69364213 164.624979775,367.405443693 161.153013359,375.203607941 161.153013359,383.739761434 164.624979775,391.537925683 170.968578073,397.249727245 179.086942476,399.887543741 187.576334026,398.995272734 194.968859801,394.727195988 199.986284935,387.821302746 201.761051041,379.471684688" stroke="#000" stroke-linecap="round" stroke-linejoin="round"/><polyline fill="none" points="201.761051041,-379.471684688 199.986284935,-387.821302746 194.968859801,-394.727195988 187.576334026,-398.995272734 179.086942476,-399.887543741 170.968578073,-397.249727245 164.624979775,-391.537925683 161.153013359,-383.739761434 161.153013359,-375.203607941 164.624979775,-367.405443693 170.968578073,-361.69364213 179.086942476,-359.055825635 187.576334026,-359.948096641 194.968859801,-364.216173388 199.986284935,-371.12206663 201.761051041,-379.471684688" stroke="#000" stroke-linecap="round" stroke-linejoin="round"/><polyline fill="none" points="400.0,-181.232735729 398.225233894,-189.582353787 393.20780876,-196.488247029 385.815282985,-200.756323775 377.325891435,-201.648594782 369.207527031,-199.010778286 362.863928734,-193.298976724 359.391962318,-185.500812475 359.391962318,-176.964658983 362.863928734,-169.166494734 369.207527031,-163.454693171 377.325891435,-160.816876676 385.815282985,-161.709147682 393.20780876,-165.977224429 398.225233894,-172.883117671 400.0,-181.232735729" stroke="#000" stroke-linecap="round" stroke-linejoin="round"/><polyline fill="none" points="-358.943369375,-181.232735729 -360.718135481,-189.582353787 -365.735560615,-196.488247029 -373.12808639,-200.756323775 -381.617477941,-201.648594782 -389.735842344,-199.010778286 -396.079440641,-193.298976724 -399.551407058,-185.500812475 -399.551407058,-176.964658983 -396.079440641,-169.166494734 -389.735842344,-163.454693171 -381.617477941,-160.816876676 -373.12808639,-161.709147682 -365.735560615,-165.977224429 -360.718135481,-172.883117671 -358.943369375,-181.232735729" stroke="#000" stroke-linecap="round" stroke-linejoin="round"/><polyline fill="none" points="-160.704420416,-379.471684688 -162.479186522,-387.821302746 -167.496611656,-394.727195988 -174.889137431,-398.995272734 -183.378528982,-399.887543741 -191.496893385,-397.249727245 -197.840491682,-391.537925683 -201.312458099,-383.739761434 -201.312458099,-375.203607941 -197.840491682,-367.405443693 -191.496893385,-361.69364213 -183.378528982,-359.055825635 -174.889137431,-359.948096641 -167.496611656,-364.216173388 -162.479186522,-371.12206663 -160.704420416,-379.471684688" stroke="#000" stroke-linecap="round" stroke-linejoin="round"/><polyline fill="none" points="-358.943369375,181.232735729 -360.718135481,172.883117671 -365.735560615,165.977224429 -373.12808639,161.709147682 -381.617477941,160.816876676 -389.735842344,163.454693171 -396.079440641,169.166494734 -399.551407058,176.964658983 -399.551407058,185.500812475 -396.079440641,193.298976724 -389.735842344,199.010778286 -381.617477941,201.648594782 -373.12808639,200.756323775 -365.735560615,196.488247029 -360.718135481,189.582353787 -358.943369375,181.232735729" stroke="#000" stroke-linecap="round" stroke-linejoin="round"/><polyline fill="none" points="400.0,147.759225007 398.648671394,141.838667543 394.86233278,137.090749096 389.390914956,134.455853143 383.318099325,134.455853143 377.846681502,137.090749096 374.060342887,141.838667543 372.709014282,147.759225007 374.060342887,153.679782471 377.846681502,158.427700918 383.318099325,161.062596871 389.390914956,161.062596871 394.86233278,158.427700918 398.648671394,153.679782471 400.0,147.759225007" stroke="#000" stroke-linecap="round" stroke-linejoin="round"/><polyline fill="none" points="161.404717866,386.354507141 160.053389261,380.433949677 156.267050646,375.68603123 150.795632823,373.051135277 144.722817192,373.051135277 139.251399368,375.68603123 135.465060754,380.433949677 134.113732148,386.354507141 135.465060754,392.275064605 139.251399368,397.022983052 144.722817192,399.657879005 150.795632823,399.657879005 156.267050646,397.022983052 160.053389261,392.275064605 161.404717866,386.354507141" stroke="#000" stroke-linecap="round" stroke-linejoin="round"/><polyline fill="none" points="161.404717866,-386.354507141 160.053389261,-392.275064605 156.267050646,-397.022983052 150.795632823,-399.657879005 144.722817192,-399.657879005 139.251399368,-397.022983052 135.465060754,-392.275064605 134.113732148,-386.354507141 135.465060754,-380.433949677 139.251399368,-375.68603123 144.722817192,-373.051135277 150.795632823,-373.051135277 156.267050646,-375.68603123 160.053389261,-380.433949677 161.404717866,-386.354507141" stroke="#000" stroke-linecap="round" stroke-linejoin="round"/><polyline fill="none" points="400.0,-147.759225007 398.648671394,-153.679782471 394.86233278,-158.427700918 389.390914956,-161.062596871 383.318099325,-161.062596871 377.846681502,-158.427700918 374.060342887,-153.679782471 372.709014282,-147.759225007 374.060342887,-141.838667543 377.846681502,-137.090749096 383.318099325,-134.455853143 389.390914956,-134.455853143 394.86233278,-137.090749096 398.648671394,-141.838667543 400.0,-147.759225007" stroke="#000" stroke-linecap="round" stroke-linejoin="round"/><polyline fill="none" points="-372.709014282,-147.759225007 -374.060342887,-153.679782471 -377.846681502,-158.427700918 -383.318099325,-161.062596871 -389.390914956,-161.062596871 -394.86233278,-158.427700918 -398.648671394,-153.679782471 -400.0,-147.759225007 -398.648671394,-141.838667543 -394.86233278,-137.090749096 -389.390914956,-134.455853143 -383.318099325,-134.455853143 -377.846681502,-137.090749096 -374.060342887,-141.838667543 -372.709014282,-147.759225007" stroke="#000" stroke-linecap="round" stroke-linejoin="round"/><polyline fill="none" points="-134.113732148,-386.354507141 -135.465060754,-392.275064605 -139.251399368,-397.022983052 -144.722817192,-399.657879005 -150.795632823,-399.657879005 -156.267050646,-397.022983052 -160.053389261,-392.275064605 -161.404717866,-386.354507141 -160.053389261,-380.433949677 -156.267050646,-375.68603123 -150.795632823,-373.051135277 -144.722817192,-373.051135277 -139.251399368,-375.68603123 -135.465060754,-380.433949677 -134.113732148,-386.354507141" stroke="#000" stroke-linecap="round" stroke-linejoin="round"/><polyline fill="none" points="-372.709014282,147.759225007 -374.060342887,141.838667543 -377.846681502,137.090749096 -383.318099325,134.455853143 -389.390914956,134.455853143 -394.86233278,137.090749096 -398.648671394,141.838667543 -400.0,147.759225007 -398.648671394,153.679782471 -394.86233278,158.427700918 -389.390914956,161.062596871 -383.318099325,161.062596871 -377.846681502,158.427700918 -374.060342887,153.679782471 -372.709014282,147.759225007" stroke="#000" stroke-linecap="round" stroke-linejoin="round"/><polyline fill="none" points="-134.113732148,386.354507141 -135.465060754,380.433949677 -139.251399368,375.68603123 -144.722817192,373.051135277 -150.795632823,373.051135277 -156.267050646,375.68603123 -160.053389261,380.433949677 -161.404717866,386.354507141 -160.053389261,392.275064605 -156.267050646,397.022983052 -150.795632823,399.657879005 -144.722817192,399.657879005 -139.251399368,397.022983052 -135.465060754,392.275064605 -134.113732148,386.354507141" stroke="#000" stroke-linecap="round" stroke-linejoin="round"/><polyline fill="none" points="400.0,388.225099391 398.651256087,382.753030229 394.914005323,378.534546167 389.644406821,376.536051065 384.04966209,377.215376065 379.411459726,380.416895998 376.792355993,385.40718123 376.792355993,391.043017552 379.411459726,396.033302783 384.04966209,399.234822716 389.644406821,399.914147717 394.914005323,397.915652615 398.651256087,393.697168552 400.0,388.225099391" stroke="#000" stroke-linecap="round" stroke-linejoin="round"/><polyline fill="none" points="400.0,-388.225099391 398.651256087,-393.697168552 394.914005323,-397.915652615 389.644406821,-399.914147717 384.04966209,-399.234822716 379.411459726,-396.033302783 376.792355993,-391.043017552 376.792355993,-385.40718123 379.411459726,-380.416895998 384.04966209,-377.215376065 389.644406821,-376.536051065 394.914005323,-378.534546167 398.651256087,-382.753030229 400.0,-388.225099391" stroke="#000" stroke-linecap="round" stroke-linejoin="round"/><polyline fill="none" points="-376.450198782,-388.225099391 -377.798942695,-393.697168552 -381.536193459,-397.915652615 -386.805791961,-399.914147717 -392.400536691,-399.234822716 -397.038739055,-396.033302783 -399.657842788,-391.043017552 -399.657842788,-385.40718123 -397.038739055,-380.416895998 -392.400536691,-377.215376065 -386.805791961,-376.536051065 -381.536193459,-378.534546167 -377.798942695,-382.753030229 -376.450198782,-388.225099391" stroke="#000" stroke-linecap="round" stroke-linejoin="round"/><polyline fill="none" points="-376.450198782,388.225099391 -377.798942695,382.753030229 -381.536193459,378.534546167 -386.805791961,376.536051065 -392.400536691,377.215376065 -397.038739055,380.416895998 -399.657842788,385.40718123 -399.657842788,391.043017552 -397.038739055,396.033302783 -392.400536691,399.234822716 -386.805791961,399.914147717 -381.536193459,397.915652615 -377.798942695,393.697168552 -376.450198782,388.225099391" stroke="#000" stroke-linecap="round" stroke-linejoin="round"/><polyline fill="none" points="-262.741699797,-388.225099391 -264.09044371,-393.697168552 -267.827694474,-397.915652615 -273.097292976,-399.914147717 -278.692037707,-399.234822716 -283.330240071,-396.033302783 -285.949343804,-391.043017552 -285.949343804,-385.40718123 -283.330240071,-380.416895998 -278.692037707,-377.215376065 -273.097292976,-376.536051065 -267.827694474,-378.534546167 -264.09044371,-382.753030229 -262.741699797,-388.225099391" stroke="#000" stroke-linecap="round" stroke-linejoin="round"/><polyline fill="none" points="286.291501015,-388.225099391 284.942757102,-393.697168552 281.205506338,-397.915652615 275.935907836,-399.914147717 270.341163106,-399.234822716 265.702960742,-396.033302783 263.083857009,-391.043017552 263.083857009,-385.40718123 265.702960742,-380.416895998 270.341163106,-377.215376065 275.935907836,-376.536051065 281.205506338,-378.534546167 284.942757102,-382.753030229 286.291501015,-388.225099391" stroke="#000" stroke-linecap="round" stroke-linejoin="round"/><polyline fill="none" points="286.291501015,388.225099391 284.942757102,382.753030229 281.205506338,378.534546167 275.935907836,376.536051065 270.341163106,377.215376065 265.702960742,380.416895998 263.083857009,385.40718123 263.083857009,391.043017552 265.702960742,396.033302783 270.341163106,399.234822716 275.935907836,399.914147717 281.205506338,397.915652615 284.942757102,393.697168552 286.291501015,388.225099391" stroke="#000" stroke-linecap="round" stroke-linejoin="round"/><polyline fill="none" points="400.0,-274.516600406 398.651256087,-279.988669568 394.914005323,-284.20715363 389.644406821,-286.205648732 384.04966209,-285.526323732 379.411459726,-282.324803799 376.792355993,-277.334518567 376.792355993,-271.698682245 379.411459726,-266.708397014 384.04966209,-263.506877081 389.644406821,-262.82755208 394.914005323,-264.826047182 398.651256087,-269.044531245 400.0,-274.516600406" stroke="#000" stroke-linecap="round" stroke-linejoin="round"/><polyline fill="none" points="-376.450198782,-274.516600406 -377.798942695,-279.988669568 -381.536193459,-284.20715363 -386.805791961,-286.205648732 -392.400536691,-285.526323732 -397.038739055,-282.324803799 -399.657842788,-277.334518567 -399.657842788,-271.698682245 -397.038739055,-266.708397014 -392.400536691,-263.506877081 -386.805791961,-262.82755208 -381.536193459,-264.826047182 -377.798942695,-269.044531245 -376.450198782,-274.516600406" stroke="#000" stroke-linecap="round" stroke-linejoin="round"/><polyline fill="none" points="-376.450198782,274.516600406 -377.798942695,269.044531245 -381.536193459,264.826047182 -386.805791961,262.82755208 -392.400536691,263.506877081 -397.038739055,266.708397014 -399.657842788,271.698682245 -399.657842788,277.334518567 -397.038739055,282.324803799 -392.400536691,285.526323732 -386.805791961,286.205648732 -381.536193459,284.20715363 -377.798942695,279.988669568 -376.450198782,274.516600406" stroke="#000" stroke-linecap="round" stroke-linejoin="round"/><polyline fill="none" points="400.0,274.516600406 398.651256087,269.044531245 394.914005323,264.826047182 389.644406821,262.82755208 384.04966209,263.506877081 379.411459726,266.708397014 376.792355993,271.698682245 376.792355993,277.334518567 379.411459726,282.324803799 384.04966209,285.526323732 389.644406821,286.205648732 394.914005323,284.20715363 398.651256087,279.988669568 400.0,274.516600406" stroke="#000" stroke-linecap="round" stroke-linejoin="round"/><polyline fill="none" points="-313.444649956,-252.240774993 -314.683949181,-257.268809596 -318.117938337,-261.144982067 -322.959931893,-262.981308004 -328.100687478,-262.357107265 -332.362519939,-259.415376718 -334.769094822,-254.830031379 -334.769094822,-249.651518606 -332.362519939,-245.066173267 -328.100687478,-242.12444272 -322.959931893,-241.500241982 -318.117938337,-243.336567919 -314.683949181,-247.212740389 -313.444649956,-252.240774993" stroke="#000" stroke-linecap="round" stroke-linejoin="round"/><polyline fill="none" points="-262.741699797,388.225099391 -264.09044371,382.753030229 -267.827694474,378.534546167 -273.097292976,376.536051065 -278.692037707,377.215376065 -283.330240071,380.416895998 -285.949343804,385.40718123 -285.949343804,391.043017552 -283.330240071,396.033302783 -278.692037707,399.234822716 -273.097292976,399.914147717 -267.827694474,397.915652615 -264.09044371,393.697168552 -262.741699797,388.225099391" stroke="#000" stroke-linecap="round" stroke-linejoin="round"/><polyline fill="none" points="-313.444649956,252.240774993 -314.683949181,247.212740389 -318.117938337,243.336567919 -322.959931893,241.500241982 -328.100687478,242.12444272 -332.362519939,245.066173267 -334.769094822,249.651518606 -334.769094822,254.830031379 -332.362519939,259.415376718 -328.100687478,262.357107265 -322.959931893,262.981308004 -318.117938337,261.144982067 -314.683949181,257.268809596 -313.444649956,252.240774993" stroke="#000" stroke-linecap="round" stroke-linejoin="round"/><polyline fill="none" points="-241.421356237,324.264068712 -242.660655462,319.236034108 -246.094644618,315.359861638 -250.936638174,313.523535701 -256.077393758,314.147736439 -260.33922622,317.089466986 -262.745801103,321.674812325 -262.745801103,326.853325099 -260.33922622,331.438670438 -256.077393758,334.380400985 -250.936638174,335.004601723 -246.094644618,333.168275786 -242.660655462,329.292103316 -241.421356237,324.264068712" stroke="#000" stroke-linecap="round" stroke-linejoin="round"/><polyline fill="none" points="335.083487467,-252.240774993 333.844188243,-257.268809596 330.410199087,-261.144982067 325.568205531,-262.981308004 320.427449946,-262.357107265 316.165617485,-259.415376718 313.759042602,-254.830031379 313.759042602,-249.651518606 316.165617485,-245.066173267 320.427449946,-242.12444272 325.568205531,-241.500241982 330.410199087,-243.336567919 333.844188243,-247.212740389 335.083487467,-252.240774993" stroke="#000" stroke-linecap="round" stroke-linejoin="round"/><polyline fill="none" points="263.060193748,-324.264068712 261.820894524,-329.292103316 258.386905368,-333.168275786 253.544911812,-335.004601723 248.404156227,-334.380400985 244.142323765,-331.438670438 241.735748883,-326.853325099 241.735748883,-321.674812325 244.142323765,-317.089466986 248.404156227,-314.147736439 253.544911812,-313.523535701 258.386905368,-315.359861638 261.820894524,-319.236034108 263.060193748,-324.264068712" stroke="#000" stroke-linecap="round" stroke-linejoin="round"/><polyline fill="none" points="335.083487467,252.240774993 333.844188243,247.212740389 330.410199087,243.336567919 325.568205531,241.500241982 320.427449946,242.12444272 316.165617485,245.066173267 313.759042602,249.651518606 313.759042602,254.830031379 316.165617485,259.415376718 320.427449946,262.357107265 325.568205531,262.981308004 330.410199087,261.144982067 333.844188243,257.268809596 335.083487467,252.240774993" stroke="#000" stroke-linecap="round" stroke-linejoin="round"/><polyline fill="none" points="-241.421356237,-324.264068712 -242.660655462,-329.292103316 -246.094644618,-333.168275786 -250.936638174,-335.004601723 -256.077393758,-334.380400985 -260.33922622,-331.438670438 -262.745801103,-326.853325099 -262.745801103,-321.674812325 -260.33922622,-317.089466986 -256.077393758,-314.147736439 -250.936638174,-313.523535701 -246.094644618,-315.359861638 -242.660655462,-319.236034108 -241.421356237,-324.264068712" stroke="#000" stroke-linecap="round" stroke-linejoin="round"/><polyline fill="none" points="263.060193748,324.264068712 261.820894524,319.236034108 258.386905368,315.359861638 253.544911812,313.523535701 248.404156227,314.147736439 244.142323765,317.089466986 241.735748883,321.674812325 241.735748883,326.853325099 244.142323765,331.438670438 248.404156227,334.380400985 253.544911812,335.004601723 258.386905368,333.168275786 261.820894524,329.292103316 263.060193748,324.264068712" stroke="#000" stroke-linecap="round" stroke-linejoin="round"/><line fill="none" stroke="none" stroke-linecap="round" stroke-width="2.0" x1="0.0" x2="0.0" y1="0.0" y2="0.0"/></svg>