<?xml version="1.0" ?><!DOCTYPE svg  PUBLIC '-//W3C//DTD SVG 1.1//EN'  'http://www.w3.org/Graphics/SVG/1.1/DTD/svg11.dtd'><svg height="624.000" viewBox="-312.000 -312.000 624.000 624.000" width="624.000" xmlns="http://www.w3.org/2000/svg"><line fill="none" stroke="none" stroke-linecap="round" stroke-width="2.0" x1="0.0" x2="0.0" y1="0.0" y2="0.0"/><polygon fill="#000" fill-rule="evenodd" points="0.0,-0.0 -9.0,-5.0 -7.0,-0.0 -9.0,5.0" stroke="#000" stroke-linejoin="round"/><polyline fill="none" points="-300.0,-300.0 300.0,-300.0 300.0,300.0 -300.0,300.0 -300.0,-300.0" stroke="#000" stroke-linecap="round" stroke-linejoin="round"/><polyline fill="none" points="300.0,0.0 298.35656861,-31.3585389803 293.44428022,-62.3735072453 285.316954889,-92.7050983125 274.063637293,-122.020992923 259.807621135,-150.0 242.705098312,-176.335575688 222.943447643,-200.739181908 200.739181908,-222.943447643 176.335575688,-242.705098312 150.0,-259.807621135 122.020992923,-274.063637293 92.7050983125,-285.316954889 62.3735072453,-293.44428022 31.3585389803,-298.35656861 5.18696197105e-12,-300.0 -31.3585389803,-298.35656861 -62.3735072453,-293.44428022 -92.7050983125,-285.316954889 -122.020992923,-274.063637293 -150.0,-259.807621135 -176.335575688,-242.705098312 -200.739181908,-222.943447643 -222.943447643,-200.739181908 -242.705098312,-176.335575688 -259.807621135,-150.0 -274.063637293,-122.020992923 -285.316954889,-92.7050983125 -293.44428022,-62.3735072453 -298.35656861,-31.3585389803 -300.0,-1.92557081391e-12 -298.35656861,31.3585389803 -293.44428022,62.3735072453 -285.316954889,92.7050983125 -274.063637293,122.020992923 -259.807621135,150.0 -242.705098312,176.335575688 -222.943447643,200.739181908 -200.739181908,222.943447643 -176.335575688,242.705098312 -150.0,259.807621135 -122.020992923,274.063637293 -92.7050983125,285.316954889" stroke="#000" stroke-linecap="round" stroke-linejoin="round"/><polyline fill="none" points="-92.7050983125,285.316954889 -62.3735072453,293.44428022 -31.3585389803,298.35656861 3.27560201185e-12,300.0 31.3585389803,298.35656861 62.3735072453,293.44428022 92.7050983125,285.316954889 122.020992923,274.063637293 150.0,259.807621135 176.335575688,242.705098312 200.739181908,222.943447643 222.943447643,200.739181908 242.705098312,176.335575688 259.807621135,150.0 274.063637293,122.020992923 285.316954889,92.7050983125 293.44428022,62.3735072453 298.35656861,31.3585389803 300.0,1.06581410364e-13" stroke="#000" stroke-linecap="round" stroke-linejoin="round"/><polyline fill="none" points="300.0,248.528137424 297.480787733,232.622457156 290.16974898,218.273735694 278.782539154,206.886525868 264.433817692,199.575487115 248.528137424,197.056274848 232.622457156,199.575487115 218.273735694,206.886525868 206.886525868,218.273735694 199.575487115,232.622457156 197.056274848,248.528137424 199.575487115,264.433817692 206.886525868,278.782539154 218.273735694,290.16974898 232.622457156,297.480787733 248.528137424,300.0 264.433817692,297.480787733 278.782539154,290.16974898 290.16974898,278.782539154 297.480787733,264.433817692 300.0,248.528137424" stroke="#000" stroke-linecap="round" stroke-linejoin="round"/><polyline fill="none" points="300.0,-248.528137424 297.480787733,-264.433817692 290.16974898,-278.782539154 278.782539154,-290.16974898 264.433817692,-297.480787733 248.528137424,-300.0 232.622457156,-297.480787733 218.273735694,-290.16974898 206.886525868,-278.782539154 199.575487115,-264.433817692 197.056274848,-248.528137424 199.575487115,-232.622457156 206.886525868,-218.273735694 218.273735694,-206.886525868 232.622457156,-199.575487115 248.528137424,-197.056274848 264.433817692,-199.575487115 278.782539154,-206.886525868 290.16974898,-218.273735694 297.480787733,-232.622457156 300.0,-248.528137424" stroke="#000" stroke-linecap="round" stroke-linejoin="round"/><polyline fill="none" points="-197.056274848,-248.528137424 -199.575487115,-264.433817692 -206.886525868,-278.782539154 -218.273735694,-290.16974898 -232.622457156,-297.480787733 -248.528137424,-300.0 -264.433817692,-297.480787733 -278.782539154,-290.16974898 -290.16974898,-278.782539154 -297.480787733,-264.433817692 -300.0,-248.528137424 -297.480787733,-232.622457156 -290.16974898,-218.273735694 -278.782539154,-206.886525868 -264.433817692,-199.575487115 -248.528137424,-197.056274848 -232.622457156,-199.575487115 -218.273735694,-206.886525868 -206.886525868,-218.273735694 -199.575487115,-232.622457156 -197.056274848,-248.528137424" stroke="#000" stroke-linecap="round" stroke-linejoin="round"/><polyline fill="none" points="-197.056274848,248.528137424 -199.575487115,232.622457156 -206.886525868,218.273735694 -218.273735694,206.886525868 -232.622457156,199.575487115 -248.528137424,197.056274848 -264.433817692,199.575487115 -278.782539154,206.886525868 -290.16974898,218.273735694 -297.480787733,232.622457156 -300.0,248.528137424 -297.480787733,264.433817692 -290.16974898,278.782539154 -278.782539154,290.16974898 -264.433817692,297.480787733 -248.528137424,300.0 -232.622457156,297.480787733 -218.273735694,290.16974898 -206.886525868,278.782539154 -199.575487115,264.433817692 -197.056274848,248.528137424" stroke="#000" stroke-linecap="round" stroke-linejoin="round"/><polyline fill="none" points="-150.0,274.264068712 -151.959031121,264.415354191 -157.537879754,256.066017178 -165.887216768,250.487168545 -175.735931288,248.528137424 -185.584645809,250.487168545 -193.933982822,256.066017178 -199.512831455,264.415354191 -201.471862576,274.264068712 -199.512831455,284.112783232 -193.933982822,292.462120246 -185.584645809,298.040968879 -175.735931288,300.0 -165.887216768,298.040968879 -157.537879754,292.462120246 -151.959031121,284.112783232 -150.0,274.264068712" stroke="#000" stroke-linecap="round" stroke-linejoin="round"/><polyline fill="none" points="300.0,175.735931288 298.040968879,165.887216768 292.462120246,157.537879754 284.112783232,151.959031121 274.264068712,150.0 264.415354191,151.959031121 256.066017178,157.537879754 250.487168545,165.887216768 248.528137424,175.735931288 250.487168545,185.584645809 256.066017178,193.933982822 264.415354191,199.512831455 274.264068712,201.471862576 284.112783232,199.512831455 292.462120246,193.933982822 298.040968879,185.584645809 300.0,175.735931288" stroke="#000" stroke-linecap="round" stroke-linejoin="round"/><polyline fill="none" points="201.471862576,274.264068712 199.512831455,264.415354191 193.933982822,256.066017178 185.584645809,250.487168545 175.735931288,248.528137424 165.887216768,250.487168545 157.537879754,256.066017178 151.959031121,264.415354191 150.0,274.264068712 151.959031121,284.112783232 157.537879754,292.462120246 165.887216768,298.040968879 175.735931288,300.0 185.584645809,298.040968879 193.933982822,292.462120246 199.512831455,284.112783232 201.471862576,274.264068712" stroke="#000" stroke-linecap="round" stroke-linejoin="round"/><polyline fill="none" points="201.471862576,-274.264068712 199.512831455,-284.112783232 193.933982822,-292.462120246 185.584645809,-298.040968879 175.735931288,-300.0 165.887216768,-298.040968879 157.537879754,-292.462120246 151.959031121,-284.112783232 150.0,-274.264068712 151.959031121,-264.415354191 157.537879754,-256.066017178 165.887216768,-250.487168545 175.735931288,-248.528137424 185.584645809,-250.487168545 193.933982822,-256.066017178 199.512831455,-264.415354191 201.471862576,-274.264068712" stroke="#000" stroke-linecap="round" stroke-linejoin="round"/><polyline fill="none" points="300.0,-175.735931288 298.040968879,-185.584645809 292.462120246,-193.933982822 284.112783232,-199.512831455 274.264068712,-201.471862576 264.415354191,-199.512831455 256.066017178,-193.933982822 250.487168545,-185.584645809 248.528137424,-175.735931288 250.487168545,-165.887216768 256.066017178,-157.537879754 264.415354191,-151.959031121 274.264068712,-150.0 284.112783232,-151.959031121 292.462120246,-157.537879754 298.040968879,-165.887216768 300.0,-175.735931288" stroke="#000" stroke-linecap="round" stroke-linejoin="round"/><polyline fill="none" points="-248.528137424,-175.735931288 -250.487168545,-185.584645809 -256.066017178,-193.933982822 -264.415354191,-199.512831455 -274.264068712,-201.471862576 -284.112783232,-199.512831455 -292.462120246,-193.933982822 -298.040968879,-185.584645809 -300.0,-175.735931288 -298.040968879,-165.887216768 -292.462120246,-157.537879754 -284.112783232,-151.959031121 -274.264068712,-150.0 -264.415354191,-151.959031121 -256.066017178,-157.537879754 -250.487168545,-165.887216768 -248.528137424,-175.735931288" stroke="#000" stroke-linecap="round" stroke-linejoin="round"/><polyline fill="none" points="-150.0,-274.264068712 -151.959031121,-284.112783232 -157.537879754,-292.462120246 -165.887216768,-298.040968879 -175.735931288,-300.0 -185.584645809,-298.040968879 -193.933982822,-292.462120246 -199.512831455,-284.112783232 -201.471862576,-274.264068712 -199.512831455,-264.415354191 -193.933982822,-256.066017178 -185.584645809,-250.487168545 -175.735931288,-248.528137424 -165.887216768,-250.487168545 -157.537879754,-256.066017178 -151.959031121,-264.415354191 -150.0,-274.264068712" stroke="#000" stroke-linecap="round" stroke-linejoin="round"/><polyline fill="none" points="-120.528315312,284.603763516 -122.053022041,277.923586862 -126.325155362,272.566501121 -132.498566875,269.593542825 -139.350536718,269.593542825 -145.523948232,272.566501121 -149.796081552,277.923586862 -151.320788281,284.603763516 -149.796081552,291.28394017 -145.523948232,296.641025911 -139.350536718,299.613984207 -132.498566875,299.613984207 -126.325155362,296.641025911 -122.053022041,291.28394017 -120.528315312,284.603763516" stroke="#000" stroke-linecap="round" stroke-linejoin="round"/><polyline fill="none" points="-248.528137424,175.735931288 -250.487168545,165.887216768 -256.066017178,157.537879754 -264.415354191,151.959031121 -274.264068712,150.0 -284.112783232,151.959031121 -292.462120246,157.537879754 -298.040968879,165.887216768 -300.0,175.735931288 -298.040968879,185.584645809 -292.462120246,193.933982822 -284.112783232,199.512831455 -274.264068712,201.471862576 -264.415354191,199.512831455 -256.066017178,193.933982822 -250.487168545,185.584645809 -248.528137424,175.735931288" stroke="#000" stroke-linecap="round" stroke-linejoin="round"/><polyline fill="none" points="300.0,135.924551797 298.475293271,129.244375142 294.203159951,123.887289402 288.029748438,120.914331106 281.177778594,120.914331106 275.004367081,123.887289402 270.732233761,129.244375142 269.207527031,135.924551797 270.732233761,142.604728451 275.004367081,147.961814192 281.177778594,150.934772488 288.029748438,150.934772488 294.203159951,147.961814192 298.475293271,142.604728451 300.0,135.924551797" stroke="#000" stroke-linecap="round" stroke-linejoin="round"/><polyline fill="none" points="151.320788281,284.603763516 149.796081552,277.923586862 145.523948232,272.566501121 139.350536718,269.593542825 132.498566875,269.593542825 126.325155362,272.566501121 122.053022041,277.923586862 120.528315312,284.603763516 122.053022041,291.28394017 126.325155362,296.641025911 132.498566875,299.613984207 139.350536718,299.613984207 145.523948232,296.641025911 149.796081552,291.28394017 151.320788281,284.603763516" stroke="#000" stroke-linecap="round" stroke-linejoin="round"/><polyline fill="none" points="151.320788281,-284.603763516 149.796081552,-291.28394017 145.523948232,-296.641025911 139.350536718,-299.613984207 132.498566875,-299.613984207 126.325155362,-296.641025911 122.053022041,-291.28394017 120.528315312,-284.603763516 122.053022041,-277.923586862 126.325155362,-272.566501121 132.498566875,-269.593542825 139.350536718,-269.593542825 145.523948232,-272.566501121 149.796081552,-277.923586862 151.320788281,-284.603763516" stroke="#000" stroke-linecap="round" stroke-linejoin="round"/><polyline fill="none" points="300.0,-135.924551797 298.475293271,-142.604728451 294.203159951,-147.961814192 288.029748438,-150.934772488 281.177778594,-150.934772488 275.004367081,-147.961814192 270.732233761,-142.604728451 269.207527031,-135.924551797 270.732233761,-129.244375142 275.004367081,-123.887289402 281.177778594,-120.914331106 288.029748438,-120.914331106 294.203159951,-123.887289402 298.475293271,-129.244375142 300.0,-135.924551797" stroke="#000" stroke-linecap="round" stroke-linejoin="round"/><polyline fill="none" points="-269.207527031,-135.924551797 -270.732233761,-142.604728451 -275.004367081,-147.961814192 -281.177778594,-150.934772488 -288.029748438,-150.934772488 -294.203159951,-147.961814192 -298.475293271,-142.604728451 -300.0,-135.924551797 -298.475293271,-129.244375142 -294.203159951,-123.887289402 -288.029748438,-120.914331106 -281.177778594,-120.914331106 -275.004367081,-123.887289402 -270.732233761,-129.244375142 -269.207527031,-135.924551797" stroke="#000" stroke-linecap="round" stroke-linejoin="round"/><polyline fill="none" points="-120.528315312,-284.603763516 -122.053022041,-291.28394017 -126.325155362,-296.641025911 -132.498566875,-299.613984207 -139.350536718,-299.613984207 -145.523948232,-296.641025911 -149.796081552,-291.28394017 -151.320788281,-284.603763516 -149.796081552,-277.923586862 -145.523948232,-272.566501121 -139.350536718,-269.593542825 -132.498566875,-269.593542825 -126.325155362,-272.566501121 -122.053022041,-277.923586862 -120.528315312,-284.603763516" stroke="#000" stroke-linecap="round" stroke-linejoin="round"/><polyline fill="none" points="-269.207527031,135.924551797 -270.732233761,129.244375142 -275.004367081,123.887289402 -281.177778594,120.914331106 -288.029748438,120.914331106 -294.203159951,123.887289402 -298.475293271,129.244375142 -300.0,135.924551797 -298.475293271,142.604728451 -294.203159951,147.961814192 -288.029748438,150.934772488 -281.177778594,150.934772488 -275.004367081,147.961814192 -270.732233761,142.604728451 -269.207527031,135.924551797" stroke="#000" stroke-linecap="round" stroke-linejoin="round"/><polyline fill="none" points="300.0,110.819418755 298.827743262,106.063386211 295.579522939,102.396903406 290.999467163,100.659917366 286.136811515,101.250350658 282.105531804,104.032942132 279.829145628,108.370233614 279.829145628,113.268603897 282.105531804,117.605895379 286.136811515,120.388486853 290.999467163,120.978920145 295.579522939,119.241934104 298.827743262,115.5754513 300.0,110.819418755" stroke="#000" stroke-linecap="round" stroke-linejoin="round"/><polyline fill="none" points="121.0535384,289.765880356 119.881281662,285.009847811 116.633061339,281.343365007 112.053005563,279.606378966 107.190349915,280.196812258 103.159070204,282.979403732 100.882684028,287.316695214 100.882684028,292.215065497 103.159070204,296.552356979 107.190349915,299.334948453 112.053005563,299.925381745 116.633061339,298.188395705 119.881281662,294.5219129 121.0535384,289.765880356" stroke="#000" stroke-linecap="round" stroke-linejoin="round"/><polyline fill="none" points="121.0535384,-289.765880356 119.881281662,-294.5219129 116.633061339,-298.188395705 112.053005563,-299.925381745 107.190349915,-299.334948453 103.159070204,-296.552356979 100.882684028,-292.215065497 100.882684028,-287.316695214 103.159070204,-282.979403732 107.190349915,-280.196812258 112.053005563,-279.606378966 116.633061339,-281.343365007 119.881281662,-285.009847811 121.0535384,-289.765880356" stroke="#000" stroke-linecap="round" stroke-linejoin="round"/><polyline fill="none" points="300.0,-110.819418755 298.827743262,-115.5754513 295.579522939,-119.241934104 290.999467163,-120.978920145 286.136811515,-120.388486853 282.105531804,-117.605895379 279.829145628,-113.268603897 279.829145628,-108.370233614 282.105531804,-104.032942132 286.136811515,-101.250350658 290.999467163,-100.659917366 295.579522939,-102.396903406 298.827743262,-106.063386211 300.0,-110.819418755" stroke="#000" stroke-linecap="round" stroke-linejoin="round"/><polyline fill="none" points="-279.531760711,-110.819418755 -280.704017449,-115.5754513 -283.952237772,-119.241934104 -288.532293548,-120.978920145 -293.394949196,-120.388486853 -297.426228907,-117.605895379 -299.702615083,-113.268603897 -299.702615083,-108.370233614 -297.426228907,-104.032942132 -293.394949196,-101.250350658 -288.532293548,-100.659917366 -283.952237772,-102.396903406 -280.704017449,-106.063386211 -279.531760711,-110.819418755" stroke="#000" stroke-linecap="round" stroke-linejoin="round"/><polyline fill="none" points="-100.585299111,-289.765880356 -101.757555849,-294.5219129 -105.005776172,-298.188395705 -109.585831948,-299.925381745 -114.448487596,-299.334948453 -118.479767307,-296.552356979 -120.756153483,-292.215065497 -120.756153483,-287.316695214 -118.479767307,-282.979403732 -114.448487596,-280.196812258 -109.585831948,-279.606378966 -105.005776172,-281.343365007 -101.757555849,-285.009847811 -100.585299111,-289.765880356" stroke="#000" stroke-linecap="round" stroke-linejoin="round"/><polyline fill="none" points="-279.531760711,110.819418755 -280.704017449,106.063386211 -283.952237772,102.396903406 -288.532293548,100.659917366 -293.394949196,101.250350658 -297.426228907,104.032942132 -299.702615083,108.370233614 -299.702615083,113.268603897 -297.426228907,117.605895379 -293.394949196,120.388486853 -288.532293548,120.978920145 -283.952237772,119.241934104 -280.704017449,115.5754513 -279.531760711,110.819418755" stroke="#000" stroke-linecap="round" stroke-linejoin="round"/><polyline fill="none" points="-100.585299111,289.765880356 -101.757555849,285.009847811 -105.005776172,281.343365007 -109.585831948,279.606378966 -114.448487596,280.196812258 -118.479767307,282.979403732 -120.756153483,287.316695214 -120.756153483,292.215065497 -118.479767307,296.552356979 -114.448487596,299.334948453 -109.585831948,299.925381745 -105.005776172,298.188395705 -101.757555849,294.5219129 -100.585299111,289.765880356" stroke="#000" stroke-linecap="round" stroke-linejoin="round"/><line fill="none" stroke="none" stroke-linecap="round" stroke-width="2.0" x1="0.0" x2="0.0" y1="0.0" y2="0.0"/></svg>