<?xml version="1.0" ?><!DOCTYPE svg  PUBLIC '-//W3C//DTD SVG 1.1//EN'  'http://www.w3.org/Graphics/SVG/1.1/DTD/svg11.dtd'><svg height="624.000" viewBox="-312.000 -312.000 624.000 624.000" width="624.000" xmlns="http://www.w3.org/2000/svg"><line fill="none" stroke="none" stroke-linecap="round" stroke-width="2.0" x1="0.0" x2="0.0" y1="0.0" y2="0.0"/><polygon fill="#000" fill-rule="evenodd" points="0.0,-0.0 -9.0,-5.0 -7.0,-0.0 -9.0,5.0" stroke="#000" stroke-linejoin="round"/><polyline fill="none" points="-300.0,-300.0 300.0,-300.0 300.0,300.0 -300.0,300.0 -300.0,-300.0" stroke="#000" stroke-linecap="round" stroke-linejoin="round"/><polyline fill="none" points="300.0,0.0 298.35656861,-31.3585389803 293.44428022,-62.3735072453 285.316954889,-92.7050983125 274.063637293,-122.020992923 259.807621135,-150.0 242.705098312,-176.335575688 222.943447643,-200.739181908 200.739181908,-222.943447643 176.335575688,-242.705098312 150.0,-259.807621135 122.020992923,-274.063637293 92.7050983125,-285.316954889 62.3735072453,-293.44428022 31.3585389803,-298.35656861 3.15480974677e-12,-300.0 -31.3585389803,-298.35656861 -62.3735072453,-293.44428022 -92.7050983125,-285.316954889 -122.020992923,-274.063637293 -150.0,-259.807621135 -176.335575688,-242.705098312 -200.739181908,-222.943447643 -222.943447643,-200.739181908 -242.705098312,-176.335575688 -259.807621135,-150.0 -274.063637293,-122.020992923 -285.316954889,-92.7050983125 -293.44428022,-62.3735072453 -298.35656861,-31.3585389803 -300.0,-1.01252339846e-12 -298.35656861,31.3585389803 -293.44428022,62.3735072453 -285.316954889,92.7050983125 -274.063637293,122.020992923 -259.807621135,150.0 -242.705098312,176.335575688 -222.943447643,200.739181908 -200.739181908,222.943447643 -176.335575688,242.705098312 -150.0,259.807621135 -122.020992923,274.063637293 -92.7050983125,285.316954889" stroke="#000" stroke-linecap="round" stroke-linejoin="round"/><polyline fill="none" points="-92.7050983125,285.316954889 -62.3735072453,293.44428022 -31.3585389803,298.35656861 2.09965378417e-12,300.0 31.3585389803,298.35656861 62.3735072453,293.44428022 92.7050983125,285.316954889 122.020992923,274.063637293 150.0,259.807621135 176.335575688,242.705098312 200.739181908,222.943447643 222.943447643,200.739181908 242.705098312,176.335575688 259.807621135,150.0 274.063637293,122.020992923 285.316954889,92.7050983125 293.44428022,62.3735072453 298.35656861,31.3585389803 300.0,-3.90798504668e-14" stroke="#000" stroke-linecap="round" stroke-linejoin="round"/><polyline fill="none" points="300.0,248.528137424 297.480787733,232.622457156 290.16974898,218.273735694 278.782539154,206.886525868 264.433817692,199.575487115 248.528137424,197.056274848 232.622457156,199.575487115 218.273735694,206.886525868 206.886525868,218.273735694 199.575487115,232.622457156 197.056274848,248.528137424 199.575487115,264.433817692 206.886525868,278.782539154 218.273735694,290.16974898 232.622457156,297.480787733 248.528137424,300.0 264.433817692,297.480787733 278.782539154,290.16974898 290.16974898,278.782539154 297.480787733,264.433817692 300.0,248.528137424" stroke="#000" stroke-linecap="round" stroke-linejoin="round"/><polyline fill="none" points="300.0,-248.528137424 297.480787733,-264.433817692 290.16974898,-278.782539154 278.782539154,-290.16974898 264.433817692,-297.480787733 248.528137424,-300.0 232.622457156,-297.480787733 218.273735694,-290.16974898 206.886525868,-278.782539154 199.575487115,-264.433817692 197.056274848,-248.528137424 199.575487115,-232.622457156 206.886525868,-218.273735694 218.273735694,-206.886525868 232.622457156,-199.575487115 248.528137424,-197.056274848 264.433817692,-199.575487115 278.782539154,-206.886525868 290.16974898,-218.273735694 297.480787733,-232.622457156 300.0,-248.528137424" stroke="#000" stroke-linecap="round" stroke-linejoin="round"/><polyline fill="none" points="-197.056274848,-248.528137424 -199.575487115,-264.433817692 -206.886525868,-278.782539154 -218.273735694,-290.16974898 -232.622457156,-297.480787733 -248.528137424,-300.0 -264.433817692,-297.480787733 -278.782539154,-290.16974898 -290.16974898,-278.782539154 -297.480787733,-264.433817692 -300.0,-248.528137424 -297.480787733,-232.622457156 -290.16974898,-218.273735694 -278.782539154,-206.886525868 -264.433817692,-199.575487115 -248.528137424,-197.056274848 -232.622457156,-199.575487115 -218.273735694,-206.886525868 -206.886525868,-218.273735694 -199.575487115,-232.622457156 -197.056274848,-248.528137424" stroke="#000" stroke-linecap="round" stroke-linejoin="round"/><polyline fill="none" points="-197.056274848,248.528137424 -199.575487115,232.622457156 -206.886525868,218.273735694 -218.273735694,206.886525868 -232.622457156,199.575487115 -248.528137424,197.056274848 -264.433817692,199.575487115 -278.782539154,206.886525868 -290.16974898,218.273735694 -297.480787733,232.622457156 -300.0,248.528137424 -297.480787733,264.433817692 -290.16974898,278.782539154 -278.782539154,290.16974898 -264.433817692,297.480787733 -248.528137424,300.0 -232.622457156,297.480787733 -218.273735694,290.16974898 -206.886525868,278.782539154 -199.575487115,264.433817692 -197.056274848,248.528137424" stroke="#000" stroke-linecap="round" stroke-linejoin="round"/><polyline fill="none" points="-150.0,274.264068712 -151.959031121,264.415354191 -157.537879754,256.066017178 -165.887216768,250.487168545 -175.735931288,248.528137424 -185.584645809,250.487168545 -193.933982822,256.066017178 -199.512831455,264.415354191 -201.471862576,274.264068712 -199.512831455,284.112783232 -193.933982822,292.462120246 -185.584645809,298.040968879 -175.735931288,300.0 -165.887216768,298.040968879 -157.537879754,292.462120246 -151.959031121,284.112783232 -150.0,274.264068712" stroke="#000" stroke-linecap="round" stroke-linejoin="round"/><polyline fill="none" points="300.0,175.735931288 298.040968879,165.887216768 292.462120246,157.537879754 284.112783232,151.959031121 274.264068712,150.0 264.415354191,151.959031121 256.066017178,157.537879754 250.487168545,165.887216768 248.528137424,175.735931288 250.487168545,185.584645809 256.066017178,193.933982822 264.415354191,199.512831455 274.264068712,201.471862576 284.112783232,199.512831455 292.462120246,193.933982822 298.040968879,185.584645809 300.0,175.735931288" stroke="#000" stroke-linecap="round" stroke-linejoin="round"/><polyline fill="none" points="201.471862576,274.264068712 199.512831455,264.415354191 193.933982822,256.066017178 185.584645809,250.487168545 175.735931288,248.528137424 165.887216768,250.487168545 157.537879754,256.066017178 151.959031121,264.415354191 150.0,274.264068712 151.959031121,284.112783232 157.537879754,292.462120246 165.887216768,298.040968879 175.735931288,300.0 185.584645809,298.040968879 193.933982822,292.462120246 199.512831455,284.112783232 201.471862576,274.264068712" stroke="#000" stroke-linecap="round" stroke-linejoin="round"/><polyline fill="none" points="201.471862576,-274.264068712 199.512831455,-284.112783232 193.933982822,-292.462120246 185.584645809,-298.040968879 175.735931288,-300.0 165.887216768,-298.040968879 157.537879754,-292.462120246 151.959031121,-284.112783232 150.0,-274.264068712 151.959031121,-264.415354191 157.537879754,-256.066017178 165.887216768,-250.487168545 175.735931288,-248.528137424 185.584645809,-250.487168545 193.933982822,-256.066017178 199.512831455,-264.415354191 201.471862576,-274.264068712" stroke="#000" stroke-linecap="round" stroke-linejoin="round"/><polyline fill="none" points="300.0,-175.735931288 298.040968879,-185.584645809 292.462120246,-193.933982822 284.112783232,-199.512831455 274.264068712,-201.471862576 264.415354191,-199.512831455 256.066017178,-193.933982822 250.487168545,-185.584645809 248.528137424,-175.735931288 250.487168545,-165.887216768 256.066017178,-157.537879754 264.415354191,-151.959031121 274.264068712,-150.0 284.112783232,-151.959031121 292.462120246,-157.537879754 298.040968879,-165.887216768 300.0,-175.735931288" stroke="#000" stroke-linecap="round" stroke-linejoin="round"/><polyline fill="none" points="-248.528137424,-175.735931288 -250.487168545,-185.584645809 -256.066017178,-193.933982822 -264.415354191,-199.512831455 -274.264068712,-201.471862576 -284.112783232,-199.512831455 -292.462120246,-193.933982822 -298.040968879,-185.584645809 -300.0,-175.735931288 -298.040968879,-165.887216768 -292.462120246,-157.537879754 -284.112783232,-151.959031121 -274.264068712,-150.0 -264.415354191,-151.959031121 -256.066017178,-157.537879754 -250.487168545,-165.887216768 -248.528137424,-175.735931288" stroke="#000" stroke-linecap="round" stroke-linejoin="round"/><polyline fill="none" points="-150.0,-274.264068712 -151.959031121,-284.112783232 -157.537879754,-292.462120246 -165.887216768,-298.040968879 -175.735931288,-300.0 -185.584645809,-298.040968879 -193.933982822,-292.462120246 -199.512831455,-284.112783232 -201.471862576,-274.264068712 -199.512831455,-264.415354191 -193.933982822,-256.066017178 -185.584645809,-250.487168545 -175.735931288,-248.528137424 -165.887216768,-250.487168545 -157.537879754,-256.066017178 -151.959031121,-264.415354191 -150.0,-274.264068712" stroke="#000" stroke-linecap="round" stroke-linejoin="round"/><polyline fill="none" points="-120.528315312,284.603763516 -122.053022041,277.923586862 -126.325155362,272.566501121 -132.498566875,269.593542825 -139.350536718,269.593542825 -145.523948232,272.566501121 -149.796081552,277.923586862 -151.320788281,284.603763516 -149.796081552,291.28394017 -145.523948232,296.641025911 -139.350536718,299.613984207 -132.498566875,299.613984207 -126.325155362,296.641025911 -122.053022041,291.28394017 -120.528315312,284.603763516" stroke="#000" stroke-linecap="round" stroke-linejoin="round"/><polyline fill="none" points="-248.528137424,175.735931288 -250.487168545,165.887216768 -256.066017178,157.537879754 -264.415354191,151.959031121 -274.264068712,150.0 -284.112783232,151.959031121 -292.462120246,157.537879754 -298.040968879,165.887216768 -300.0,175.735931288 -298.040968879,185.584645809 -292.462120246,193.933982822 -284.112783232,199.512831455 -274.264068712,201.471862576 -264.415354191,199.512831455 -256.066017178,193.933982822 -250.487168545,185.584645809 -248.528137424,175.735931288" stroke="#000" stroke-linecap="round" stroke-linejoin="round"/><polyline fill="none" points="300.0,135.924551797 298.475293271,129.244375142 294.203159951,123.887289402 288.029748438,120.914331106 281.177778594,120.914331106 275.004367081,123.887289402 270.732233761,129.244375142 269.207527031,135.924551797 270.732233761,142.604728451 275.004367081,147.961814192 281.177778594,150.934772488 288.029748438,150.934772488 294.203159951,147.961814192 298.475293271,142.604728451 300.0,135.924551797" stroke="#000" stroke-linecap="round" stroke-linejoin="round"/><polyline fill="none" points="151.320788281,284.603763516 149.796081552,277.923586862 145.523948232,272.566501121 139.350536718,269.593542825 132.498566875,269.593542825 126.325155362,272.566501121 122.053022041,277.923586862 120.528315312,284.603763516 122.053022041,291.28394017 126.325155362,296.641025911 132.498566875,299.613984207 139.350536718,299.613984207 145.523948232,296.641025911 149.796081552,291.28394017 151.320788281,284.603763516" stroke="#000" stroke-linecap="round" stroke-linejoin="round"/><polyline fill="none" points="151.320788281,-284.603763516 149.796081552,-291.28394017 145.523948232,-296.641025911 139.350536718,-299.613984207 132.498566875,-299.613984207 126.325155362,-296.641025911 122.053022041,-291.28394017 120.528315312,-284.603763516 122.053022041,-277.923586862 126.325155362,-272.566501121 132.498566875,-269.593542825 139.350536718,-269.593542825 145.523948232,-272.566501121 149.796081552,-277.923586862 151.320788281,-284.603763516" stroke="#000" stroke-linecap="round" stroke-linejoin="round"/><polyline fill="none" points="300.0,-135.924551797 298.475293271,-142.604728451 294.203159951,-147.961814192 288.029748438,-150.934772488 281.177778594,-150.934772488 275.004367081,-147.961814192 270.732233761,-142.604728451 269.207527031,-135.924551797 270.732233761,-129.244375142 275.004367081,-123.887289402 281.177778594,-120.914331106 288.029748438,-120.914331106 294.203159951,-123.887289402 298.475293271,-129.244375142 300.0,-135.924551797" stroke="#000" stroke-linecap="round" stroke-linejoin="round"/><polyline fill="none" points="-269.207527031,-135.924551797 -270.732233761,-142.604728451 -275.004367081,-147.961814192 -281.177778594,-150.934772488 -288.029748438,-150.934772488 -294.203159951,-147.961814192 -298.475293271,-142.604728451 -300.0,-135.924551797 -298.475293271,-129.244375142 -294.203159951,-123.887289402 -288.029748438,-120.914331106 -281.177778594,-120.914331106 -275.004367081,-123.887289402 -270.732233761,-129.244375142 -269.207527031,-135.924551797" stroke="#000" stroke-linecap="round" stroke-linejoin="round"/><line fill="none" stroke="none" stroke-linecap="round" stroke-width="2.0" x1="0.0" x2="0.0" y1="0.0" y2="0.0"/></svg>