<?xml version="1.0" ?><!DOCTYPE svg  PUBLIC '-//W3C//DTD SVG 1.1//EN'  'http://www.w3.org/Graphics/SVG/1.1/DTD/svg11.dtd'><svg height="624.000" viewBox="-312.000 -312.000 624.000 624.000" width="624.000" xmlns="http://www.w3.org/2000/svg"><line fill="none" stroke="none" stroke-linecap="round" stroke-width="2.0" x1="0.0" x2="0.0" y1="0.0" y2="0.0"/><polygon fill="#000" fill-rule="evenodd" points="0.0,-0.0 -9.0,-5.0 -7.0,-0.0 -9.0,5.0" stroke="#000" stroke-linejoin="round"/><polyline fill="none" points="-300.0,-300.0 300.0,-300.0 300.0,300.0 -300.0,300.0 -300.0,-300.0" stroke="#000" stroke-linecap="round" stroke-linejoin="round"/><polyline fill="none" points="300.0,0.0 298.35656861,-31.3585389803 293.44428022,-62.3735072453 285.316954889,-92.7050983125 274.063637293,-122.020992923 259.807621135,-150.0 242.705098312,-176.335575688 222.943447643,-200.739181908 200.739181908,-222.943447643 176.335575688,-242.705098312 150.0,-259.807621135 122.020992923,-274.063637293 92.7050983125,-285.316954889 62.3735072453,-293.44428022 31.3585389803,-298.35656861 6.37712105345e-12,-300.0 -31.3585389803,-298.35656861 -62.3735072453,-293.44428022 -92.7050983125,-285.316954889 -122.020992923,-274.063637293 -150.0,-259.807621135 -176.335575688,-242.705098312 -200.739181908,-222.943447643 -222.943447643,-200.739181908 -242.705098312,-176.335575688 -259.807621135,-150.0 -274.063637293,-122.020992923 -285.316954889,-92.7050983125 -293.44428022,-62.3735072453 -298.35656861,-31.3585389803 -300.0,-2.05702122003e-12 -298.35656861,31.3585389803 -293.44428022,62.3735072453 -285.316954889,92.7050983125 -274.063637293,122.020992923 -259.807621135,150.0 -242.705098312,176.335575688 -222.943447643,200.739181908 -200.739181908,222.943447643 -176.335575688,242.705098312 -150.0,259.807621135 -122.020992923,274.063637293 -92.7050983125,285.316954889" stroke="#000" stroke-linecap="round" stroke-linejoin="round"/><polyline fill="none" points="-92.7050983125,285.316954889 -62.3735072453,293.44428022 -31.3585389803,298.35656861 4.19930756834e-12,300.0 31.3585389803,298.35656861 62.3735072453,293.44428022 92.7050983125,285.316954889 122.020992923,274.063637293 150.0,259.807621135 176.335575688,242.705098312 200.739181908,222.943447643 222.943447643,200.739181908 242.705098312,176.335575688 259.807621135,150.0 274.063637293,122.020992923 285.316954889,92.7050983125 293.44428022,62.3735072453 298.35656861,31.3585389803 300.0,2.13162820728e-14" stroke="#000" stroke-linecap="round" stroke-linejoin="round"/><polyline fill="none" points="300.0,248.528137424 297.480787733,232.622457156 290.16974898,218.273735694 278.782539154,206.886525868 264.433817692,199.575487115 248.528137424,197.056274848 232.622457156,199.575487115 218.273735694,206.886525868 206.886525868,218.273735694 199.575487115,232.622457156 197.056274848,248.528137424 199.575487115,264.433817692 206.886525868,278.782539154 218.273735694,290.16974898 232.622457156,297.480787733 248.528137424,300.0 264.433817692,297.480787733 278.782539154,290.16974898 290.16974898,278.782539154 297.480787733,264.433817692 300.0,248.528137424" stroke="#000" stroke-linecap="round" stroke-linejoin="round"/><polyline fill="none" points="300.0,-248.528137424 297.480787733,-264.433817692 290.16974898,-278.782539154 278.782539154,-290.16974898 264.433817692,-297.480787733 248.528137424,-300.0 232.622457156,-297.480787733 218.273735694,-290.16974898 206.886525868,-278.782539154 199.575487115,-264.433817692 197.056274848,-248.528137424 199.575487115,-232.622457156 206.886525868,-218.273735694 218.273735694,-206.886525868 232.622457156,-199.575487115 248.528137424,-197.056274848 264.433817692,-199.575487115 278.782539154,-206.886525868 290.16974898,-218.273735694 297.480787733,-232.622457156 300.0,-248.528137424" stroke="#000" stroke-linecap="round" stroke-linejoin="round"/><polyline fill="none" points="-197.056274848,-248.528137424 -199.575487115,-264.433817692 -206.886525868,-278.782539154 -218.273735694,-290.16974898 -232.622457156,-297.480787733 -248.528137424,-300.0 -264.433817692,-297.480787733 -278.782539154,-290.16974898 -290.16974898,-278.782539154 -297.480787733,-264.433817692 -300.0,-248.528137424 -297.480787733,-232.622457156 -290.16974898,-218.273735694 -278.782539154,-206.886525868 -264.433817692,-199.575487115 -248.528137424,-197.056274848 -232.622457156,-199.575487115 -218.273735694,-206.886525868 -206.886525868,-218.273735694 -199.575487115,-232.622457156 -197.056274848,-248.528137424" stroke="#000" stroke-linecap="round" stroke-linejoin="round"/><polyline fill="none" points="-197.056274848,248.528137424 -199.575487115,232.622457156 -206.886525868,218.273735694 -218.273735694,206.886525868 -232.622457156,199.575487115 -248.528137424,197.056274848 -264.433817692,199.575487115 -278.782539154,206.886525868 -290.16974898,218.273735694 -297.480787733,232.622457156 -300.0,248.528137424 -297.480787733,264.433817692 -290.16974898,278.782539154 -278.782539154,290.16974898 -264.433817692,297.480787733 -248.528137424,300.0 -232.622457156,297.480787733 -218.273735694,290.16974898 -206.886525868,278.782539154 -199.575487115,264.433817692 -197.056274848,248.528137424" stroke="#000" stroke-linecap="round" stroke-linejoin="round"/><polyline fill="none" points="-150.0,274.264068712 -151.959031121,264.415354191 -157.537879754,256.066017178 -165.887216768,250.487168545 -175.735931288,248.528137424 -185.584645809,250.487168545 -193.933982822,256.066017178 -199.512831455,264.415354191 -201.471862576,274.264068712 -199.512831455,284.112783232 -193.933982822,292.462120246 -185.584645809,298.040968879 -175.735931288,300.0 -165.887216768,298.040968879 -157.537879754,292.462120246 -151.959031121,284.112783232 -150.0,274.264068712" stroke="#000" stroke-linecap="round" stroke-linejoin="round"/><polyline fill="none" points="300.0,175.735931288 298.040968879,165.887216768 292.462120246,157.537879754 284.112783232,151.959031121 274.264068712,150.0 264.415354191,151.959031121 256.066017178,157.537879754 250.487168545,165.887216768 248.528137424,175.735931288 250.487168545,185.584645809 256.066017178,193.933982822 264.415354191,199.512831455 274.264068712,201.471862576 284.112783232,199.512831455 292.462120246,193.933982822 298.040968879,185.584645809 300.0,175.735931288" stroke="#000" stroke-linecap="round" stroke-linejoin="round"/><polyline fill="none" points="201.471862576,274.264068712 199.512831455,264.415354191 193.933982822,256.066017178 185.584645809,250.487168545 175.735931288,248.528137424 165.887216768,250.487168545 157.537879754,256.066017178 151.959031121,264.415354191 150.0,274.264068712 151.959031121,284.112783232 157.537879754,292.462120246 165.887216768,298.040968879 175.735931288,300.0 185.584645809,298.040968879 193.933982822,292.462120246 199.512831455,284.112783232 201.471862576,274.264068712" stroke="#000" stroke-linecap="round" stroke-linejoin="round"/><polyline fill="none" points="201.471862576,-274.264068712 199.512831455,-284.112783232 193.933982822,-292.462120246 185.584645809,-298.040968879 175.735931288,-300.0 165.887216768,-298.040968879 157.537879754,-292.462120246 151.959031121,-284.112783232 150.0,-274.264068712 151.959031121,-264.415354191 157.537879754,-256.066017178 165.887216768,-250.487168545 175.735931288,-248.528137424 185.584645809,-250.487168545 193.933982822,-256.066017178 199.512831455,-264.415354191 201.471862576,-274.264068712" stroke="#000" stroke-linecap="round" stroke-linejoin="round"/><polyline fill="none" points="300.0,-175.735931288 298.040968879,-185.584645809 292.462120246,-193.933982822 284.112783232,-199.512831455 274.264068712,-201.471862576 264.415354191,-199.512831455 256.066017178,-193.933982822 250.487168545,-185.584645809 248.528137424,-175.735931288 250.487168545,-165.887216768 256.066017178,-157.537879754 264.415354191,-151.959031121 274.264068712,-150.0 284.112783232,-151.959031121 292.462120246,-157.537879754 298.040968879,-165.887216768 300.0,-175.735931288" stroke="#000" stroke-linecap="round" stroke-linejoin="round"/><polyline fill="none" points="-248.528137424,-175.735931288 -250.487168545,-185.584645809 -256.066017178,-193.933982822 -264.415354191,-199.512831455 -274.264068712,-201.471862576 -284.112783232,-199.512831455 -292.462120246,-193.933982822 -298.040968879,-185.584645809 -300.0,-175.735931288 -298.040968879,-165.887216768 -292.462120246,-157.537879754 -284.112783232,-151.959031121 -274.264068712,-150.0 -264.415354191,-151.959031121 -256.066017178,-157.537879754 -250.487168545,-165.887216768 -248.528137424,-175.735931288" stroke="#000" stroke-linecap="round" stroke-linejoin="round"/><polyline fill="none" points="-150.0,-274.264068712 -151.959031121,-284.112783232 -157.537879754,-292.462120246 -165.887216768,-298.040968879 -175.735931288,-300.0 -185.584645809,-298.040968879 -193.933982822,-292.462120246 -199.512831455,-284.112783232 -201.471862576,-274.264068712 -199.512831455,-264.415354191 -193.933982822,-256.066017178 -185.584645809,-250.487168545 -175.735931288,-248.528137424 -165.887216768,-250.487168545 -157.537879754,-256.066017178 -151.959031121,-264.415354191 -150.0,-274.264068712" stroke="#000" stroke-linecap="round" stroke-linejoin="round"/><polyline fill="none" points="-120.528315312,284.603763516 -122.053022041,277.923586862 -126.325155362,272.566501121 -132.498566875,269.593542825 -139.350536718,269.593542825 -145.523948232,272.566501121 -149.796081552,277.923586862 -151.320788281,284.603763516 -149.796081552,291.28394017 -145.523948232,296.641025911 -139.350536718,299.613984207 -132.498566875,299.613984207 -126.325155362,296.641025911 -122.053022041,291.28394017 -120.528315312,284.603763516" stroke="#000" stroke-linecap="round" stroke-linejoin="round"/><polyline fill="none" points="-248.528137424,175.735931288 -250.487168545,165.887216768 -256.066017178,157.537879754 -264.415354191,151.959031121 -274.264068712,150.0 -284.112783232,151.959031121 -292.462120246,157.537879754 -298.040968879,165.887216768 -300.0,175.735931288 -298.040968879,185.584645809 -292.462120246,193.933982822 -284.112783232,199.512831455 -274.264068712,201.471862576 -264.415354191,199.512831455 -256.066017178,193.933982822 -250.487168545,185.584645809 -248.528137424,175.735931288" stroke="#000" stroke-linecap="round" stroke-linejoin="round"/><polyline fill="none" points="300.0,135.924551797 298.475293271,129.244375142 294.203159951,123.887289402 288.029748438,120.914331106 281.177778594,120.914331106 275.004367081,123.887289402 270.732233761,129.244375142 269.207527031,135.924551797 270.732233761,142.604728451 275.004367081,147.961814192 281.177778594,150.934772488 288.029748438,150.934772488 294.203159951,147.961814192 298.475293271,142.604728451 300.0,135.924551797" stroke="#000" stroke-linecap="round" stroke-linejoin="round"/><polyline fill="none" points="151.320788281,284.603763516 149.796081552,277.923586862 145.523948232,272.566501121 139.350536718,269.593542825 132.498566875,269.593542825 126.325155362,272.566501121 122.053022041,277.923586862 120.528315312,284.603763516 122.053022041,291.28394017 126.325155362,296.641025911 132.498566875,299.613984207 139.350536718,299.613984207 145.523948232,296.641025911 149.796081552,291.28394017 151.320788281,284.603763516" stroke="#000" stroke-linecap="round" stroke-linejoin="round"/><polyline fill="none" points="151.320788281,-284.603763516 149.796081552,-291.28394017 145.523948232,-296.641025911 139.350536718,-299.613984207 132.498566875,-299.613984207 126.325155362,-296.641025911 122.053022041,-291.28394017 120.528315312,-284.603763516 122.053022041,-277.923586862 126.325155362,-272.566501121 132.498566875,-269.593542825 139.350536718,-269.593542825 145.523948232,-272.566501121 149.796081552,-277.923586862 151.320788281,-284.603763516" stroke="#000" stroke-linecap="round" stroke-linejoin="round"/><polyline fill="none" points="300.0,-135.924551797 298.475293271,-142.604728451 294.203159951,-147.961814192 288.029748438,-150.934772488 281.177778594,-150.934772488 275.004367081,-147.961814192 270.732233761,-142.604728451 269.207527031,-135.924551797 270.732233761,-129.244375142 275.004367081,-123.887289402 281.177778594,-120.914331106 288.029748438,-120.914331106 294.203159951,-123.887289402 298.475293271,-129.244375142 300.0,-135.924551797" stroke="#000" stroke-linecap="round" stroke-linejoin="round"/><polyline fill="none" points="-269.207527031,-135.924551797 -270.732233761,-142.604728451 -275.004367081,-147.961814192 -281.177778594,-150.934772488 -288.029748438,-150.934772488 -294.203159951,-147.961814192 -298.475293271,-142.604728451 -300.0,-135.924551797 -298.475293271,-129.244375142 -294.203159951,-123.887289402 -288.029748438,-120.914331106 -281.177778594,-120.914331106 -275.004367081,-123.887289402 -270.732233761,-129.244375142 -269.207527031,-135.924551797" stroke="#000" stroke-linecap="round" stroke-linejoin="round"/><polyline fill="none" points="-120.528315312,-284.603763516 -122.053022041,-291.28394017 -126.325155362,-296.641025911 -132.498566875,-299.613984207 -139.350536718,-299.613984207 -145.523948232,-296.641025911 -149.796081552,-291.28394017 -151.320788281,-284.603763516 -149.796081552,-277.923586862 -145.523948232,-272.566501121 -139.350536718,-269.593542825 -132.498566875,-269.593542825 -126.325155362,-272.566501121 -122.053022041,-277.923586862 -120.528315312,-284.603763516" stroke="#000" stroke-linecap="round" stroke-linejoin="round"/><polyline fill="none" points="-269.207527031,135.924551797 -270.732233761,129.244375142 -275.004367081,123.887289402 -281.177778594,120.914331106 -288.029748438,120.914331106 -294.203159951,123.887289402 -298.475293271,129.244375142 -300.0,135.924551797 -298.475293271,142.604728451 -294.203159951,147.961814192 -288.029748438,150.934772488 -281.177778594,150.934772488 -275.004367081,147.961814192 -270.732233761,142.604728451 -269.207527031,135.924551797" stroke="#000" stroke-linecap="round" stroke-linejoin="round"/><polyline fill="none" points="300.0,110.819418755 298.827743262,106.063386211 295.579522939,102.396903406 290.999467163,100.659917366 286.136811515,101.250350658 282.105531804,104.032942132 279.829145628,108.370233614 279.829145628,113.268603897 282.105531804,117.605895379 286.136811515,120.388486853 290.999467163,120.978920145 295.579522939,119.241934104 298.827743262,115.5754513 300.0,110.819418755" stroke="#000" stroke-linecap="round" stroke-linejoin="round"/><polyline fill="none" points="121.0535384,289.765880356 119.881281662,285.009847811 116.633061339,281.343365007 112.053005563,279.606378966 107.190349915,280.196812258 103.159070204,282.979403732 100.882684028,287.316695214 100.882684028,292.215065497 103.159070204,296.552356979 107.190349915,299.334948453 112.053005563,299.925381745 116.633061339,298.188395705 119.881281662,294.5219129 121.0535384,289.765880356" stroke="#000" stroke-linecap="round" stroke-linejoin="round"/><polyline fill="none" points="121.0535384,-289.765880356 119.881281662,-294.5219129 116.633061339,-298.188395705 112.053005563,-299.925381745 107.190349915,-299.334948453 103.159070204,-296.552356979 100.882684028,-292.215065497 100.882684028,-287.316695214 103.159070204,-282.979403732 107.190349915,-280.196812258 112.053005563,-279.606378966 116.633061339,-281.343365007 119.881281662,-285.009847811 121.0535384,-289.765880356" stroke="#000" stroke-linecap="round" stroke-linejoin="round"/><polyline fill="none" points="300.0,-110.819418755 298.827743262,-115.5754513 295.579522939,-119.241934104 290.999467163,-120.978920145 286.136811515,-120.388486853 282.105531804,-117.605895379 279.829145628,-113.268603897 279.829145628,-108.370233614 282.105531804,-104.032942132 286.136811515,-101.250350658 290.999467163,-100.659917366 295.579522939,-102.396903406 298.827743262,-106.063386211 300.0,-110.819418755" stroke="#000" stroke-linecap="round" stroke-linejoin="round"/><polyline fill="none" points="-279.531760711,-110.819418755 -280.704017449,-115.5754513 -283.952237772,-119.241934104 -288.532293548,-120.978920145 -293.394949196,-120.388486853 -297.426228907,-117.605895379 -299.702615083,-113.268603897 -299.702615083,-108.370233614 -297.426228907,-104.032942132 -293.394949196,-101.250350658 -288.532293548,-100.659917366 -283.952237772,-102.396903406 -280.704017449,-106.063386211 -279.531760711,-110.819418755" stroke="#000" stroke-linecap="round" stroke-linejoin="round"/><polyline fill="none" points="-100.585299111,-289.765880356 -101.757555849,-294.5219129 -105.005776172,-298.188395705 -109.585831948,-299.925381745 -114.448487596,-299.334948453 -118.479767307,-296.552356979 -120.756153483,-292.215065497 -120.756153483,-287.316695214 -118.479767307,-282.979403732 -114.448487596,-280.196812258 -109.585831948,-279.606378966 -105.005776172,-281.343365007 -101.757555849,-285.009847811 -100.585299111,-289.765880356" stroke="#000" stroke-linecap="round" stroke-linejoin="round"/><polyline fill="none" points="-279.531760711,110.819418755 -280.704017449,106.063386211 -283.952237772,102.396903406 -288.532293548,100.659917366 -293.394949196,101.250350658 -297.426228907,104.032942132 -299.702615083,108.370233614 -299.702615083,113.268603897 -297.426228907,117.605895379 -293.394949196,120.388486853 -288.532293548,120.978920145 -283.952237772,119.241934104 -280.704017449,115.5754513 -279.531760711,110.819418755" stroke="#000" stroke-linecap="round" stroke-linejoin="round"/><polyline fill="none" points="-100.585299111,289.765880356 -101.757555849,285.009847811 -105.005776172,281.343365007 -109.585831948,279.606378966 -114.448487596,280.196812258 -118.479767307,282.979403732 -120.756153483,287.316695214 -120.756153483,292.215065497 -118.479767307,296.552356979 -114.448487596,299.334948453 -109.585831948,299.925381745 -105.005776172,298.188395705 -101.757555849,294.5219129 -100.585299111,289.765880356" stroke="#000" stroke-linecap="round" stroke-linejoin="round"/><polyline fill="none" points="300.0,291.168824543 298.988442065,287.064772672 296.185503992,283.900909625 292.233305115,282.402038298 288.037246568,282.911532049 284.558594795,285.312671999 282.594266995,289.055385922 282.594266995,293.282263164 284.558594795,297.024977087 288.037246568,299.426117037 292.233305115,299.935610788 296.185503992,298.436739461 298.988442065,295.272876414 300.0,291.168824543" stroke="#000" stroke-linecap="round" stroke-linejoin="round"/><polyline fill="none" points="300.0,-291.168824543 298.988442065,-295.272876414 296.185503992,-298.436739461 292.233305115,-299.935610788 288.037246568,-299.426117037 284.558594795,-297.024977087 282.594266995,-293.282263164 282.594266995,-289.055385922 284.558594795,-285.312671999 288.037246568,-282.911532049 292.233305115,-282.402038298 296.185503992,-283.900909625 298.988442065,-287.064772672 300.0,-291.168824543" stroke="#000" stroke-linecap="round" stroke-linejoin="round"/><polyline fill="none" points="-282.337649086,-291.168824543 -283.349207021,-295.272876414 -286.152145094,-298.436739461 -290.104343971,-299.935610788 -294.300402518,-299.426117037 -297.779054292,-297.024977087 -299.743382091,-293.282263164 -299.743382091,-289.055385922 -297.779054292,-285.312671999 -294.300402518,-282.911532049 -290.104343971,-282.402038298 -286.152145094,-283.900909625 -283.349207021,-287.064772672 -282.337649086,-291.168824543" stroke="#000" stroke-linecap="round" stroke-linejoin="round"/><polyline fill="none" points="-282.337649086,291.168824543 -283.349207021,287.064772672 -286.152145094,283.900909625 -290.104343971,282.402038298 -294.300402518,282.911532049 -297.779054292,285.312671999 -299.743382091,289.055385922 -299.743382091,293.282263164 -297.779054292,297.024977087 -294.300402518,299.426117037 -290.104343971,299.935610788 -286.152145094,298.436739461 -283.349207021,295.272876414 -282.337649086,291.168824543" stroke="#000" stroke-linecap="round" stroke-linejoin="round"/><polyline fill="none" points="-197.056274848,-291.168824543 -198.067832783,-295.272876414 -200.870770855,-298.436739461 -204.822969732,-299.935610788 -209.01902828,-299.426117037 -212.497680053,-297.024977087 -214.462007853,-293.282263164 -214.462007853,-289.055385922 -212.497680053,-285.312671999 -209.01902828,-282.911532049 -204.822969732,-282.402038298 -200.870770855,-283.900909625 -198.067832783,-287.064772672 -197.056274848,-291.168824543" stroke="#000" stroke-linecap="round" stroke-linejoin="round"/><polyline fill="none" points="214.718625761,-291.168824543 213.707067826,-295.272876414 210.904129754,-298.436739461 206.951930877,-299.935610788 202.755872329,-299.426117037 199.277220556,-297.024977087 197.312892756,-293.282263164 197.312892756,-289.055385922 199.277220556,-285.312671999 202.755872329,-282.911532049 206.951930877,-282.402038298 210.904129754,-283.900909625 213.707067826,-287.064772672 214.718625761,-291.168824543" stroke="#000" stroke-linecap="round" stroke-linejoin="round"/><polyline fill="none" points="214.718625761,291.168824543 213.707067826,287.064772672 210.904129754,283.900909625 206.951930877,282.402038298 202.755872329,282.911532049 199.277220556,285.312671999 197.312892756,289.055385922 197.312892756,293.282263164 199.277220556,297.024977087 202.755872329,299.426117037 206.951930877,299.935610788 210.904129754,298.436739461 213.707067826,295.272876414 214.718625761,291.168824543" stroke="#000" stroke-linecap="round" stroke-linejoin="round"/><polyline fill="none" points="300.0,-205.887450305 298.988442065,-209.991502176 296.185503992,-213.155365222 292.233305115,-214.654236549 288.037246568,-214.144742799 284.558594795,-211.743602849 282.594266995,-208.000888925 282.594266995,-203.774011684 284.558594795,-200.03129776 288.037246568,-197.63015781 292.233305115,-197.12066406 296.185503992,-198.619535387 298.988442065,-201.783398433 300.0,-205.887450305" stroke="#000" stroke-linecap="round" stroke-linejoin="round"/><polyline fill="none" points="-282.337649086,-205.887450305 -283.349207021,-209.991502176 -286.152145094,-213.155365222 -290.104343971,-214.654236549 -294.300402518,-214.144742799 -297.779054292,-211.743602849 -299.743382091,-208.000888925 -299.743382091,-203.774011684 -297.779054292,-200.03129776 -294.300402518,-197.63015781 -290.104343971,-197.12066406 -286.152145094,-198.619535387 -283.349207021,-201.783398433 -282.337649086,-205.887450305" stroke="#000" stroke-linecap="round" stroke-linejoin="round"/><polyline fill="none" points="-282.337649086,205.887450305 -283.349207021,201.783398433 -286.152145094,198.619535387 -290.104343971,197.12066406 -294.300402518,197.63015781 -297.779054292,200.03129776 -299.743382091,203.774011684 -299.743382091,208.000888925 -297.779054292,211.743602849 -294.300402518,214.144742799 -290.104343971,214.654236549 -286.152145094,213.155365222 -283.349207021,209.991502176 -282.337649086,205.887450305" stroke="#000" stroke-linecap="round" stroke-linejoin="round"/><polyline fill="none" points="300.0,205.887450305 298.988442065,201.783398433 296.185503992,198.619535387 292.233305115,197.12066406 288.037246568,197.63015781 284.558594795,200.03129776 282.594266995,203.774011684 282.594266995,208.000888925 284.558594795,211.743602849 288.037246568,214.144742799 292.233305115,214.654236549 296.185503992,213.155365222 298.988442065,209.991502176 300.0,205.887450305" stroke="#000" stroke-linecap="round" stroke-linejoin="round"/><polyline fill="none" points="-235.083487467,-189.180581245 -236.012961886,-192.951607197 -238.588453753,-195.85873655 -242.21994892,-197.235981003 -246.075515608,-196.767830449 -249.271889955,-194.561532539 -251.076821116,-191.122523535 -251.076821116,-187.238638955 -249.271889955,-183.79962995 -246.075515608,-181.59333204 -242.21994892,-181.125181486 -238.588453753,-182.502425939 -236.012961886,-185.409555292 -235.083487467,-189.180581245" stroke="#000" stroke-linecap="round" stroke-linejoin="round"/><polyline fill="none" points="-197.056274848,291.168824543 -198.067832783,287.064772672 -200.870770855,283.900909625 -204.822969732,282.402038298 -209.01902828,282.911532049 -212.497680053,285.312671999 -214.462007853,289.055385922 -214.462007853,293.282263164 -212.497680053,297.024977087 -209.01902828,299.426117037 -204.822969732,299.935610788 -200.870770855,298.436739461 -198.067832783,295.272876414 -197.056274848,291.168824543" stroke="#000" stroke-linecap="round" stroke-linejoin="round"/><polyline fill="none" points="-235.083487467,189.180581245 -236.012961886,185.409555292 -238.588453753,182.502425939 -242.21994892,181.125181486 -246.075515608,181.59333204 -249.271889955,183.79962995 -251.076821116,187.238638955 -251.076821116,191.122523535 -249.271889955,194.561532539 -246.075515608,196.767830449 -242.21994892,197.235981003 -238.588453753,195.85873655 -236.012961886,192.951607197 -235.083487467,189.180581245" stroke="#000" stroke-linecap="round" stroke-linejoin="round"/><polyline fill="none" points="-181.066017178,243.198051534 -181.995491596,239.427025581 -184.570983463,236.519896228 -188.20247863,235.142651776 -192.058045319,235.610802329 -195.254419665,237.81710024 -197.059350827,241.256109244 -197.059350827,245.139993824 -195.254419665,248.579002828 -192.058045319,250.785300739 -188.20247863,251.253451292 -184.570983463,249.87620684 -181.995491596,246.969077487 -181.066017178,243.198051534" stroke="#000" stroke-linecap="round" stroke-linejoin="round"/><polyline fill="none" points="251.312615601,-189.180581245 250.383141182,-192.951607197 247.807649315,-195.85873655 244.176154148,-197.235981003 240.32058746,-196.767830449 237.124213113,-194.561532539 235.319281952,-191.122523535 235.319281952,-187.238638955 237.124213113,-183.79962995 240.32058746,-181.59333204 244.176154148,-181.125181486 247.807649315,-182.502425939 250.383141182,-185.409555292 251.312615601,-189.180581245" stroke="#000" stroke-linecap="round" stroke-linejoin="round"/><polyline fill="none" points="197.295145311,-243.198051534 196.365670893,-246.969077487 193.790179026,-249.87620684 190.158683859,-251.253451292 186.30311717,-250.785300739 183.106742824,-248.579002828 181.301811662,-245.139993824 181.301811662,-241.256109244 183.106742824,-237.81710024 186.30311717,-235.610802329 190.158683859,-235.142651776 193.790179026,-236.519896228 196.365670893,-239.427025581 197.295145311,-243.198051534" stroke="#000" stroke-linecap="round" stroke-linejoin="round"/><polyline fill="none" points="251.312615601,189.180581245 250.383141182,185.409555292 247.807649315,182.502425939 244.176154148,181.125181486 240.32058746,181.59333204 237.124213113,183.79962995 235.319281952,187.238638955 235.319281952,191.122523535 237.124213113,194.561532539 240.32058746,196.767830449 244.176154148,197.235981003 247.807649315,195.85873655 250.383141182,192.951607197 251.312615601,189.180581245" stroke="#000" stroke-linecap="round" stroke-linejoin="round"/><polyline fill="none" points="-181.066017178,-243.198051534 -181.995491596,-246.969077487 -184.570983463,-249.87620684 -188.20247863,-251.253451292 -192.058045319,-250.785300739 -195.254419665,-248.579002828 -197.059350827,-245.139993824 -197.059350827,-241.256109244 -195.254419665,-237.81710024 -192.058045319,-235.610802329 -188.20247863,-235.142651776 -184.570983463,-236.519896228 -181.995491596,-239.427025581 -181.066017178,-243.198051534" stroke="#000" stroke-linecap="round" stroke-linejoin="round"/><polyline fill="none" points="197.295145311,243.198051534 196.365670893,239.427025581 193.790179026,236.519896228 190.158683859,235.142651776 186.30311717,235.610802329 183.106742824,237.81710024 181.301811662,241.256109244 181.301811662,245.139993824 183.106742824,248.579002828 186.30311717,250.785300739 190.158683859,251.253451292 193.790179026,249.87620684 196.365670893,246.969077487 197.295145311,243.198051534" stroke="#000" stroke-linecap="round" stroke-linejoin="round"/><line fill="none" stroke="none" stroke-linecap="round" stroke-width="2.0" x1="0.0" x2="0.0" y1="0.0" y2="0.0"/></svg>