<?xml version="1.0" ?><!DOCTYPE svg  PUBLIC '-//W3C//DTD SVG 1.1//EN'  'http://www.w3.org/Graphics/SVG/1.1/DTD/svg11.dtd'><svg height="824.000" viewBox="-412.000 -412.000 824.000 824.000" width="824.000" xmlns="http://www.w3.org/2000/svg"><line fill="none" stroke="none" stroke-linecap="round" stroke-width="2.0" x1="0.0" x2="0.0" y1="0.0" y2="0.0"/><polygon fill="#000" fill-rule="evenodd" points="0.0,-0.0 -9.0,-5.0 -7.0,-0.0 -9.0,5.0" stroke="#000" stroke-linejoin="round"/><polyline fill="none" points="-400.0,-400.0 400.0,-400.0 400.0,400.0 -400.0,400.0 -400.0,-400.0" stroke="#000" stroke-linecap="round" stroke-linejoin="round"/><polyline fill="none" points="400.0,0.0 397.808758147,-41.8113853071 391.259040294,-83.1646763271 380.422606518,-123.60679775 365.418183057,-162.69465723 346.410161514,-200.0 323.60679775,-235.114100917 297.257930191,-267.652242544 267.652242544,-297.257930191 235.114100917,-323.60679775 200.0,-346.410161514 162.69465723,-365.418183057 123.60679775,-380.422606518 83.1646763272,-391.259040294 41.8113853071,-397.808758147 6.95976609677e-11,-400.0 -41.811385307,-397.808758147 -83.164676327,-391.259040294 -123.60679775,-380.422606518 -162.69465723,-365.418183057 -200.0,-346.410161514 -235.114100917,-323.60679775 -267.652242543,-297.257930191 -297.257930191,-267.652242544 -323.60679775,-235.114100917 -346.410161514,-200.0 -365.418183057,-162.69465723 -380.422606518,-123.60679775 -391.259040293,-83.1646763272 -397.808758147,-41.8113853071 -400.0,-7.78968001214e-11 -397.808758147,41.811385307 -391.259040293,83.164676327 -380.422606518,123.60679775 -365.418183057,162.69465723 -346.410161514,200.0 -323.60679775,235.114100917 -297.257930191,267.652242543 -267.652242544,297.257930191 -235.114100917,323.60679775 -200.0,346.410161514 -162.69465723,365.418183057 -123.60679775,380.422606518" stroke="#000" stroke-linecap="round" stroke-linejoin="round"/><polyline fill="none" points="-123.60679775,380.422606518 -83.1646763271,391.259040293 -41.8113853071,397.808758147 -8.4625639829e-12,400.0 41.811385307,397.808758147 83.1646763271,391.259040293 123.60679775,380.422606518 162.69465723,365.418183057 200.0,346.410161514 235.114100917,323.60679775 267.652242544,297.257930191 297.257930191,267.652242544 323.60679775,235.114100917 346.410161514,200.0 365.418183057,162.69465723 380.422606518,123.60679775 391.259040294,83.1646763271 397.808758147,41.8113853071 400.0,4.97379915032e-13" stroke="#000" stroke-linecap="round" stroke-linejoin="round"/><polyline fill="none" points="400.0,331.370849898 397.455044947,312.854926794 390.008927463,295.712245001 378.213892017,281.214198806 362.944722429,270.436041972 345.333863157,264.177141083 326.687431068,262.901690186 308.388346729,266.70428364 291.793769511,275.302900483 278.134443293,288.05982064 268.423417813,304.028921703 263.380915404,322.025848499 263.380915404,340.715851298 268.423417813,358.712778094 278.134443293,374.681879157 291.793769511,387.438799314 308.388346729,396.037416157 326.687431068,399.840009611 345.333863157,398.564558714 362.944722429,392.305657825 378.213892017,381.527500991 390.008927463,367.029454796 397.455044947,349.886773003 400.0,331.370849898" stroke="#000" stroke-linecap="round" stroke-linejoin="round"/><polyline fill="none" points="400.0,-331.370849898 397.455044947,-349.886773003 390.008927463,-367.029454796 378.213892017,-381.527500991 362.944722429,-392.305657825 345.333863157,-398.564558714 326.687431068,-399.840009611 308.388346729,-396.037416157 291.793769511,-387.438799314 278.134443293,-374.681879157 268.423417813,-358.712778094 263.380915404,-340.715851298 263.380915404,-322.025848499 268.423417813,-304.028921703 278.134443293,-288.05982064 291.793769511,-275.302900483 308.388346729,-266.70428364 326.687431068,-262.901690186 345.333863157,-264.177141083 362.944722429,-270.436041972 378.213892017,-281.214198806 390.008927463,-295.712245001 397.455044947,-312.854926794 400.0,-331.370849898" stroke="#000" stroke-linecap="round" stroke-linejoin="round"/><polyline fill="none" points="-262.741699797,-331.370849898 -265.28665485,-349.886773003 -272.732772334,-367.029454796 -284.52780778,-381.527500991 -299.796977368,-392.305657825 -317.40783664,-398.564558714 -336.054268729,-399.840009611 -354.353353068,-396.037416157 -370.947930285,-387.438799314 -384.607256504,-374.681879157 -394.318281984,-358.712778094 -399.360784392,-340.715851298 -399.360784392,-322.025848499 -394.318281984,-304.028921703 -384.607256504,-288.05982064 -370.947930285,-275.302900483 -354.353353068,-266.70428364 -336.054268729,-262.901690186 -317.40783664,-264.177141083 -299.796977368,-270.436041972 -284.52780778,-281.214198806 -272.732772334,-295.712245001 -265.28665485,-312.854926794 -262.741699797,-331.370849898" stroke="#000" stroke-linecap="round" stroke-linejoin="round"/><polyline fill="none" points="-262.741699797,331.370849898 -265.28665485,312.854926794 -272.732772334,295.712245001 -284.52780778,281.214198806 -299.796977368,270.436041972 -317.40783664,264.177141083 -336.054268729,262.901690186 -354.353353068,266.70428364 -370.947930285,275.302900483 -384.607256504,288.05982064 -394.318281984,304.028921703 -399.360784392,322.025848499 -399.360784392,340.715851298 -394.318281984,358.712778094 -384.607256504,374.681879157 -370.947930285,387.438799314 -354.353353068,396.037416157 -336.054268729,399.840009611 -317.40783664,398.564558714 -299.796977368,392.305657825 -284.52780778,381.527500991 -272.732772334,367.029454796 -265.28665485,349.886773003 -262.741699797,331.370849898" stroke="#000" stroke-linecap="round" stroke-linejoin="round"/><polyline fill="none" points="-200.0,365.685424949 -202.317186752,353.289570683 -208.955798098,342.567845224 -219.019252788,334.968277005 -231.148425505,331.517229826 -243.705204262,332.680786731 -254.993726509,338.301802912 -263.489414764,347.621128987 -268.044879253,359.38013833 -268.044879253,371.990711569 -263.489414764,383.749720911 -254.993726509,393.069046987 -243.705204262,398.690063168 -231.148425505,399.853620072 -219.019252788,396.402572893 -208.955798098,388.803004675 -202.317186752,378.081279215 -200.0,365.685424949" stroke="#000" stroke-linecap="round" stroke-linejoin="round"/><polyline fill="none" points="400.0,234.314575051 397.682813248,221.918720785 391.044201902,211.196995325 380.980747212,203.597427107 368.851574495,200.146379928 356.294795738,201.309936832 345.006273491,206.930953013 336.510585236,216.250279089 331.955120747,228.009288431 331.955120747,240.61986167 336.510585236,252.378871013 345.006273491,261.698197088 356.294795738,267.319213269 368.851574495,268.482770174 380.980747212,265.031722995 391.044201902,257.432154776 397.682813248,246.710429317 400.0,234.314575051" stroke="#000" stroke-linecap="round" stroke-linejoin="round"/><polyline fill="none" points="268.629150102,365.685424949 266.311963349,353.289570683 259.673352004,342.567845224 249.609897313,334.968277005 237.480724596,331.517229826 224.923945839,332.680786731 213.635423593,338.301802912 205.139735337,347.621128987 200.584270849,359.38013833 200.584270849,371.990711569 205.139735337,383.749720911 213.635423593,393.069046987 224.923945839,398.690063168 237.480724596,399.853620072 249.609897313,396.402572893 259.673352004,388.803004675 266.311963349,378.081279215 268.629150102,365.685424949" stroke="#000" stroke-linecap="round" stroke-linejoin="round"/><polyline fill="none" points="268.629150102,-365.685424949 266.311963349,-378.081279215 259.673352004,-388.803004675 249.609897313,-396.402572893 237.480724596,-399.853620072 224.923945839,-398.690063168 213.635423593,-393.069046987 205.139735337,-383.749720911 200.584270849,-371.990711569 200.584270849,-359.38013833 205.139735337,-347.621128987 213.635423593,-338.301802912 224.923945839,-332.680786731 237.480724596,-331.517229826 249.609897313,-334.968277005 259.673352004,-342.567845224 266.311963349,-353.289570683 268.629150102,-365.685424949" stroke="#000" stroke-linecap="round" stroke-linejoin="round"/><polyline fill="none" points="400.0,-234.314575051 397.682813248,-246.710429317 391.044201902,-257.432154776 380.980747212,-265.031722995 368.851574495,-268.482770174 356.294795738,-267.319213269 345.006273491,-261.698197088 336.510585236,-252.378871013 331.955120747,-240.61986167 331.955120747,-228.009288431 336.510585236,-216.250279089 345.006273491,-206.930953013 356.294795738,-201.309936832 368.851574495,-200.146379928 380.980747212,-203.597427107 391.044201902,-211.196995325 397.682813248,-221.918720785 400.0,-234.314575051" stroke="#000" stroke-linecap="round" stroke-linejoin="round"/><polyline fill="none" points="-331.370849898,-234.314575051 -333.688036651,-246.710429317 -340.326647996,-257.432154776 -350.390102687,-265.031722995 -362.519275404,-268.482770174 -375.076054161,-267.319213269 -386.364576407,-261.698197088 -394.860264663,-252.378871013 -399.415729151,-240.61986167 -399.415729151,-228.009288431 -394.860264663,-216.250279089 -386.364576407,-206.930953013 -375.076054161,-201.309936832 -362.519275404,-200.146379928 -350.390102687,-203.597427107 -340.326647996,-211.196995325 -333.688036651,-221.918720785 -331.370849898,-234.314575051" stroke="#000" stroke-linecap="round" stroke-linejoin="round"/><polyline fill="none" points="-200.0,-365.685424949 -202.317186752,-378.081279215 -208.955798098,-388.803004675 -219.019252788,-396.402572893 -231.148425505,-399.853620072 -243.705204262,-398.690063168 -254.993726509,-393.069046987 -263.489414764,-383.749720911 -268.044879253,-371.990711569 -268.044879253,-359.38013833 -263.489414764,-347.621128987 -254.993726509,-338.301802912 -243.705204262,-332.680786731 -231.148425505,-331.517229826 -219.019252788,-334.968277005 -208.955798098,-342.567845224 -202.317186752,-353.289570683 -200.0,-365.685424949" stroke="#000" stroke-linecap="round" stroke-linejoin="round"/><polyline fill="none" points="-160.704420416,379.471684688 -162.479186522,371.12206663 -167.496611656,364.216173388 -174.889137431,359.948096641 -183.378528982,359.055825635 -191.496893385,361.69364213 -197.840491682,367.405443693 -201.312458099,375.203607941 -201.312458099,383.739761434 -197.840491682,391.537925683 -191.496893385,397.249727245 -183.378528982,399.887543741 -174.889137431,398.995272734 -167.496611656,394.727195988 -162.479186522,387.821302746 -160.704420416,379.471684688" stroke="#000" stroke-linecap="round" stroke-linejoin="round"/><polyline fill="none" points="-331.370849898,234.314575051 -333.688036651,221.918720785 -340.326647996,211.196995325 -350.390102687,203.597427107 -362.519275404,200.146379928 -375.076054161,201.309936832 -386.364576407,206.930953013 -394.860264663,216.250279089 -399.415729151,228.009288431 -399.415729151,240.61986167 -394.860264663,252.378871013 -386.364576407,261.698197088 -375.076054161,267.319213269 -362.519275404,268.482770174 -350.390102687,265.031722995 -340.326647996,257.432154776 -333.688036651,246.710429317 -331.370849898,234.314575051" stroke="#000" stroke-linecap="round" stroke-linejoin="round"/><polyline fill="none" points="400.0,181.232735729 398.225233894,172.883117671 393.20780876,165.977224429 385.815282985,161.709147682 377.325891435,160.816876676 369.207527031,163.454693171 362.863928734,169.166494734 359.391962318,176.964658983 359.391962318,185.500812475 362.863928734,193.298976724 369.207527031,199.010778286 377.325891435,201.648594782 385.815282985,200.756323775 393.20780876,196.488247029 398.225233894,189.582353787 400.0,181.232735729" stroke="#000" stroke-linecap="round" stroke-linejoin="round"/><polyline fill="none" points="201.761051041,379.471684688 199.986284935,371.12206663 194.968859801,364.216173388 187.576334026,359.948096641 179.086942476,359.055825635 170.968578073,361.69364213 164.624979775,367.405443693 161.153013359,375.203607941 161.153013359,383.739761434 164.624979775,391.537925683 170.968578073,397.249727245 179.086942476,399.887543741 187.576334026,398.995272734 194.968859801,394.727195988 199.986284935,387.821302746 201.761051041,379.471684688" stroke="#000" stroke-linecap="round" stroke-linejoin="round"/><polyline fill="none" points="201.761051041,-379.471684688 199.986284935,-387.821302746 194.968859801,-394.727195988 187.576334026,-398.995272734 179.086942476,-399.887543741 170.968578073,-397.249727245 164.624979775,-391.537925683 161.153013359,-383.739761434 161.153013359,-375.203607941 164.624979775,-367.405443693 170.968578073,-361.69364213 179.086942476,-359.055825635 187.576334026,-359.948096641 194.968859801,-364.216173388 199.986284935,-371.12206663 201.761051041,-379.471684688" stroke="#000" stroke-linecap="round" stroke-linejoin="round"/><polyline fill="none" points="400.0,-181.232735729 398.225233894,-189.582353787 393.20780876,-196.488247029 385.815282985,-200.756323775 377.325891435,-201.648594782 369.207527031,-199.010778286 362.863928734,-193.298976724 359.391962318,-185.500812475 359.391962318,-176.964658983 362.863928734,-169.166494734 369.207527031,-163.454693171 377.325891435,-160.816876676 385.815282985,-161.709147682 393.20780876,-165.977224429 398.225233894,-172.883117671 400.0,-181.232735729" stroke="#000" stroke-linecap="round" stroke-linejoin="round"/><polyline fill="none" points="-358.943369375,-181.232735729 -360.718135481,-189.582353787 -365.735560615,-196.488247029 -373.12808639,-200.756323775 -381.617477941,-201.648594782 -389.735842344,-199.010778286 -396.079440641,-193.298976724 -399.551407058,-185.500812475 -399.551407058,-176.964658983 -396.079440641,-169.166494734 -389.735842344,-163.454693171 -381.617477941,-160.816876676 -373.12808639,-161.709147682 -365.735560615,-165.977224429 -360.718135481,-172.883117671 -358.943369375,-181.232735729" stroke="#000" stroke-linecap="round" stroke-linejoin="round"/><polyline fill="none" points="-160.704420416,-379.471684688 -162.479186522,-387.821302746 -167.496611656,-394.727195988 -174.889137431,-398.995272734 -183.378528982,-399.887543741 -191.496893385,-397.249727245 -197.840491682,-391.537925683 -201.312458099,-383.739761434 -201.312458099,-375.203607941 -197.840491682,-367.405443693 -191.496893385,-361.69364213 -183.378528982,-359.055825635 -174.889137431,-359.948096641 -167.496611656,-364.216173388 -162.479186522,-371.12206663 -160.704420416,-379.471684688" stroke="#000" stroke-linecap="round" stroke-linejoin="round"/><polyline fill="none" points="-358.943369375,181.232735729 -360.718135481,172.883117671 -365.735560615,165.977224429 -373.12808639,161.709147682 -381.617477941,160.816876676 -389.735842344,163.454693171 -396.079440641,169.166494734 -399.551407058,176.964658983 -399.551407058,185.500812475 -396.079440641,193.298976724 -389.735842344,199.010778286 -381.617477941,201.648594782 -373.12808639,200.756323775 -365.735560615,196.488247029 -360.718135481,189.582353787 -358.943369375,181.232735729" stroke="#000" stroke-linecap="round" stroke-linejoin="round"/><polyline fill="none" points="400.0,147.759225007 398.648671394,141.838667543 394.86233278,137.090749096 389.390914956,134.455853143 383.318099325,134.455853143 377.846681502,137.090749096 374.060342887,141.838667543 372.709014282,147.759225007 374.060342887,153.679782471 377.846681502,158.427700918 383.318099325,161.062596871 389.390914956,161.062596871 394.86233278,158.427700918 398.648671394,153.679782471 400.0,147.759225007" stroke="#000" stroke-linecap="round" stroke-linejoin="round"/><polyline fill="none" points="161.404717866,386.354507141 160.053389261,380.433949677 156.267050646,375.68603123 150.795632823,373.051135277 144.722817192,373.051135277 139.251399368,375.68603123 135.465060754,380.433949677 134.113732148,386.354507141 135.465060754,392.275064605 139.251399368,397.022983052 144.722817192,399.657879005 150.795632823,399.657879005 156.267050646,397.022983052 160.053389261,392.275064605 161.404717866,386.354507141" stroke="#000" stroke-linecap="round" stroke-linejoin="round"/><polyline fill="none" points="161.404717866,-386.354507141 160.053389261,-392.275064605 156.267050646,-397.022983052 150.795632823,-399.657879005 144.722817192,-399.657879005 139.251399368,-397.022983052 135.465060754,-392.275064605 134.113732148,-386.354507141 135.465060754,-380.433949677 139.251399368,-375.68603123 144.722817192,-373.051135277 150.795632823,-373.051135277 156.267050646,-375.68603123 160.053389261,-380.433949677 161.404717866,-386.354507141" stroke="#000" stroke-linecap="round" stroke-linejoin="round"/><polyline fill="none" points="400.0,-147.759225007 398.648671394,-153.679782471 394.86233278,-158.427700918 389.390914956,-161.062596871 383.318099325,-161.062596871 377.846681502,-158.427700918 374.060342887,-153.679782471 372.709014282,-147.759225007 374.060342887,-141.838667543 377.846681502,-137.090749096 383.318099325,-134.455853143 389.390914956,-134.455853143 394.86233278,-137.090749096 398.648671394,-141.838667543 400.0,-147.759225007" stroke="#000" stroke-linecap="round" stroke-linejoin="round"/><polyline fill="none" points="-372.709014282,-147.759225007 -374.060342887,-153.679782471 -377.846681502,-158.427700918 -383.318099325,-161.062596871 -389.390914956,-161.062596871 -394.86233278,-158.427700918 -398.648671394,-153.679782471 -400.0,-147.759225007 -398.648671394,-141.838667543 -394.86233278,-137.090749096 -389.390914956,-134.455853143 -383.318099325,-134.455853143 -377.846681502,-137.090749096 -374.060342887,-141.838667543 -372.709014282,-147.759225007" stroke="#000" stroke-linecap="round" stroke-linejoin="round"/><polyline fill="none" points="-134.113732148,-386.354507141 -135.465060754,-392.275064605 -139.251399368,-397.022983052 -144.722817192,-399.657879005 -150.795632823,-399.657879005 -156.267050646,-397.022983052 -160.053389261,-392.275064605 -161.404717866,-386.354507141 -160.053389261,-380.433949677 -156.267050646,-375.68603123 -150.795632823,-373.051135277 -144.722817192,-373.051135277 -139.251399368,-375.68603123 -135.465060754,-380.433949677 -134.113732148,-386.354507141" stroke="#000" stroke-linecap="round" stroke-linejoin="round"/><polyline fill="none" points="-372.709014282,147.759225007 -374.060342887,141.838667543 -377.846681502,137.090749096 -383.318099325,134.455853143 -389.390914956,134.455853143 -394.86233278,137.090749096 -398.648671394,141.838667543 -400.0,147.759225007 -398.648671394,153.679782471 -394.86233278,158.427700918 -389.390914956,161.062596871 -383.318099325,161.062596871 -377.846681502,158.427700918 -374.060342887,153.679782471 -372.709014282,147.759225007" stroke="#000" stroke-linecap="round" stroke-linejoin="round"/><polyline fill="none" points="-134.113732148,386.354507141 -135.465060754,380.433949677 -139.251399368,375.68603123 -144.722817192,373.051135277 -150.795632823,373.051135277 -156.267050646,375.68603123 -160.053389261,380.433949677 -161.404717866,386.354507141 -160.053389261,392.275064605 -156.267050646,397.022983052 -150.795632823,399.657879005 -144.722817192,399.657879005 -139.251399368,397.022983052 -135.465060754,392.275064605 -134.113732148,386.354507141" stroke="#000" stroke-linecap="round" stroke-linejoin="round"/><polyline fill="none" points="400.0,388.225099391 398.651256087,382.753030229 394.914005323,378.534546167 389.644406821,376.536051065 384.04966209,377.215376065 379.411459726,380.416895998 376.792355993,385.40718123 376.792355993,391.043017552 379.411459726,396.033302783 384.04966209,399.234822716 389.644406821,399.914147717 394.914005323,397.915652615 398.651256087,393.697168552 400.0,388.225099391" stroke="#000" stroke-linecap="round" stroke-linejoin="round"/><polyline fill="none" points="400.0,-388.225099391 398.651256087,-393.697168552 394.914005323,-397.915652615 389.644406821,-399.914147717 384.04966209,-399.234822716 379.411459726,-396.033302783 376.792355993,-391.043017552 376.792355993,-385.40718123 379.411459726,-380.416895998 384.04966209,-377.215376065 389.644406821,-376.536051065 394.914005323,-378.534546167 398.651256087,-382.753030229 400.0,-388.225099391" stroke="#000" stroke-linecap="round" stroke-linejoin="round"/><polyline fill="none" points="-376.450198782,-388.225099391 -377.798942695,-393.697168552 -381.536193459,-397.915652615 -386.805791961,-399.914147717 -392.400536691,-399.234822716 -397.038739055,-396.033302783 -399.657842788,-391.043017552 -399.657842788,-385.40718123 -397.038739055,-380.416895998 -392.400536691,-377.215376065 -386.805791961,-376.536051065 -381.536193459,-378.534546167 -377.798942695,-382.753030229 -376.450198782,-388.225099391" stroke="#000" stroke-linecap="round" stroke-linejoin="round"/><polyline fill="none" points="-376.450198782,388.225099391 -377.798942695,382.753030229 -381.536193459,378.534546167 -386.805791961,376.536051065 -392.400536691,377.215376065 -397.038739055,380.416895998 -399.657842788,385.40718123 -399.657842788,391.043017552 -397.038739055,396.033302783 -392.400536691,399.234822716 -386.805791961,399.914147717 -381.536193459,397.915652615 -377.798942695,393.697168552 -376.450198782,388.225099391" stroke="#000" stroke-linecap="round" stroke-linejoin="round"/><polyline fill="none" points="-262.741699797,-388.225099391 -264.09044371,-393.697168552 -267.827694474,-397.915652615 -273.097292976,-399.914147717 -278.692037707,-399.234822716 -283.330240071,-396.033302783 -285.949343804,-391.043017552 -285.949343804,-385.40718123 -283.330240071,-380.416895998 -278.692037707,-377.215376065 -273.097292976,-376.536051065 -267.827694474,-378.534546167 -264.09044371,-382.753030229 -262.741699797,-388.225099391" stroke="#000" stroke-linecap="round" stroke-linejoin="round"/><polyline fill="none" points="286.291501015,-388.225099391 284.942757102,-393.697168552 281.205506338,-397.915652615 275.935907836,-399.914147717 270.341163106,-399.234822716 265.702960742,-396.033302783 263.083857009,-391.043017552 263.083857009,-385.40718123 265.702960742,-380.416895998 270.341163106,-377.215376065 275.935907836,-376.536051065 281.205506338,-378.534546167 284.942757102,-382.753030229 286.291501015,-388.225099391" stroke="#000" stroke-linecap="round" stroke-linejoin="round"/><polyline fill="none" points="286.291501015,388.225099391 284.942757102,382.753030229 281.205506338,378.534546167 275.935907836,376.536051065 270.341163106,377.215376065 265.702960742,380.416895998 263.083857009,385.40718123 263.083857009,391.043017552 265.702960742,396.033302783 270.341163106,399.234822716 275.935907836,399.914147717 281.205506338,397.915652615 284.942757102,393.697168552 286.291501015,388.225099391" stroke="#000" stroke-linecap="round" stroke-linejoin="round"/><polyline fill="none" points="400.0,-274.516600406 398.651256087,-279.988669568 394.914005323,-284.20715363 389.644406821,-286.205648732 384.04966209,-285.526323732 379.411459726,-282.324803799 376.792355993,-277.334518567 376.792355993,-271.698682245 379.411459726,-266.708397014 384.04966209,-263.506877081 389.644406821,-262.82755208 394.914005323,-264.826047182 398.651256087,-269.044531245 400.0,-274.516600406" stroke="#000" stroke-linecap="round" stroke-linejoin="round"/><polyline fill="none" points="-376.450198782,-274.516600406 -377.798942695,-279.988669568 -381.536193459,-284.20715363 -386.805791961,-286.205648732 -392.400536691,-285.526323732 -397.038739055,-282.324803799 -399.657842788,-277.334518567 -399.657842788,-271.698682245 -397.038739055,-266.708397014 -392.400536691,-263.506877081 -386.805791961,-262.82755208 -381.536193459,-264.826047182 -377.798942695,-269.044531245 -376.450198782,-274.516600406" stroke="#000" stroke-linecap="round" stroke-linejoin="round"/><polyline fill="none" points="-376.450198782,274.516600406 -377.798942695,269.044531245 -381.536193459,264.826047182 -386.805791961,262.82755208 -392.400536691,263.506877081 -397.038739055,266.708397014 -399.657842788,271.698682245 -399.657842788,277.334518567 -397.038739055,282.324803799 -392.400536691,285.526323732 -386.805791961,286.205648732 -381.536193459,284.20715363 -377.798942695,279.988669568 -376.450198782,274.516600406" stroke="#000" stroke-linecap="round" stroke-linejoin="round"/><polyline fill="none" points="400.0,274.516600406 398.651256087,269.044531245 394.914005323,264.826047182 389.644406821,262.82755208 384.04966209,263.506877081 379.411459726,266.708397014 376.792355993,271.698682245 376.792355993,277.334518567 379.411459726,282.324803799 384.04966209,285.526323732 389.644406821,286.205648732 394.914005323,284.20715363 398.651256087,279.988669568 400.0,274.516600406" stroke="#000" stroke-linecap="round" stroke-linejoin="round"/><polyline fill="none" points="-313.444649956,-252.240774993 -314.683949181,-257.268809596 -318.117938337,-261.144982067 -322.959931893,-262.981308004 -328.100687478,-262.357107265 -332.362519939,-259.415376718 -334.769094822,-254.830031379 -334.769094822,-249.651518606 -332.362519939,-245.066173267 -328.100687478,-242.12444272 -322.959931893,-241.500241982 -318.117938337,-243.336567919 -314.683949181,-247.212740389 -313.444649956,-252.240774993" stroke="#000" stroke-linecap="round" stroke-linejoin="round"/><polyline fill="none" points="-262.741699797,388.225099391 -264.09044371,382.753030229 -267.827694474,378.534546167 -273.097292976,376.536051065 -278.692037707,377.215376065 -283.330240071,380.416895998 -285.949343804,385.40718123 -285.949343804,391.043017552 -283.330240071,396.033302783 -278.692037707,399.234822716 -273.097292976,399.914147717 -267.827694474,397.915652615 -264.09044371,393.697168552 -262.741699797,388.225099391" stroke="#000" stroke-linecap="round" stroke-linejoin="round"/><polyline fill="none" points="-313.444649956,252.240774993 -314.683949181,247.212740389 -318.117938337,243.336567919 -322.959931893,241.500241982 -328.100687478,242.12444272 -332.362519939,245.066173267 -334.769094822,249.651518606 -334.769094822,254.830031379 -332.362519939,259.415376718 -328.100687478,262.357107265 -322.959931893,262.981308004 -318.117938337,261.144982067 -314.683949181,257.268809596 -313.444649956,252.240774993" stroke="#000" stroke-linecap="round" stroke-linejoin="round"/><polyline fill="none" points="-241.421356237,324.264068712 -242.660655462,319.236034108 -246.094644618,315.359861638 -250.936638174,313.523535701 -256.077393758,314.147736439 -260.33922622,317.089466986 -262.745801103,321.674812325 -262.745801103,326.853325099 -260.33922622,331.438670438 -256.077393758,334.380400985 -250.936638174,335.004601723 -246.094644618,333.168275786 -242.660655462,329.292103316 -241.421356237,324.264068712" stroke="#000" stroke-linecap="round" stroke-linejoin="round"/><polyline fill="none" points="335.083487467,-252.240774993 333.844188243,-257.268809596 330.410199087,-261.144982067 325.568205531,-262.981308004 320.427449946,-262.357107265 316.165617485,-259.415376718 313.759042602,-254.830031379 313.759042602,-249.651518606 316.165617485,-245.066173267 320.427449946,-242.12444272 325.568205531,-241.500241982 330.410199087,-243.336567919 333.844188243,-247.212740389 335.083487467,-252.240774993" stroke="#000" stroke-linecap="round" stroke-linejoin="round"/><polyline fill="none" points="263.060193748,-324.264068712 261.820894524,-329.292103316 258.386905368,-333.168275786 253.544911812,-335.004601723 248.404156227,-334.380400985 244.142323765,-331.438670438 241.735748883,-326.853325099 241.735748883,-321.674812325 244.142323765,-317.089466986 248.404156227,-314.147736439 253.544911812,-313.523535701 258.386905368,-315.359861638 261.820894524,-319.236034108 263.060193748,-324.264068712" stroke="#000" stroke-linecap="round" stroke-linejoin="round"/><polyline fill="none" points="335.083487467,252.240774993 333.844188243,247.212740389 330.410199087,243.336567919 325.568205531,241.500241982 320.427449946,242.12444272 316.165617485,245.066173267 313.759042602,249.651518606 313.759042602,254.830031379 316.165617485,259.415376718 320.427449946,262.357107265 325.568205531,262.981308004 330.410199087,261.144982067 333.844188243,257.268809596 335.083487467,252.240774993" stroke="#000" stroke-linecap="round" stroke-linejoin="round"/><polyline fill="none" points="-241.421356237,-324.264068712 -242.660655462,-329.292103316 -246.094644618,-333.168275786 -250.936638174,-335.004601723 -256.077393758,-334.380400985 -260.33922622,-331.438670438 -262.745801103,-326.853325099 -262.745801103,-321.674812325 -260.33922622,-317.089466986 -256.077393758,-314.147736439 -250.936638174,-313.523535701 -246.094644618,-315.359861638 -242.660655462,-319.236034108 -241.421356237,-324.264068712" stroke="#000" stroke-linecap="round" stroke-linejoin="round"/><polyline fill="none" points="263.060193748,324.264068712 261.820894524,319.236034108 258.386905368,315.359861638 253.544911812,313.523535701 248.404156227,314.147736439 244.142323765,317.089466986 241.735748883,321.674812325 241.735748883,326.853325099 244.142323765,331.438670438 248.404156227,334.380400985 253.544911812,335.004601723 258.386905368,333.168275786 261.820894524,329.292103316 263.060193748,324.264068712" stroke="#000" stroke-linecap="round" stroke-linejoin="round"/><polyline fill="none" points="-115.000613803,390.277607277 -116.114255306,385.759386091 -119.200057966,382.276234928 -123.551101583,380.626101743 -128.1706145,381.187012163 -132.000321977,383.83046837 -134.162884186,387.950886404 -134.162884186,392.60432815 -132.000321977,396.724746184 -128.1706145,399.368202391 -123.551101583,399.929112811 -119.200057966,398.278979626 -116.114255306,394.795828463 -115.000613803,390.277607277" stroke="#000" stroke-linecap="round" stroke-linejoin="round"/><polyline fill="none" points="134.445399249,390.277607277 133.331757747,385.759386091 130.245955086,382.276234928 125.894911469,380.626101743 121.275398553,381.187012163 117.445691075,383.83046837 115.283128866,387.950886404 115.283128866,392.60432815 117.445691075,396.724746184 121.275398553,399.368202391 125.894911469,399.929112811 130.245955086,398.278979626 133.331757747,394.795828463 134.445399249,390.277607277" stroke="#000" stroke-linecap="round" stroke-linejoin="round"/><polyline fill="none" points="400.0,124.723006526 398.886358497,120.20478534 395.800555837,116.721634177 391.44951222,115.071500992 386.829999304,115.632411412 383.000291826,118.275867619 380.837729617,122.396285653 380.837729617,127.049727399 383.000291826,131.170145433 386.829999304,133.81360164 391.44951222,134.37451206 395.800555837,132.724378875 398.886358497,129.241227712 400.0,124.723006526" stroke="#000" stroke-linecap="round" stroke-linejoin="round"/><polyline fill="none" points="134.445399249,-390.277607277 133.331757747,-394.795828463 130.245955086,-398.278979626 125.894911469,-399.929112811 121.275398553,-399.368202391 117.445691075,-396.724746184 115.283128866,-392.60432815 115.283128866,-387.950886404 117.445691075,-383.83046837 121.275398553,-381.187012163 125.894911469,-380.626101743 130.245955086,-382.276234928 133.331757747,-385.759386091 134.445399249,-390.277607277" stroke="#000" stroke-linecap="round" stroke-linejoin="round"/><polyline fill="none" points="400.0,-124.723006526 398.886358497,-129.241227712 395.800555837,-132.724378875 391.44951222,-134.37451206 386.829999304,-133.81360164 383.000291826,-131.170145433 380.837729617,-127.049727399 380.837729617,-122.396285653 383.000291826,-118.275867619 386.829999304,-115.632411412 391.44951222,-115.071500992 395.800555837,-116.721634177 398.886358497,-120.20478534 400.0,-124.723006526" stroke="#000" stroke-linecap="round" stroke-linejoin="round"/><polyline fill="none" points="-380.555214554,-124.723006526 -381.668856057,-129.241227712 -384.754658717,-132.724378875 -389.105702334,-134.37451206 -393.72521525,-133.81360164 -397.554922728,-131.170145433 -399.717484937,-127.049727399 -399.717484937,-122.396285653 -397.554922728,-118.275867619 -393.72521525,-115.632411412 -389.105702334,-115.071500992 -384.754658717,-116.721634177 -381.668856057,-120.20478534 -380.555214554,-124.723006526" stroke="#000" stroke-linecap="round" stroke-linejoin="round"/><polyline fill="none" points="-380.555214554,124.723006526 -381.668856057,120.20478534 -384.754658717,116.721634177 -389.105702334,115.071500992 -393.72521525,115.632411412 -397.554922728,118.275867619 -399.717484937,122.396285653 -399.717484937,127.049727399 -397.554922728,131.170145433 -393.72521525,133.81360164 -389.105702334,134.37451206 -384.754658717,132.724378875 -381.668856057,129.241227712 -380.555214554,124.723006526" stroke="#000" stroke-linecap="round" stroke-linejoin="round"/><polyline fill="none" points="-115.000613803,-390.277607277 -116.114255306,-394.795828463 -119.200057966,-398.278979626 -123.551101583,-399.929112811 -128.1706145,-399.368202391 -132.000321977,-396.724746184 -134.162884186,-392.60432815 -134.162884186,-387.950886404 -132.000321977,-383.83046837 -128.1706145,-381.187012163 -123.551101583,-380.626101743 -119.200057966,-382.276234928 -116.114255306,-385.759386091 -115.000613803,-390.277607277" stroke="#000" stroke-linecap="round" stroke-linejoin="round"/><polyline fill="none" points="-100.62423547,392.723378114 -101.45772866,389.341763309 -103.767264987,386.734835703 -107.02375751,385.499810994 -110.481183038,385.919618458 -113.347487048,387.898085265 -114.966033835,390.981968513 -114.966033835,394.464787714 -113.347487048,397.548670962 -110.481183038,399.527137769 -107.02375751,399.946945234 -103.767264987,398.711920524 -101.45772866,396.104992918 -100.62423547,392.723378114" stroke="#000" stroke-linecap="round" stroke-linejoin="round"/><polyline fill="none" points="115.177479242,392.723378114 114.343986052,389.341763309 112.034449725,386.734835703 108.777957202,385.499810994 105.320531674,385.919618458 102.454227664,387.898085265 100.835680877,390.981968513 100.835680877,394.464787714 102.454227664,397.548670962 105.320531674,399.527137769 108.777957202,399.946945234 112.034449725,398.711920524 114.343986052,396.104992918 115.177479242,392.723378114" stroke="#000" stroke-linecap="round" stroke-linejoin="round"/><polyline fill="none" points="400.0,107.900857356 399.166506809,104.519242551 396.856970483,101.912314945 393.600477959,100.677290236 390.143052432,101.0970977 387.276748421,103.075564508 385.658201635,106.159447755 385.658201635,109.642266956 387.276748421,112.726150204 390.143052432,114.704617012 393.600477959,115.124424476 396.856970483,113.889399767 399.166506809,111.282472161 400.0,107.900857356" stroke="#000" stroke-linecap="round" stroke-linejoin="round"/><polyline fill="none" points="115.177479242,-392.723378114 114.343986052,-396.104992918 112.034449725,-398.711920524 108.777957202,-399.946945234 105.320531674,-399.527137769 102.454227664,-397.548670962 100.835680877,-394.464787714 100.835680877,-390.981968513 102.454227664,-387.898085265 105.320531674,-385.919618458 108.777957202,-385.499810994 112.034449725,-386.734835703 114.343986052,-389.341763309 115.177479242,-392.723378114" stroke="#000" stroke-linecap="round" stroke-linejoin="round"/><polyline fill="none" points="400.0,-107.900857356 399.166506809,-111.282472161 396.856970483,-113.889399767 393.600477959,-115.124424476 390.143052432,-114.704617012 387.276748421,-112.726150204 385.658201635,-109.642266956 385.658201635,-106.159447755 387.276748421,-103.075564508 390.143052432,-101.0970977 393.600477959,-100.677290236 396.856970483,-101.912314945 399.166506809,-104.519242551 400.0,-107.900857356" stroke="#000" stroke-linecap="round" stroke-linejoin="round"/><polyline fill="none" points="-385.446756227,-107.900857356 -386.280249418,-111.282472161 -388.589785745,-113.889399767 -391.846278268,-115.124424476 -395.303703796,-114.704617012 -398.170007806,-112.726150204 -399.788554593,-109.642266956 -399.788554593,-106.159447755 -398.170007806,-103.075564508 -395.303703796,-101.0970977 -391.846278268,-100.677290236 -388.589785745,-101.912314945 -386.280249418,-104.519242551 -385.446756227,-107.900857356" stroke="#000" stroke-linecap="round" stroke-linejoin="round"/><polyline fill="none" points="-385.446756227,107.900857356 -386.280249418,104.519242551 -388.589785745,101.912314945 -391.846278268,100.677290236 -395.303703796,101.0970977 -398.170007806,103.075564508 -399.788554593,106.159447755 -399.788554593,109.642266956 -398.170007806,112.726150204 -395.303703796,114.704617012 -391.846278268,115.124424476 -388.589785745,113.889399767 -386.280249418,111.282472161 -385.446756227,107.900857356" stroke="#000" stroke-linecap="round" stroke-linejoin="round"/><polyline fill="none" points="-100.62423547,-392.723378114 -101.45772866,-396.104992918 -103.767264987,-398.711920524 -107.02375751,-399.946945234 -110.481183038,-399.527137769 -113.347487048,-397.548670962 -114.966033835,-394.464787714 -114.966033835,-390.981968513 -113.347487048,-387.898085265 -110.481183038,-385.919618458 -107.02375751,-385.499810994 -103.767264987,-386.734835703 -101.45772866,-389.341763309 -100.62423547,-392.723378114" stroke="#000" stroke-linecap="round" stroke-linejoin="round"/><polyline fill="none" points="400.0,204.383329436 399.252376037,201.350099783 397.180775788,199.011746489 394.259777905,197.903958113 391.1585478,198.280515623 388.587539918,200.05515423 387.135741179,202.821325617 387.135741179,205.945333254 388.587539918,208.711504641 391.1585478,210.486143248 394.259777905,210.862700758 397.180775788,209.754912383 399.252376037,207.416559089 400.0,204.383329436" stroke="#000" stroke-linecap="round" stroke-linejoin="round"/><polyline fill="none" points="210.910289647,393.473039789 210.162665684,390.439810136 208.091065435,388.101456842 205.170067552,386.993668466 202.068837447,387.370225976 199.497829565,389.144864583 198.046030826,391.91103597 198.046030826,395.035043608 199.497829565,397.801214994 202.068837447,399.575853602 205.170067552,399.952411111 208.091065435,398.844622736 210.162665684,396.506269442 210.910289647,393.473039789" stroke="#000" stroke-linecap="round" stroke-linejoin="round"/><polyline fill="none" points="210.910289647,-393.473039789 210.162665684,-396.506269442 208.091065435,-398.844622736 205.170067552,-399.952411111 202.068837447,-399.575853602 199.497829565,-397.801214994 198.046030826,-395.035043608 198.046030826,-391.91103597 199.497829565,-389.144864583 202.068837447,-387.370225976 205.170067552,-386.993668466 208.091065435,-388.101456842 210.162665684,-390.439810136 210.910289647,-393.473039789" stroke="#000" stroke-linecap="round" stroke-linejoin="round"/><polyline fill="none" points="400.0,-204.383329436 399.252376037,-207.416559089 397.180775788,-209.754912383 394.259777905,-210.862700758 391.1585478,-210.486143248 388.587539918,-208.711504641 387.135741179,-205.945333254 387.135741179,-202.821325617 388.587539918,-200.05515423 391.1585478,-198.280515623 394.259777905,-197.903958113 397.180775788,-199.011746489 399.252376037,-201.350099783 400.0,-204.383329436" stroke="#000" stroke-linecap="round" stroke-linejoin="round"/><polyline fill="none" points="-197.856369225,-393.473039789 -198.603993188,-396.506269442 -200.675593436,-398.844622736 -203.59659132,-399.952411111 -206.697821424,-399.575853602 -209.268829307,-397.801214994 -210.720628045,-395.035043608 -210.720628045,-391.91103597 -209.268829307,-389.144864583 -206.697821424,-387.370225976 -203.59659132,-386.993668466 -200.675593436,-388.101456842 -198.603993188,-390.439810136 -197.856369225,-393.473039789" stroke="#000" stroke-linecap="round" stroke-linejoin="round"/><polyline fill="none" points="-386.946079578,-204.383329436 -387.693703541,-207.416559089 -389.76530379,-209.754912383 -392.686301673,-210.862700758 -395.787531777,-210.486143248 -398.35853966,-208.711504641 -399.810338399,-205.945333254 -399.810338399,-202.821325617 -398.35853966,-200.05515423 -395.787531777,-198.280515623 -392.686301673,-197.903958113 -389.76530379,-199.011746489 -387.693703541,-201.350099783 -386.946079578,-204.383329436" stroke="#000" stroke-linecap="round" stroke-linejoin="round"/><polyline fill="none" points="-197.856369225,393.473039789 -198.603993188,390.439810136 -200.675593436,388.101456842 -203.59659132,386.993668466 -206.697821424,387.370225976 -209.268829307,389.144864583 -210.720628045,391.91103597 -210.720628045,395.035043608 -209.268829307,397.801214994 -206.697821424,399.575853602 -203.59659132,399.952411111 -200.675593436,398.844622736 -198.603993188,396.506269442 -197.856369225,393.473039789" stroke="#000" stroke-linecap="round" stroke-linejoin="round"/><polyline fill="none" points="-386.946079578,204.383329436 -387.693703541,201.350099783 -389.76530379,199.011746489 -392.686301673,197.903958113 -395.787531777,198.280515623 -398.35853966,200.05515423 -399.810338399,202.821325617 -399.810338399,205.945333254 -398.35853966,208.711504641 -395.787531777,210.486143248 -392.686301673,210.862700758 -389.76530379,209.754912383 -387.693703541,207.416559089 -386.946079578,204.383329436" stroke="#000" stroke-linecap="round" stroke-linejoin="round"/><polyline fill="none" points="362.665828617,194.845226624 361.953094555,191.953550866 359.978171155,189.724323175 357.193489566,188.668232751 354.236986782,189.027217183 351.78596196,190.719037463 350.40191535,193.356117953 350.40191535,196.334335295 351.78596196,198.971415786 354.236986782,200.663236066 357.193489566,201.022220498 359.978171155,199.966130074 361.953094555,197.736902383 362.665828617,194.845226624" stroke="#000" stroke-linecap="round" stroke-linejoin="round"/><polyline fill="none" points="201.067588522,356.44346672 200.35485446,353.551790961 198.37993106,351.32256327 195.595249471,350.266472846 192.638746687,350.625457278 190.187721865,352.317277558 188.803675255,354.954358049 188.803675255,357.93257539 190.187721865,360.569655881 192.638746687,362.261476161 195.595249471,362.620460593 198.37993106,361.564370169 200.35485446,359.335142478 201.067588522,356.44346672" stroke="#000" stroke-linecap="round" stroke-linejoin="round"/><polyline fill="none" points="-188.622864727,-356.44346672 -189.335598789,-359.335142478 -191.310522189,-361.564370169 -194.095203778,-362.620460593 -197.051706562,-362.261476161 -199.502731383,-360.569655881 -200.886777994,-357.93257539 -200.886777994,-354.954358049 -199.502731383,-352.317277558 -197.051706562,-350.625457278 -194.095203778,-350.266472846 -191.310522189,-351.32256327 -189.335598789,-353.551790961 -188.622864727,-356.44346672" stroke="#000" stroke-linecap="round" stroke-linejoin="round"/><polyline fill="none" points="201.067588522,-356.44346672 200.35485446,-359.335142478 198.37993106,-361.564370169 195.595249471,-362.620460593 192.638746687,-362.261476161 190.187721865,-360.569655881 188.803675255,-357.93257539 188.803675255,-354.954358049 190.187721865,-352.317277558 192.638746687,-350.625457278 195.595249471,-350.266472846 198.37993106,-351.32256327 200.35485446,-353.551790961 201.067588522,-356.44346672" stroke="#000" stroke-linecap="round" stroke-linejoin="round"/><polyline fill="none" points="362.665828617,-194.845226624 361.953094555,-197.736902383 359.978171155,-199.966130074 357.193489566,-201.022220498 354.236986782,-200.663236066 351.78596196,-198.971415786 350.40191535,-196.334335295 350.40191535,-193.356117953 351.78596196,-190.719037463 354.236986782,-189.027217183 357.193489566,-188.668232751 359.978171155,-189.724323175 361.953094555,-191.953550866 362.665828617,-194.845226624" stroke="#000" stroke-linecap="round" stroke-linejoin="round"/><polyline fill="none" points="-350.221104822,-194.845226624 -350.933838884,-197.736902383 -352.908762284,-199.966130074 -355.693443873,-201.022220498 -358.649946657,-200.663236066 -361.100971479,-198.971415786 -362.485018089,-196.334335295 -362.485018089,-193.356117953 -361.100971479,-190.719037463 -358.649946657,-189.027217183 -355.693443873,-188.668232751 -352.908762284,-189.724323175 -350.933838884,-191.953550866 -350.221104822,-194.845226624" stroke="#000" stroke-linecap="round" stroke-linejoin="round"/><polyline fill="none" points="-188.622864727,356.44346672 -189.335598789,353.551790961 -191.310522189,351.32256327 -194.095203778,350.266472846 -197.051706562,350.625457278 -199.502731383,352.317277558 -200.886777994,354.954358049 -200.886777994,357.93257539 -199.502731383,360.569655881 -197.051706562,362.261476161 -194.095203778,362.620460593 -191.310522189,361.564370169 -189.335598789,359.335142478 -188.622864727,356.44346672" stroke="#000" stroke-linecap="round" stroke-linejoin="round"/><polyline fill="none" points="-350.221104822,194.845226624 -350.933838884,191.953550866 -352.908762284,189.724323175 -355.693443873,188.668232751 -358.649946657,189.027217183 -361.100971479,190.719037463 -362.485018089,193.356117953 -362.485018089,196.334335295 -361.100971479,198.971415786 -358.649946657,200.663236066 -355.693443873,201.022220498 -352.908762284,199.966130074 -350.933838884,197.736902383 -350.221104822,194.845226624" stroke="#000" stroke-linecap="round" stroke-linejoin="round"/><polyline fill="none" points="-388.225099391,371.572875254 -389.013868168,368.629150102 -391.168824543,366.474193727 -394.112549695,365.685424949 -397.056274848,366.474193727 -399.211231223,368.629150102 -400.0,371.572875254 -399.211231223,374.516600406 -397.056274848,376.671556781 -394.112549695,377.460325558 -391.168824543,376.671556781 -389.013868168,374.516600406 -388.225099391,371.572875254" stroke="#000" stroke-linecap="round" stroke-linejoin="round"/><polyline fill="none" points="-365.685424949,394.112549695 -366.474193727,391.168824543 -368.629150102,389.013868168 -371.572875254,388.225099391 -374.516600406,389.013868168 -376.671556781,391.168824543 -377.460325558,394.112549695 -376.671556781,397.056274848 -374.516600406,399.211231223 -371.572875254,400.0 -368.629150102,399.211231223 -366.474193727,397.056274848 -365.685424949,394.112549695" stroke="#000" stroke-linecap="round" stroke-linejoin="round"/><polyline fill="none" points="377.460325558,394.112549695 376.671556781,391.168824543 374.516600406,389.013868168 371.572875254,388.225099391 368.629150102,389.013868168 366.474193727,391.168824543 365.685424949,394.112549695 366.474193727,397.056274848 368.629150102,399.211231223 371.572875254,400.0 374.516600406,399.211231223 376.671556781,397.056274848 377.460325558,394.112549695" stroke="#000" stroke-linecap="round" stroke-linejoin="round"/><polyline fill="none" points="400.0,371.572875254 399.211231223,368.629150102 397.056274848,366.474193727 394.112549695,365.685424949 391.168824543,366.474193727 389.013868168,368.629150102 388.225099391,371.572875254 389.013868168,374.516600406 391.168824543,376.671556781 394.112549695,377.460325558 397.056274848,376.671556781 399.211231223,374.516600406 400.0,371.572875254" stroke="#000" stroke-linecap="round" stroke-linejoin="round"/><polyline fill="none" points="377.460325558,-394.112549695 376.671556781,-397.056274848 374.516600406,-399.211231223 371.572875254,-400.0 368.629150102,-399.211231223 366.474193727,-397.056274848 365.685424949,-394.112549695 366.474193727,-391.168824543 368.629150102,-389.013868168 371.572875254,-388.225099391 374.516600406,-389.013868168 376.671556781,-391.168824543 377.460325558,-394.112549695" stroke="#000" stroke-linecap="round" stroke-linejoin="round"/><polyline fill="none" points="400.0,-371.572875254 399.211231223,-374.516600406 397.056274848,-376.671556781 394.112549695,-377.460325558 391.168824543,-376.671556781 389.013868168,-374.516600406 388.225099391,-371.572875254 389.013868168,-368.629150102 391.168824543,-366.474193727 394.112549695,-365.685424949 397.056274848,-366.474193727 399.211231223,-368.629150102 400.0,-371.572875254" stroke="#000" stroke-linecap="round" stroke-linejoin="round"/><polyline fill="none" points="-365.685424949,-394.112549695 -366.474193727,-397.056274848 -368.629150102,-399.211231223 -371.572875254,-400.0 -374.516600406,-399.211231223 -376.671556781,-397.056274848 -377.460325558,-394.112549695 -376.671556781,-391.168824543 -374.516600406,-389.013868168 -371.572875254,-388.225099391 -368.629150102,-389.013868168 -366.474193727,-391.168824543 -365.685424949,-394.112549695" stroke="#000" stroke-linecap="round" stroke-linejoin="round"/><polyline fill="none" points="-388.225099391,-371.572875254 -389.013868168,-374.516600406 -391.168824543,-376.671556781 -394.112549695,-377.460325558 -397.056274848,-376.671556781 -399.211231223,-374.516600406 -400.0,-371.572875254 -399.211231223,-368.629150102 -397.056274848,-366.474193727 -394.112549695,-365.685424949 -391.168824543,-366.474193727 -389.013868168,-368.629150102 -388.225099391,-371.572875254" stroke="#000" stroke-linecap="round" stroke-linejoin="round"/><polyline fill="none" points="-388.225099391,291.168824543 -389.013868168,288.225099391 -391.168824543,286.070143016 -394.112549695,285.281374239 -397.056274848,286.070143016 -399.211231223,288.225099391 -400.0,291.168824543 -399.211231223,294.112549695 -397.056274848,296.26750607 -394.112549695,297.056274848 -391.168824543,296.26750607 -389.013868168,294.112549695 -388.225099391,291.168824543" stroke="#000" stroke-linecap="round" stroke-linejoin="round"/><polyline fill="none" points="400.0,291.168824543 399.211231223,288.225099391 397.056274848,286.070143016 394.112549695,285.281374239 391.168824543,286.070143016 389.013868168,288.225099391 388.225099391,291.168824543 389.013868168,294.112549695 391.168824543,296.26750607 394.112549695,297.056274848 397.056274848,296.26750607 399.211231223,294.112549695 400.0,291.168824543" stroke="#000" stroke-linecap="round" stroke-linejoin="round"/><polyline fill="none" points="-285.281374239,394.112549695 -286.070143016,391.168824543 -288.225099391,389.013868168 -291.168824543,388.225099391 -294.112549695,389.013868168 -296.26750607,391.168824543 -297.056274848,394.112549695 -296.26750607,397.056274848 -294.112549695,399.211231223 -291.168824543,400.0 -288.225099391,399.211231223 -286.070143016,397.056274848 -285.281374239,394.112549695" stroke="#000" stroke-linecap="round" stroke-linejoin="round"/><polyline fill="none" points="297.056274848,-394.112549695 296.26750607,-397.056274848 294.112549695,-399.211231223 291.168824543,-400.0 288.225099391,-399.211231223 286.070143016,-397.056274848 285.281374239,-394.112549695 286.070143016,-391.168824543 288.225099391,-389.013868168 291.168824543,-388.225099391 294.112549695,-389.013868168 296.26750607,-391.168824543 297.056274848,-394.112549695" stroke="#000" stroke-linecap="round" stroke-linejoin="round"/><polyline fill="none" points="-285.281374239,-394.112549695 -286.070143016,-397.056274848 -288.225099391,-399.211231223 -291.168824543,-400.0 -294.112549695,-399.211231223 -296.26750607,-397.056274848 -297.056274848,-394.112549695 -296.26750607,-391.168824543 -294.112549695,-389.013868168 -291.168824543,-388.225099391 -288.225099391,-389.013868168 -286.070143016,-391.168824543 -285.281374239,-394.112549695" stroke="#000" stroke-linecap="round" stroke-linejoin="round"/><polyline fill="none" points="-388.225099391,-291.168824543 -389.013868168,-294.112549695 -391.168824543,-296.26750607 -394.112549695,-297.056274848 -397.056274848,-296.26750607 -399.211231223,-294.112549695 -400.0,-291.168824543 -399.211231223,-288.225099391 -397.056274848,-286.070143016 -394.112549695,-285.281374239 -391.168824543,-286.070143016 -389.013868168,-288.225099391 -388.225099391,-291.168824543" stroke="#000" stroke-linecap="round" stroke-linejoin="round"/><polyline fill="none" points="400.0,-291.168824543 399.211231223,-294.112549695 397.056274848,-296.26750607 394.112549695,-297.056274848 391.168824543,-296.26750607 389.013868168,-294.112549695 388.225099391,-291.168824543 389.013868168,-288.225099391 391.168824543,-286.070143016 394.112549695,-285.281374239 397.056274848,-286.070143016 399.211231223,-288.225099391 400.0,-291.168824543" stroke="#000" stroke-linecap="round" stroke-linejoin="round"/><polyline fill="none" points="297.056274848,394.112549695 296.26750607,391.168824543 294.112549695,389.013868168 291.168824543,388.225099391 288.225099391,389.013868168 286.070143016,391.168824543 285.281374239,394.112549695 286.070143016,397.056274848 288.225099391,399.211231223 291.168824543,400.0 294.112549695,399.211231223 296.26750607,397.056274848 297.056274848,394.112549695" stroke="#000" stroke-linecap="round" stroke-linejoin="round"/><polyline fill="none" points="-388.700403757,-95.0772159596 -389.457333179,-97.9021150204 -391.525302818,-99.9700846592 -394.350201878,-100.727014081 -397.175100939,-99.9700846592 -399.243070578,-97.9021150204 -400.0,-95.0772159596 -399.243070578,-92.2523168988 -397.175100939,-90.18434726 -394.350201878,-89.427417838 -391.525302818,-90.18434726 -389.457333179,-92.2523168988 -388.700403757,-95.0772159596" stroke="#000" stroke-linecap="round" stroke-linejoin="round"/><polyline fill="none" points="-89.427417838,-394.350201878 -90.18434726,-397.175100939 -92.2523168988,-399.243070578 -95.0772159596,-400.0 -97.9021150204,-399.243070578 -99.9700846592,-397.175100939 -100.727014081,-394.350201878 -99.9700846592,-391.525302818 -97.9021150204,-389.457333179 -95.0772159596,-388.700403757 -92.2523168988,-389.457333179 -90.18434726,-391.525302818 -89.427417838,-394.350201878" stroke="#000" stroke-linecap="round" stroke-linejoin="round"/><polyline fill="none" points="-89.427417838,394.350201878 -90.18434726,391.525302818 -92.2523168988,389.457333179 -95.0772159596,388.700403757 -97.9021150204,389.457333179 -99.9700846592,391.525302818 -100.727014081,394.350201878 -99.9700846592,397.175100939 -97.9021150204,399.243070578 -95.0772159596,400.0 -92.2523168988,399.243070578 -90.18434726,397.175100939 -89.427417838,394.350201878" stroke="#000" stroke-linecap="round" stroke-linejoin="round"/><polyline fill="none" points="100.727014081,394.350201878 99.9700846592,391.525302818 97.9021150204,389.457333179 95.0772159596,388.700403757 92.2523168988,389.457333179 90.18434726,391.525302818 89.427417838,394.350201878 90.18434726,397.175100939 92.2523168988,399.243070578 95.0772159596,400.0 97.9021150204,399.243070578 99.9700846592,397.175100939 100.727014081,394.350201878" stroke="#000" stroke-linecap="round" stroke-linejoin="round"/><polyline fill="none" points="400.0,95.0772159596 399.243070578,92.2523168988 397.175100939,90.18434726 394.350201878,89.427417838 391.525302818,90.18434726 389.457333179,92.2523168988 388.700403757,95.0772159596 389.457333179,97.9021150204 391.525302818,99.9700846592 394.350201878,100.727014081 397.175100939,99.9700846592 399.243070578,97.9021150204 400.0,95.0772159596" stroke="#000" stroke-linecap="round" stroke-linejoin="round"/><polyline fill="none" points="100.727014081,-394.350201878 99.9700846592,-397.175100939 97.9021150204,-399.243070578 95.0772159596,-400.0 92.2523168988,-399.243070578 90.18434726,-397.175100939 89.427417838,-394.350201878 90.18434726,-391.525302818 92.2523168988,-389.457333179 95.0772159596,-388.700403757 97.9021150204,-389.457333179 99.9700846592,-391.525302818 100.727014081,-394.350201878" stroke="#000" stroke-linecap="round" stroke-linejoin="round"/><polyline fill="none" points="400.0,-95.0772159596 399.243070578,-97.9021150204 397.175100939,-99.9700846592 394.350201878,-100.727014081 391.525302818,-99.9700846592 389.457333179,-97.9021150204 388.700403757,-95.0772159596 389.457333179,-92.2523168988 391.525302818,-90.18434726 394.350201878,-89.427417838 397.175100939,-90.18434726 399.243070578,-92.2523168988 400.0,-95.0772159596" stroke="#000" stroke-linecap="round" stroke-linejoin="round"/><polyline fill="none" points="-388.700403757,95.0772159596 -389.457333179,92.2523168988 -391.525302818,90.18434726 -394.350201878,89.427417838 -397.175100939,90.18434726 -399.243070578,92.2523168988 -400.0,95.0772159596 -399.243070578,97.9021150204 -397.175100939,99.9700846592 -394.350201878,100.727014081 -391.525302818,99.9700846592 -389.457333179,97.9021150204 -388.700403757,95.0772159596" stroke="#000" stroke-linecap="round" stroke-linejoin="round"/><polyline fill="none" points="265.762951458,-310.456949966 265.057275342,-313.090569085 263.129332339,-315.018512087 260.49571322,-315.724188203 257.862094102,-315.018512087 255.934151099,-313.090569085 255.228474983,-310.456949966 255.934151099,-307.823330848 257.862094102,-305.895387845 260.49571322,-305.189711729 263.129332339,-305.895387845 265.057275342,-307.823330848 265.762951458,-310.456949966" stroke="#000" stroke-linecap="round" stroke-linejoin="round"/><polyline fill="none" points="-255.228474983,-310.456949966 -255.934151099,-313.090569085 -257.862094102,-315.018512087 -260.49571322,-315.724188203 -263.129332339,-315.018512087 -265.057275342,-313.090569085 -265.762951458,-310.456949966 -265.057275342,-307.823330848 -263.129332339,-305.895387845 -260.49571322,-305.189711729 -257.862094102,-305.895387845 -255.934151099,-307.823330848 -255.228474983,-310.456949966" stroke="#000" stroke-linecap="round" stroke-linejoin="round"/><polyline fill="none" points="-305.189711729,260.49571322 -305.895387845,257.862094102 -307.823330848,255.934151099 -310.456949966,255.228474983 -313.090569085,255.934151099 -315.018512087,257.862094102 -315.724188203,260.49571322 -315.018512087,263.129332339 -313.090569085,265.057275342 -310.456949966,265.762951458 -307.823330848,265.057275342 -305.895387845,263.129332339 -305.189711729,260.49571322" stroke="#000" stroke-linecap="round" stroke-linejoin="round"/><polyline fill="none" points="-255.228474983,310.456949966 -255.934151099,307.823330848 -257.862094102,305.895387845 -260.49571322,305.189711729 -263.129332339,305.895387845 -265.057275342,307.823330848 -265.762951458,310.456949966 -265.057275342,313.090569085 -263.129332339,315.018512087 -260.49571322,315.724188203 -257.862094102,315.018512087 -255.934151099,313.090569085 -255.228474983,310.456949966" stroke="#000" stroke-linecap="round" stroke-linejoin="round"/><polyline fill="none" points="315.724188203,-260.49571322 315.018512087,-263.129332339 313.090569085,-265.057275342 310.456949966,-265.762951458 307.823330848,-265.057275342 305.895387845,-263.129332339 305.189711729,-260.49571322 305.895387845,-257.862094102 307.823330848,-255.934151099 310.456949966,-255.228474983 313.090569085,-255.934151099 315.018512087,-257.862094102 315.724188203,-260.49571322" stroke="#000" stroke-linecap="round" stroke-linejoin="round"/><polyline fill="none" points="315.724188203,260.49571322 315.018512087,257.862094102 313.090569085,255.934151099 310.456949966,255.228474983 307.823330848,255.934151099 305.895387845,257.862094102 305.189711729,260.49571322 305.895387845,263.129332339 307.823330848,265.057275342 310.456949966,265.762951458 313.090569085,265.057275342 315.018512087,263.129332339 315.724188203,260.49571322" stroke="#000" stroke-linecap="round" stroke-linejoin="round"/><polyline fill="none" points="265.762951458,310.456949966 265.057275342,307.823330848 263.129332339,305.895387845 260.49571322,305.189711729 257.862094102,305.895387845 255.934151099,307.823330848 255.228474983,310.456949966 255.934151099,313.090569085 257.862094102,315.018512087 260.49571322,315.724188203 263.129332339,315.018512087 265.057275342,313.090569085 265.762951458,310.456949966" stroke="#000" stroke-linecap="round" stroke-linejoin="round"/><polyline fill="none" points="-305.189711729,-260.49571322 -305.895387845,-263.129332339 -307.823330848,-265.057275342 -310.456949966,-265.762951458 -313.090569085,-265.057275342 -315.018512087,-263.129332339 -315.724188203,-260.49571322 -315.018512087,-257.862094102 -313.090569085,-255.934151099 -310.456949966,-255.228474983 -307.823330848,-255.934151099 -305.895387845,-257.862094102 -305.189711729,-260.49571322" stroke="#000" stroke-linecap="round" stroke-linejoin="round"/><polyline fill="none" points="264.348443019,-395.317607112 263.721121322,-397.658803556 262.007246575,-399.372678303 259.666050131,-400.0 257.324853686,-399.372678303 255.610978939,-397.658803556 254.983657242,-395.317607112 255.610978939,-392.976410668 257.324853686,-391.26253592 259.666050131,-390.635214224 262.007246575,-391.26253592 263.721121322,-392.976410668 264.348443019,-395.317607112" stroke="#000" stroke-linecap="round" stroke-linejoin="round"/><polyline fill="none" points="400.0,-259.666050131 399.372678303,-262.007246575 397.658803556,-263.721121322 395.317607112,-264.348443019 392.976410668,-263.721121322 391.26253592,-262.007246575 390.635214224,-259.666050131 391.26253592,-257.324853686 392.976410668,-255.610978939 395.317607112,-254.983657242 397.658803556,-255.610978939 399.372678303,-257.324853686 400.0,-259.666050131" stroke="#000" stroke-linecap="round" stroke-linejoin="round"/><polyline fill="none" points="-390.635214224,259.666050131 -391.26253592,257.324853686 -392.976410668,255.610978939 -395.317607112,254.983657242 -397.658803556,255.610978939 -399.372678303,257.324853686 -400.0,259.666050131 -399.372678303,262.007246575 -397.658803556,263.721121322 -395.317607112,264.348443019 -392.976410668,263.721121322 -391.26253592,262.007246575 -390.635214224,259.666050131" stroke="#000" stroke-linecap="round" stroke-linejoin="round"/><polyline fill="none" points="-390.635214224,-259.666050131 -391.26253592,-262.007246575 -392.976410668,-263.721121322 -395.317607112,-264.348443019 -397.658803556,-263.721121322 -399.372678303,-262.007246575 -400.0,-259.666050131 -399.372678303,-257.324853686 -397.658803556,-255.610978939 -395.317607112,-254.983657242 -392.976410668,-255.610978939 -391.26253592,-257.324853686 -390.635214224,-259.666050131" stroke="#000" stroke-linecap="round" stroke-linejoin="round"/><polyline fill="none" points="-254.983657242,395.317607112 -255.610978939,392.976410668 -257.324853686,391.26253592 -259.666050131,390.635214224 -262.007246575,391.26253592 -263.721121322,392.976410668 -264.348443019,395.317607112 -263.721121322,397.658803556 -262.007246575,399.372678303 -259.666050131,400.0 -257.324853686,399.372678303 -255.610978939,397.658803556 -254.983657242,395.317607112" stroke="#000" stroke-linecap="round" stroke-linejoin="round"/><polyline fill="none" points="400.0,259.666050131 399.372678303,257.324853686 397.658803556,255.610978939 395.317607112,254.983657242 392.976410668,255.610978939 391.26253592,257.324853686 390.635214224,259.666050131 391.26253592,262.007246575 392.976410668,263.721121322 395.317607112,264.348443019 397.658803556,263.721121322 399.372678303,262.007246575 400.0,259.666050131" stroke="#000" stroke-linecap="round" stroke-linejoin="round"/><polyline fill="none" points="-254.983657242,-395.317607112 -255.610978939,-397.658803556 -257.324853686,-399.372678303 -259.666050131,-400.0 -262.007246575,-399.372678303 -263.721121322,-397.658803556 -264.348443019,-395.317607112 -263.721121322,-392.976410668 -262.007246575,-391.26253592 -259.666050131,-390.635214224 -257.324853686,-391.26253592 -255.610978939,-392.976410668 -254.983657242,-395.317607112" stroke="#000" stroke-linecap="round" stroke-linejoin="round"/><polyline fill="none" points="264.348443019,395.317607112 263.721121322,392.976410668 262.007246575,391.26253592 259.666050131,390.635214224 257.324853686,391.26253592 255.610978939,392.976410668 254.983657242,395.317607112 255.610978939,397.658803556 257.324853686,399.372678303 259.666050131,400.0 262.007246575,399.372678303 263.721121322,397.658803556 264.348443019,395.317607112" stroke="#000" stroke-linecap="round" stroke-linejoin="round"/><polyline fill="none" points="89.4911655846,395.486723933 88.8865012459,393.2300859 87.2345275512,391.578112205 84.9778895178,390.973447866 82.7212514844,391.578112205 81.0692777896,393.2300859 80.464613451,395.486723933 81.0692777896,397.743361967 82.7212514844,399.395335661 84.9778895178,400.0 87.2345275512,399.395335661 88.8865012459,397.743361967 89.4911655846,395.486723933" stroke="#000" stroke-linecap="round" stroke-linejoin="round"/><polyline fill="none" points="400.0,-84.9778895178 399.395335661,-87.2345275512 397.743361967,-88.8865012459 395.486723933,-89.4911655846 393.2300859,-88.8865012459 391.578112205,-87.2345275512 390.973447866,-84.9778895178 391.578112205,-82.7212514844 393.2300859,-81.0692777896 395.486723933,-80.464613451 397.743361967,-81.0692777896 399.395335661,-82.7212514844 400.0,-84.9778895178" stroke="#000" stroke-linecap="round" stroke-linejoin="round"/><polyline fill="none" points="400.0,84.9778895178 399.395335661,82.7212514844 397.743361967,81.0692777896 395.486723933,80.464613451 393.2300859,81.0692777896 391.578112205,82.7212514844 390.973447866,84.9778895178 391.578112205,87.2345275512 393.2300859,88.8865012459 395.486723933,89.4911655846 397.743361967,88.8865012459 399.395335661,87.2345275512 400.0,84.9778895178" stroke="#000" stroke-linecap="round" stroke-linejoin="round"/><polyline fill="none" points="89.4911655846,-395.486723933 88.8865012459,-397.743361967 87.2345275512,-399.395335661 84.9778895178,-400.0 82.7212514844,-399.395335661 81.0692777896,-397.743361967 80.464613451,-395.486723933 81.0692777896,-393.2300859 82.7212514844,-391.578112205 84.9778895178,-390.973447866 87.2345275512,-391.578112205 88.8865012459,-393.2300859 89.4911655846,-395.486723933" stroke="#000" stroke-linecap="round" stroke-linejoin="round"/><polyline fill="none" points="-390.973447866,-84.9778895178 -391.578112205,-87.2345275512 -393.2300859,-88.8865012459 -395.486723933,-89.4911655846 -397.743361967,-88.8865012459 -399.395335661,-87.2345275512 -400.0,-84.9778895178 -399.395335661,-82.7212514844 -397.743361967,-81.0692777896 -395.486723933,-80.464613451 -393.2300859,-81.0692777896 -391.578112205,-82.7212514844 -390.973447866,-84.9778895178" stroke="#000" stroke-linecap="round" stroke-linejoin="round"/><polyline fill="none" points="-390.973447866,84.9778895178 -391.578112205,82.7212514844 -393.2300859,81.0692777896 -395.486723933,80.464613451 -397.743361967,81.0692777896 -399.395335661,82.7212514844 -400.0,84.9778895178 -399.395335661,87.2345275512 -397.743361967,88.8865012459 -395.486723933,89.4911655846 -393.2300859,88.8865012459 -391.578112205,87.2345275512 -390.973447866,84.9778895178" stroke="#000" stroke-linecap="round" stroke-linejoin="round"/><polyline fill="none" points="-80.464613451,-395.486723933 -81.0692777896,-397.743361967 -82.7212514844,-399.395335661 -84.9778895178,-400.0 -87.2345275512,-399.395335661 -88.8865012459,-397.743361967 -89.4911655846,-395.486723933 -88.8865012459,-393.2300859 -87.2345275512,-391.578112205 -84.9778895178,-390.973447866 -82.7212514844,-391.578112205 -81.0692777896,-393.2300859 -80.464613451,-395.486723933" stroke="#000" stroke-linecap="round" stroke-linejoin="round"/><polyline fill="none" points="-233.149688386,-327.215439106 -233.723293219,-329.356161485 -235.290410766,-330.923279032 -237.431133145,-331.496883865 -239.571855524,-330.923279032 -241.138973071,-329.356161485 -241.712577903,-327.215439106 -241.138973071,-325.074716727 -239.571855524,-323.507599181 -237.431133145,-322.933994348 -235.290410766,-323.507599181 -233.723293219,-325.074716727 -233.149688386,-327.215439106" stroke="#000" stroke-linecap="round" stroke-linejoin="round"/><polyline fill="none" points="-80.464613451,395.486723933 -81.0692777896,393.2300859 -82.7212514844,391.578112205 -84.9778895178,390.973447866 -87.2345275512,391.578112205 -88.8865012459,393.2300859 -89.4911655846,395.486723933 -88.8865012459,397.743361967 -87.2345275512,399.395335661 -84.9778895178,400.0 -82.7212514844,399.395335661 -81.0692777896,397.743361967 -80.464613451,395.486723933" stroke="#000" stroke-linecap="round" stroke-linejoin="round"/><polyline fill="none" points="331.496883865,237.431133145 330.923279032,235.290410766 329.356161485,233.723293219 327.215439106,233.149688386 325.074716727,233.723293219 323.507599181,235.290410766 322.933994348,237.431133145 323.507599181,239.571855524 325.074716727,241.138973071 327.215439106,241.712577903 329.356161485,241.138973071 330.923279032,239.571855524 331.496883865,237.431133145" stroke="#000" stroke-linecap="round" stroke-linejoin="round"/><polyline fill="none" points="-322.933994348,-237.431133145 -323.507599181,-239.571855524 -325.074716727,-241.138973071 -327.215439106,-241.712577903 -329.356161485,-241.138973071 -330.923279032,-239.571855524 -331.496883865,-237.431133145 -330.923279032,-235.290410766 -329.356161485,-233.723293219 -327.215439106,-233.149688386 -325.074716727,-233.723293219 -323.507599181,-235.290410766 -322.933994348,-237.431133145" stroke="#000" stroke-linecap="round" stroke-linejoin="round"/><polyline fill="none" points="241.712577903,327.215439106 241.138973071,325.074716727 239.571855524,323.507599181 237.431133145,322.933994348 235.290410766,323.507599181 233.723293219,325.074716727 233.149688386,327.215439106 233.723293219,329.356161485 235.290410766,330.923279032 237.431133145,331.496883865 239.571855524,330.923279032 241.138973071,329.356161485 241.712577903,327.215439106" stroke="#000" stroke-linecap="round" stroke-linejoin="round"/><polyline fill="none" points="331.496883865,-237.431133145 330.923279032,-239.571855524 329.356161485,-241.138973071 327.215439106,-241.712577903 325.074716727,-241.138973071 323.507599181,-239.571855524 322.933994348,-237.431133145 323.507599181,-235.290410766 325.074716727,-233.723293219 327.215439106,-233.149688386 329.356161485,-233.723293219 330.923279032,-235.290410766 331.496883865,-237.431133145" stroke="#000" stroke-linecap="round" stroke-linejoin="round"/><polyline fill="none" points="-233.149688386,327.215439106 -233.723293219,325.074716727 -235.290410766,323.507599181 -237.431133145,322.933994348 -239.571855524,323.507599181 -241.138973071,325.074716727 -241.712577903,327.215439106 -241.138973071,329.356161485 -239.571855524,330.923279032 -237.431133145,331.496883865 -235.290410766,330.923279032 -233.723293219,329.356161485 -233.149688386,327.215439106" stroke="#000" stroke-linecap="round" stroke-linejoin="round"/><polyline fill="none" points="241.712577903,-327.215439106 241.138973071,-329.356161485 239.571855524,-330.923279032 237.431133145,-331.496883865 235.290410766,-330.923279032 233.723293219,-329.356161485 233.149688386,-327.215439106 233.723293219,-325.074716727 235.290410766,-323.507599181 237.431133145,-322.933994348 239.571855524,-323.507599181 241.138973071,-325.074716727 241.712577903,-327.215439106" stroke="#000" stroke-linecap="round" stroke-linejoin="round"/><polyline fill="none" points="-322.933994348,237.431133145 -323.507599181,235.290410766 -325.074716727,233.723293219 -327.215439106,233.149688386 -329.356161485,233.723293219 -330.923279032,235.290410766 -331.496883865,237.431133145 -330.923279032,239.571855524 -329.356161485,241.138973071 -327.215439106,241.712577903 -325.074716727,241.138973071 -323.507599181,239.571855524 -322.933994348,237.431133145" stroke="#000" stroke-linecap="round" stroke-linejoin="round"/><polyline fill="none" points="166.933961165,-395.85912665 166.37918933,-397.929563325 164.86352449,-399.445228165 162.793087815,-400.0 160.72265114,-399.445228165 159.2069863,-397.929563325 158.652214465,-395.85912665 159.2069863,-393.788689975 160.72265114,-392.273025135 162.793087815,-391.7182533 164.86352449,-392.273025135 166.37918933,-393.788689975 166.933961165,-395.85912665" stroke="#000" stroke-linecap="round" stroke-linejoin="round"/><polyline fill="none" points="-158.652214465,-395.85912665 -159.2069863,-397.929563325 -160.72265114,-399.445228165 -162.793087815,-400.0 -164.86352449,-399.445228165 -166.37918933,-397.929563325 -166.933961165,-395.85912665 -166.37918933,-393.788689975 -164.86352449,-392.273025135 -162.793087815,-391.7182533 -160.72265114,-392.273025135 -159.2069863,-393.788689975 -158.652214465,-395.85912665" stroke="#000" stroke-linecap="round" stroke-linejoin="round"/><polyline fill="none" points="-391.7182533,162.793087815 -392.273025135,160.72265114 -393.788689975,159.2069863 -395.85912665,158.652214465 -397.929563325,159.2069863 -399.445228165,160.72265114 -400.0,162.793087815 -399.445228165,164.86352449 -397.929563325,166.37918933 -395.85912665,166.933961165 -393.788689975,166.37918933 -392.273025135,164.86352449 -391.7182533,162.793087815" stroke="#000" stroke-linecap="round" stroke-linejoin="round"/><polyline fill="none" points="400.0,162.793087815 399.445228165,160.72265114 397.929563325,159.2069863 395.85912665,158.652214465 393.788689975,159.2069863 392.273025135,160.72265114 391.7182533,162.793087815 392.273025135,164.86352449 393.788689975,166.37918933 395.85912665,166.933961165 397.929563325,166.37918933 399.445228165,164.86352449 400.0,162.793087815" stroke="#000" stroke-linecap="round" stroke-linejoin="round"/><polyline fill="none" points="166.933961165,395.85912665 166.37918933,393.788689975 164.86352449,392.273025135 162.793087815,391.7182533 160.72265114,392.273025135 159.2069863,393.788689975 158.652214465,395.85912665 159.2069863,397.929563325 160.72265114,399.445228165 162.793087815,400.0 164.86352449,399.445228165 166.37918933,397.929563325 166.933961165,395.85912665" stroke="#000" stroke-linecap="round" stroke-linejoin="round"/><polyline fill="none" points="-158.652214465,395.85912665 -159.2069863,393.788689975 -160.72265114,392.273025135 -162.793087815,391.7182533 -164.86352449,392.273025135 -166.37918933,393.788689975 -166.933961165,395.85912665 -166.37918933,397.929563325 -164.86352449,399.445228165 -162.793087815,400.0 -160.72265114,399.445228165 -159.2069863,397.929563325 -158.652214465,395.85912665" stroke="#000" stroke-linecap="round" stroke-linejoin="round"/><polyline fill="none" points="400.0,-162.793087815 399.445228165,-164.86352449 397.929563325,-166.37918933 395.85912665,-166.933961165 393.788689975,-166.37918933 392.273025135,-164.86352449 391.7182533,-162.793087815 392.273025135,-160.72265114 393.788689975,-159.2069863 395.85912665,-158.652214465 397.929563325,-159.2069863 399.445228165,-160.72265114 400.0,-162.793087815" stroke="#000" stroke-linecap="round" stroke-linejoin="round"/><polyline fill="none" points="-391.7182533,-162.793087815 -392.273025135,-164.86352449 -393.788689975,-166.37918933 -395.85912665,-166.933961165 -397.929563325,-166.37918933 -399.445228165,-164.86352449 -400.0,-162.793087815 -399.445228165,-160.72265114 -397.929563325,-159.2069863 -395.85912665,-158.652214465 -393.788689975,-159.2069863 -392.273025135,-160.72265114 -391.7182533,-162.793087815" stroke="#000" stroke-linecap="round" stroke-linejoin="round"/><polyline fill="none" points="-367.870834246,-157.889582094 -368.408895747,-159.897654954 -369.878907106,-161.367666312 -371.886979966,-161.905727813 -373.895052825,-161.367666312 -375.365064184,-159.897654954 -375.903125685,-157.889582094 -375.365064184,-155.881509235 -373.895052825,-154.411497876 -371.886979966,-153.873436375 -369.878907106,-154.411497876 -368.408895747,-155.881509235 -367.870834246,-157.889582094" stroke="#000" stroke-linecap="round" stroke-linejoin="round"/><polyline fill="none" points="-153.873436375,-371.886979966 -154.411497876,-373.895052825 -155.881509235,-375.365064184 -157.889582094,-375.903125685 -159.897654954,-375.365064184 -161.367666312,-373.895052825 -161.905727813,-371.886979966 -161.367666312,-369.878907106 -159.897654954,-368.408895747 -157.889582094,-367.870834246 -155.881509235,-368.408895747 -154.411497876,-369.878907106 -153.873436375,-371.886979966" stroke="#000" stroke-linecap="round" stroke-linejoin="round"/><polyline fill="none" points="161.905727813,371.886979966 161.367666312,369.878907106 159.897654954,368.408895747 157.889582094,367.870834246 155.881509235,368.408895747 154.411497876,369.878907106 153.873436375,371.886979966 154.411497876,373.895052825 155.881509235,375.365064184 157.889582094,375.903125685 159.897654954,375.365064184 161.367666312,373.895052825 161.905727813,371.886979966" stroke="#000" stroke-linecap="round" stroke-linejoin="round"/><polyline fill="none" points="375.903125685,157.889582094 375.365064184,155.881509235 373.895052825,154.411497876 371.886979966,153.873436375 369.878907106,154.411497876 368.408895747,155.881509235 367.870834246,157.889582094 368.408895747,159.897654954 369.878907106,161.367666312 371.886979966,161.905727813 373.895052825,161.367666312 375.365064184,159.897654954 375.903125685,157.889582094" stroke="#000" stroke-linecap="round" stroke-linejoin="round"/><polyline fill="none" points="375.903125685,-157.889582094 375.365064184,-159.897654954 373.895052825,-161.367666312 371.886979966,-161.905727813 369.878907106,-161.367666312 368.408895747,-159.897654954 367.870834246,-157.889582094 368.408895747,-155.881509235 369.878907106,-154.411497876 371.886979966,-153.873436375 373.895052825,-154.411497876 375.365064184,-155.881509235 375.903125685,-157.889582094" stroke="#000" stroke-linecap="round" stroke-linejoin="round"/><polyline fill="none" points="161.905727813,-371.886979966 161.367666312,-373.895052825 159.897654954,-375.365064184 157.889582094,-375.903125685 155.881509235,-375.365064184 154.411497876,-373.895052825 153.873436375,-371.886979966 154.411497876,-369.878907106 155.881509235,-368.408895747 157.889582094,-367.870834246 159.897654954,-368.408895747 161.367666312,-369.878907106 161.905727813,-371.886979966" stroke="#000" stroke-linecap="round" stroke-linejoin="round"/><polyline fill="none" points="-153.873436375,371.886979966 -154.411497876,369.878907106 -155.881509235,368.408895747 -157.889582094,367.870834246 -159.897654954,368.408895747 -161.367666312,369.878907106 -161.905727813,371.886979966 -161.367666312,373.895052825 -159.897654954,375.365064184 -157.889582094,375.903125685 -155.881509235,375.365064184 -154.411497876,373.895052825 -153.873436375,371.886979966" stroke="#000" stroke-linecap="round" stroke-linejoin="round"/><polyline fill="none" points="-367.870834246,157.889582094 -368.408895747,155.881509235 -369.878907106,154.411497876 -371.886979966,153.873436375 -373.895052825,154.411497876 -375.365064184,155.881509235 -375.903125685,157.889582094 -375.365064184,159.897654954 -373.895052825,161.367666312 -371.886979966,161.905727813 -369.878907106,161.367666312 -368.408895747,159.897654954 -367.870834246,157.889582094" stroke="#000" stroke-linecap="round" stroke-linejoin="round"/><polyline fill="none" points="275.735931288,372.792206136 275.215195117,370.848792288 273.792517441,369.426114612 271.849103593,368.905378441 269.905689746,369.426114612 268.483012069,370.848792288 267.962275898,372.792206136 268.483012069,374.735619983 269.905689746,376.15829766 271.849103593,376.679033831 273.792517441,376.15829766 275.215195117,374.735619983 275.735931288,372.792206136" stroke="#000" stroke-linecap="round" stroke-linejoin="round"/><polyline fill="none" points="275.735931288,-372.792206136 275.215195117,-374.735619983 273.792517441,-376.15829766 271.849103593,-376.679033831 269.905689746,-376.15829766 268.483012069,-374.735619983 267.962275898,-372.792206136 268.483012069,-370.848792288 269.905689746,-369.426114612 271.849103593,-368.905378441 273.792517441,-369.426114612 275.215195117,-370.848792288 275.735931288,-372.792206136" stroke="#000" stroke-linecap="round" stroke-linejoin="round"/><polyline fill="none" points="376.679033831,-271.849103593 376.15829766,-273.792517441 374.735619983,-275.215195117 372.792206136,-275.735931288 370.848792288,-275.215195117 369.426114612,-273.792517441 368.905378441,-271.849103593 369.426114612,-269.905689746 370.848792288,-268.483012069 372.792206136,-267.962275898 374.735619983,-268.483012069 376.15829766,-269.905689746 376.679033831,-271.849103593" stroke="#000" stroke-linecap="round" stroke-linejoin="round"/><polyline fill="none" points="-267.962275898,-372.792206136 -268.483012069,-374.735619983 -269.905689746,-376.15829766 -271.849103593,-376.679033831 -273.792517441,-376.15829766 -275.215195117,-374.735619983 -275.735931288,-372.792206136 -275.215195117,-370.848792288 -273.792517441,-369.426114612 -271.849103593,-368.905378441 -269.905689746,-369.426114612 -268.483012069,-370.848792288 -267.962275898,-372.792206136" stroke="#000" stroke-linecap="round" stroke-linejoin="round"/><polyline fill="none" points="-368.905378441,-271.849103593 -369.426114612,-273.792517441 -370.848792288,-275.215195117 -372.792206136,-275.735931288 -374.735619983,-275.215195117 -376.15829766,-273.792517441 -376.679033831,-271.849103593 -376.15829766,-269.905689746 -374.735619983,-268.483012069 -372.792206136,-267.962275898 -370.848792288,-268.483012069 -369.426114612,-269.905689746 -368.905378441,-271.849103593" stroke="#000" stroke-linecap="round" stroke-linejoin="round"/><polyline fill="none" points="376.679033831,271.849103593 376.15829766,269.905689746 374.735619983,268.483012069 372.792206136,267.962275898 370.848792288,268.483012069 369.426114612,269.905689746 368.905378441,271.849103593 369.426114612,273.792517441 370.848792288,275.215195117 372.792206136,275.735931288 374.735619983,275.215195117 376.15829766,273.792517441 376.679033831,271.849103593" stroke="#000" stroke-linecap="round" stroke-linejoin="round"/><polyline fill="none" points="-267.962275898,372.792206136 -268.483012069,370.848792288 -269.905689746,369.426114612 -271.849103593,368.905378441 -273.792517441,369.426114612 -275.215195117,370.848792288 -275.735931288,372.792206136 -275.215195117,374.735619983 -273.792517441,376.15829766 -271.849103593,376.679033831 -269.905689746,376.15829766 -268.483012069,374.735619983 -267.962275898,372.792206136" stroke="#000" stroke-linecap="round" stroke-linejoin="round"/><polyline fill="none" points="-368.905378441,271.849103593 -369.426114612,269.905689746 -370.848792288,268.483012069 -372.792206136,267.962275898 -374.735619983,268.483012069 -376.15829766,269.905689746 -376.679033831,271.849103593 -376.15829766,273.792517441 -374.735619983,275.215195117 -372.792206136,275.735931288 -370.848792288,275.215195117 -369.426114612,273.792517441 -368.905378441,271.849103593" stroke="#000" stroke-linecap="round" stroke-linejoin="round"/><polyline fill="none" points="262.959931961,-336.985509998 262.463323675,-338.838877351 261.106564608,-340.195636419 259.253197255,-340.692244704 257.399829902,-340.195636419 256.043070834,-338.838877351 255.546462549,-336.985509998 256.043070834,-335.132142645 257.399829902,-333.775383578 259.253197255,-333.278775292 261.106564608,-333.775383578 262.463323675,-335.132142645 262.959931961,-336.985509998" stroke="#000" stroke-linecap="round" stroke-linejoin="round"/><polyline fill="none" points="340.692244704,259.253197255 340.195636419,257.399829902 338.838877351,256.043070834 336.985509998,255.546462549 335.132142645,256.043070834 333.775383578,257.399829902 333.278775292,259.253197255 333.775383578,261.106564608 335.132142645,262.463323675 336.985509998,262.959931961 338.838877351,262.463323675 340.195636419,261.106564608 340.692244704,259.253197255" stroke="#000" stroke-linecap="round" stroke-linejoin="round"/><polyline fill="none" points="262.959931961,336.985509998 262.463323675,335.132142645 261.106564608,333.775383578 259.253197255,333.278775292 257.399829902,333.775383578 256.043070834,335.132142645 255.546462549,336.985509998 256.043070834,338.838877351 257.399829902,340.195636419 259.253197255,340.692244704 261.106564608,340.195636419 262.463323675,338.838877351 262.959931961,336.985509998" stroke="#000" stroke-linecap="round" stroke-linejoin="round"/><polyline fill="none" points="-255.546462549,336.985509998 -256.043070834,335.132142645 -257.399829902,333.775383578 -259.253197255,333.278775292 -261.106564608,333.775383578 -262.463323675,335.132142645 -262.959931961,336.985509998 -262.463323675,338.838877351 -261.106564608,340.195636419 -259.253197255,340.692244704 -257.399829902,340.195636419 -256.043070834,338.838877351 -255.546462549,336.985509998" stroke="#000" stroke-linecap="round" stroke-linejoin="round"/><polyline fill="none" points="-333.278775292,-259.253197255 -333.775383578,-261.106564608 -335.132142645,-262.463323675 -336.985509998,-262.959931961 -338.838877351,-262.463323675 -340.195636419,-261.106564608 -340.692244704,-259.253197255 -340.195636419,-257.399829902 -338.838877351,-256.043070834 -336.985509998,-255.546462549 -335.132142645,-256.043070834 -333.775383578,-257.399829902 -333.278775292,-259.253197255" stroke="#000" stroke-linecap="round" stroke-linejoin="round"/><polyline fill="none" points="-333.278775292,259.253197255 -333.775383578,257.399829902 -335.132142645,256.043070834 -336.985509998,255.546462549 -338.838877351,256.043070834 -340.195636419,257.399829902 -340.692244704,259.253197255 -340.195636419,261.106564608 -338.838877351,262.463323675 -336.985509998,262.959931961 -335.132142645,262.463323675 -333.775383578,261.106564608 -333.278775292,259.253197255" stroke="#000" stroke-linecap="round" stroke-linejoin="round"/><polyline fill="none" points="340.692244704,-259.253197255 340.195636419,-261.106564608 338.838877351,-262.463323675 336.985509998,-262.959931961 335.132142645,-262.463323675 333.775383578,-261.106564608 333.278775292,-259.253197255 333.775383578,-257.399829902 335.132142645,-256.043070834 336.985509998,-255.546462549 338.838877351,-256.043070834 340.195636419,-257.399829902 340.692244704,-259.253197255" stroke="#000" stroke-linecap="round" stroke-linejoin="round"/><polyline fill="none" points="-255.546462549,-336.985509998 -256.043070834,-338.838877351 -257.399829902,-340.195636419 -259.253197255,-340.692244704 -261.106564608,-340.195636419 -262.463323675,-338.838877351 -262.959931961,-336.985509998 -262.463323675,-335.132142645 -261.106564608,-333.775383578 -259.253197255,-333.278775292 -257.399829902,-333.775383578 -256.043070834,-335.132142645 -255.546462549,-336.985509998" stroke="#000" stroke-linecap="round" stroke-linejoin="round"/><polyline fill="none" points="-392.623726213,-76.8180905076 -393.117842865,-78.6621589543 -394.46779466,-80.0121107498 -396.311863107,-80.5062274009 -398.155931553,-80.0121107498 -399.505883349,-78.6621589543 -400.0,-76.8180905076 -399.505883349,-74.974022061 -398.155931553,-73.6240702654 -396.311863107,-73.1299536143 -394.46779466,-73.6240702654 -393.117842865,-74.974022061 -392.623726213,-76.8180905076" stroke="#000" stroke-linecap="round" stroke-linejoin="round"/><polyline fill="none" points="-392.623726213,76.8180905076 -393.117842865,74.974022061 -394.46779466,73.6240702654 -396.311863107,73.1299536143 -398.155931553,73.6240702654 -399.505883349,74.974022061 -400.0,76.8180905076 -399.505883349,78.6621589542 -398.155931553,80.0121107498 -396.311863107,80.5062274009 -394.46779466,80.0121107498 -393.117842865,78.6621589543 -392.623726213,76.8180905076" stroke="#000" stroke-linecap="round" stroke-linejoin="round"/><polyline fill="none" points="-73.1299536143,-396.311863107 -73.6240702654,-398.155931553 -74.974022061,-399.505883349 -76.8180905076,-400.0 -78.6621589542,-399.505883349 -80.0121107498,-398.155931553 -80.5062274009,-396.311863107 -80.0121107498,-394.46779466 -78.6621589543,-393.117842865 -76.8180905076,-392.623726213 -74.974022061,-393.117842865 -73.6240702654,-394.46779466 -73.1299536143,-396.311863107" stroke="#000" stroke-linecap="round" stroke-linejoin="round"/><polyline fill="none" points="-73.1299536143,396.311863107 -73.6240702654,394.46779466 -74.974022061,393.117842865 -76.8180905076,392.623726213 -78.6621589542,393.117842865 -80.0121107498,394.46779466 -80.5062274009,396.311863107 -80.0121107498,398.155931553 -78.6621589543,399.505883349 -76.8180905076,400.0 -74.974022061,399.505883349 -73.6240702654,398.155931553 -73.1299536143,396.311863107" stroke="#000" stroke-linecap="round" stroke-linejoin="round"/><polyline fill="none" points="80.5062274009,396.311863107 80.0121107498,394.46779466 78.6621589543,393.117842865 76.8180905076,392.623726213 74.974022061,393.117842865 73.6240702654,394.46779466 73.1299536143,396.311863107 73.6240702654,398.155931553 74.974022061,399.505883349 76.8180905076,400.0 78.6621589542,399.505883349 80.0121107498,398.155931553 80.5062274009,396.311863107" stroke="#000" stroke-linecap="round" stroke-linejoin="round"/><polyline fill="none" points="400.0,-76.8180905076 399.505883349,-78.6621589543 398.155931553,-80.0121107498 396.311863107,-80.5062274009 394.46779466,-80.0121107498 393.117842865,-78.6621589543 392.623726213,-76.8180905076 393.117842865,-74.974022061 394.46779466,-73.6240702654 396.311863107,-73.1299536143 398.155931553,-73.6240702654 399.505883349,-74.974022061 400.0,-76.8180905076" stroke="#000" stroke-linecap="round" stroke-linejoin="round"/><polyline fill="none" points="400.0,76.8180905076 399.505883349,74.974022061 398.155931553,73.6240702654 396.311863107,73.1299536143 394.46779466,73.6240702654 393.117842865,74.974022061 392.623726213,76.8180905076 393.117842865,78.6621589542 394.46779466,80.0121107498 396.311863107,80.5062274009 398.155931553,80.0121107498 399.505883349,78.6621589543 400.0,76.8180905076" stroke="#000" stroke-linecap="round" stroke-linejoin="round"/><polyline fill="none" points="80.5062274009,-396.311863107 80.0121107498,-398.155931553 78.6621589543,-399.505883349 76.8180905076,-400.0 74.974022061,-399.505883349 73.6240702654,-398.155931553 73.1299536143,-396.311863107 73.6240702654,-394.46779466 74.974022061,-393.117842865 76.8180905076,-392.623726213 78.6621589542,-393.117842865 80.0121107498,-394.46779466 80.5062274009,-396.311863107" stroke="#000" stroke-linecap="round" stroke-linejoin="round"/><polyline fill="none" points="303.798330422,-396.477897918 303.326458217,-398.238948959 302.037279381,-399.528127796 300.276228339,-400.0 298.515177298,-399.528127796 297.225998461,-398.238948959 296.754126257,-396.477897918 297.225998461,-394.716846877 298.515177298,-393.42766804 300.276228339,-392.955795835 302.037279381,-393.42766804 303.326458217,-394.716846877 303.798330422,-396.477897918" stroke="#000" stroke-linecap="round" stroke-linejoin="round"/><polyline fill="none" points="-392.955795835,-300.276228339 -393.42766804,-302.037279381 -394.716846877,-303.326458217 -396.477897918,-303.798330422 -398.238948959,-303.326458217 -399.528127796,-302.037279381 -400.0,-300.276228339 -399.528127796,-298.515177298 -398.238948959,-297.225998461 -396.477897918,-296.754126257 -394.716846877,-297.225998461 -393.42766804,-298.515177298 -392.955795835,-300.276228339" stroke="#000" stroke-linecap="round" stroke-linejoin="round"/><polyline fill="none" points="400.0,-300.276228339 399.528127796,-302.037279381 398.238948959,-303.326458217 396.477897918,-303.798330422 394.716846877,-303.326458217 393.42766804,-302.037279381 392.955795835,-300.276228339 393.42766804,-298.515177298 394.716846877,-297.225998461 396.477897918,-296.754126257 398.238948959,-297.225998461 399.528127796,-298.515177298 400.0,-300.276228339" stroke="#000" stroke-linecap="round" stroke-linejoin="round"/><polyline fill="none" points="303.798330422,396.477897918 303.326458217,394.716846877 302.037279381,393.42766804 300.276228339,392.955795835 298.515177298,393.42766804 297.225998461,394.716846877 296.754126257,396.477897918 297.225998461,398.238948959 298.515177298,399.528127796 300.276228339,400.0 302.037279381,399.528127796 303.326458217,398.238948959 303.798330422,396.477897918" stroke="#000" stroke-linecap="round" stroke-linejoin="round"/><polyline fill="none" points="-358.943369375,396.477897918 -359.41524158,394.716846877 -360.704420416,393.42766804 -362.465471458,392.955795835 -364.226522499,393.42766804 -365.515701336,394.716846877 -365.98757354,396.477897918 -365.515701336,398.238948959 -364.226522499,399.528127796 -362.465471458,400.0 -360.704420416,399.528127796 -359.41524158,398.238948959 -358.943369375,396.477897918" stroke="#000" stroke-linecap="round" stroke-linejoin="round"/><polyline fill="none" points="-392.955795835,362.465471458 -393.42766804,360.704420416 -394.716846877,359.41524158 -396.477897918,358.943369375 -398.238948959,359.41524158 -399.528127796,360.704420416 -400.0,362.465471458 -399.528127796,364.226522499 -398.238948959,365.515701336 -396.477897918,365.98757354 -394.716846877,365.515701336 -393.42766804,364.226522499 -392.955795835,362.465471458" stroke="#000" stroke-linecap="round" stroke-linejoin="round"/><polyline fill="none" points="365.98757354,396.477897918 365.515701336,394.716846877 364.226522499,393.42766804 362.465471458,392.955795835 360.704420416,393.42766804 359.41524158,394.716846877 358.943369375,396.477897918 359.41524158,398.238948959 360.704420416,399.528127796 362.465471458,400.0 364.226522499,399.528127796 365.515701336,398.238948959 365.98757354,396.477897918" stroke="#000" stroke-linecap="round" stroke-linejoin="round"/><polyline fill="none" points="400.0,-362.465471458 399.528127796,-364.226522499 398.238948959,-365.515701336 396.477897918,-365.98757354 394.716846877,-365.515701336 393.42766804,-364.226522499 392.955795835,-362.465471458 393.42766804,-360.704420416 394.716846877,-359.41524158 396.477897918,-358.943369375 398.238948959,-359.41524158 399.528127796,-360.704420416 400.0,-362.465471458" stroke="#000" stroke-linecap="round" stroke-linejoin="round"/><polyline fill="none" points="365.98757354,-396.477897918 365.515701336,-398.238948959 364.226522499,-399.528127796 362.465471458,-400.0 360.704420416,-399.528127796 359.41524158,-398.238948959 358.943369375,-396.477897918 359.41524158,-394.716846877 360.704420416,-393.42766804 362.465471458,-392.955795835 364.226522499,-393.42766804 365.515701336,-394.716846877 365.98757354,-396.477897918" stroke="#000" stroke-linecap="round" stroke-linejoin="round"/><polyline fill="none" points="400.0,362.465471458 399.528127796,360.704420416 398.238948959,359.41524158 396.477897918,358.943369375 394.716846877,359.41524158 393.42766804,360.704420416 392.955795835,362.465471458 393.42766804,364.226522499 394.716846877,365.515701336 396.477897918,365.98757354 398.238948959,365.515701336 399.528127796,364.226522499 400.0,362.465471458" stroke="#000" stroke-linecap="round" stroke-linejoin="round"/><polyline fill="none" points="-392.955795835,-362.465471458 -393.42766804,-364.226522499 -394.716846877,-365.515701336 -396.477897918,-365.98757354 -398.238948959,-365.515701336 -399.528127796,-364.226522499 -400.0,-362.465471458 -399.528127796,-360.704420416 -398.238948959,-359.41524158 -396.477897918,-358.943369375 -394.716846877,-359.41524158 -393.42766804,-360.704420416 -392.955795835,-362.465471458" stroke="#000" stroke-linecap="round" stroke-linejoin="round"/><polyline fill="none" points="-392.955795835,300.276228339 -393.42766804,298.515177298 -394.716846877,297.225998461 -396.477897918,296.754126257 -398.238948959,297.225998461 -399.528127796,298.515177298 -400.0,300.276228339 -399.528127796,302.03727938 -398.238948959,303.326458217 -396.477897918,303.798330422 -394.716846877,303.326458217 -393.42766804,302.037279381 -392.955795835,300.276228339" stroke="#000" stroke-linecap="round" stroke-linejoin="round"/><polyline fill="none" points="-358.943369375,-396.477897918 -359.41524158,-398.238948959 -360.704420416,-399.528127796 -362.465471458,-400.0 -364.226522499,-399.528127796 -365.515701336,-398.238948959 -365.98757354,-396.477897918 -365.515701336,-394.716846877 -364.226522499,-393.42766804 -362.465471458,-392.955795835 -360.704420416,-393.42766804 -359.41524158,-394.716846877 -358.943369375,-396.477897918" stroke="#000" stroke-linecap="round" stroke-linejoin="round"/><polyline fill="none" points="400.0,300.276228339 399.528127796,298.515177298 398.238948959,297.225998461 396.477897918,296.754126257 394.716846877,297.225998461 393.42766804,298.515177298 392.955795835,300.276228339 393.42766804,302.03727938 394.716846877,303.326458217 396.477897918,303.798330422 398.238948959,303.326458217 399.528127796,302.037279381 400.0,300.276228339" stroke="#000" stroke-linecap="round" stroke-linejoin="round"/><polyline fill="none" points="-296.754126257,396.477897918 -297.225998461,394.716846877 -298.515177298,393.42766804 -300.276228339,392.955795835 -302.037279381,393.42766804 -303.326458217,394.716846877 -303.798330422,396.477897918 -303.326458217,398.238948959 -302.037279381,399.528127796 -300.276228339,400.0 -298.515177298,399.528127796 -297.225998461,398.238948959 -296.754126257,396.477897918" stroke="#000" stroke-linecap="round" stroke-linejoin="round"/><polyline fill="none" points="-296.754126257,-396.477897918 -297.225998461,-398.238948959 -298.515177298,-399.528127796 -300.276228339,-400.0 -302.037279381,-399.528127796 -303.326458217,-398.238948959 -303.798330422,-396.477897918 -303.326458217,-394.716846877 -302.037279381,-393.42766804 -300.276228339,-392.955795835 -298.515177298,-393.42766804 -297.225998461,-394.716846877 -296.754126257,-396.477897918" stroke="#000" stroke-linecap="round" stroke-linejoin="round"/><polyline fill="none" points="-393.670734335,-213.472979062 -394.094714741,-215.055295478 -395.253050751,-216.213631488 -396.835367167,-216.637611894 -398.417683584,-216.213631488 -399.576019594,-215.055295478 -400.0,-213.472979062 -399.576019594,-211.890662645 -398.417683584,-210.732326635 -396.835367167,-210.308346229 -395.253050751,-210.732326635 -394.094714741,-211.890662645 -393.670734335,-213.472979062" stroke="#000" stroke-linecap="round" stroke-linejoin="round"/><polyline fill="none" points="400.0,-213.472979062 399.576019594,-215.055295478 398.417683584,-216.213631488 396.835367167,-216.637611894 395.253050751,-216.213631488 394.094714741,-215.055295478 393.670734335,-213.472979062 394.094714741,-211.890662645 395.253050751,-210.732326635 396.835367167,-210.308346229 398.417683584,-210.732326635 399.576019594,-211.890662645 400.0,-213.472979062" stroke="#000" stroke-linecap="round" stroke-linejoin="round"/><polyline fill="none" points="-210.308346229,396.835367167 -210.732326635,395.253050751 -211.890662645,394.094714741 -213.472979062,393.670734335 -215.055295478,394.094714741 -216.213631488,395.253050751 -216.637611894,396.835367167 -216.213631488,398.417683584 -215.055295478,399.576019594 -213.472979062,400.0 -211.890662645,399.576019594 -210.732326635,398.417683584 -210.308346229,396.835367167" stroke="#000" stroke-linecap="round" stroke-linejoin="round"/><polyline fill="none" points="400.0,213.472979062 399.576019594,211.890662645 398.417683584,210.732326635 396.835367167,210.308346229 395.253050751,210.732326635 394.094714741,211.890662645 393.670734335,213.472979062 394.094714741,215.055295478 395.253050751,216.213631488 396.835367167,216.637611894 398.417683584,216.213631488 399.576019594,215.055295478 400.0,213.472979062" stroke="#000" stroke-linecap="round" stroke-linejoin="round"/><polyline fill="none" points="-393.670734335,213.472979062 -394.094714741,211.890662645 -395.253050751,210.732326635 -396.835367167,210.308346229 -398.417683584,210.732326635 -399.576019594,211.890662645 -400.0,213.472979062 -399.576019594,215.055295478 -398.417683584,216.213631488 -396.835367167,216.637611894 -395.253050751,216.213631488 -394.094714741,215.055295478 -393.670734335,213.472979062" stroke="#000" stroke-linecap="round" stroke-linejoin="round"/><polyline fill="none" points="-210.308346229,-396.835367167 -210.732326635,-398.417683584 -211.890662645,-399.576019594 -213.472979062,-400.0 -215.055295478,-399.576019594 -216.213631488,-398.417683584 -216.637611894,-396.835367167 -216.213631488,-395.253050751 -215.055295478,-394.094714741 -213.472979062,-393.670734335 -211.890662645,-394.094714741 -210.732326635,-395.253050751 -210.308346229,-396.835367167" stroke="#000" stroke-linecap="round" stroke-linejoin="round"/><line fill="none" stroke="none" stroke-linecap="round" stroke-width="2.0" x1="0.0" x2="0.0" y1="0.0" y2="0.0"/></svg>